<svg width="363" height="318" viewBox="0 0 363 318" fill="none" xmlns="http://www.w3.org/2000/svg">
<path fill-rule="evenodd" clip-rule="evenodd" d="M148.306 0.717917C162.984 48.6435 194.851 96.9463 231.906 139.902C220.893 103.913 214.439 64.8566 218.116 26.4345L279.351 32.2887C275.398 73.5968 287.319 119.811 305.757 162.477C324.048 204.803 347.439 240.619 362.795 259.991L342.192 309.642C304.217 313.998 242.286 318.462 178.757 317.836C116.239 317.219 48.0987 311.687 0.0911827 293.99L21.3752 236.285C53.2321 248.029 100.813 253.884 152.395 255.73C103.46 234.799 53.4129 207.116 13.4885 171.506L54.4416 125.612C95.3266 162.079 151.507 190.548 206.744 211.265C210.422 212.644 214.085 213.986 217.729 215.289C211.048 208.463 204.368 201.395 197.75 194.109C153.262 145.128 109.471 83.9791 89.4867 18.7277L148.306 0.717917Z" fill="#FFBC89"/>
</svg>
