<svg width="122" height="39" viewBox="0 0 122 39" fill="none" xmlns="http://www.w3.org/2000/svg">
<path fill-rule="evenodd" clip-rule="evenodd" d="M35.096 6.70146C37.446 4.13534 35.6255 -0.000115375 32.1459 2.41418e-09L4.00005 0.000933303C1.79096 0.00100656 0.000183105 1.79184 0.000183105 4.00093V21.8044V34.7347C0.000183105 38.3837 4.48572 40.1272 6.95012 37.4361L21.2652 21.8044H0.000183105C0.796957 20.7089 3.04784 17.5616 5.6772 13.7371C8.30656 9.91257 9.56147 10.9484 9.86026 11.9443C11.653 15.231 13.3882 14.12 15.2385 8.95644C17.2952 3.21673 19.063 5.87602 19.6895 6.81853C19.7001 6.8345 19.7104 6.84998 19.7203 6.86491L26.8227 15.7357L35.096 6.70146Z" fill="#3D3D3D"/>
<mask id="mask0_212_22" style="mask-type:alpha" maskUnits="userSpaceOnUse" x="0" y="0" width="37" height="39">
<path fill-rule="evenodd" clip-rule="evenodd" d="M35.0958 6.70146C37.4458 4.13534 35.6253 -0.000115375 32.1457 2.41418e-09L3.99987 0.000933303C1.79078 0.00100656 0 1.79184 0 4.00093V21.8044V34.7347C0 38.3837 4.48554 40.1272 6.94994 37.4361L21.265 21.8044H0C0.796774 20.7089 3.04766 17.5616 5.67702 13.7371C8.30637 9.91257 9.56129 10.9484 9.86008 11.9443C11.6528 15.231 13.3881 14.12 15.2383 8.95644C17.295 3.21673 19.0628 5.87602 19.6893 6.81853C19.6999 6.8345 19.7102 6.84998 19.7202 6.86491L26.8226 15.7357L35.0958 6.70146Z" fill="#072F98"/>
</mask>
<g mask="url(#mask0_212_22)">
<rect y="21" width="23" height="19" fill="#7238ED"/>
<circle cx="10.5" cy="13.5" r="8.5" fill="#EF864C"/>
</g>
<path d="M51.3267 8C51.7078 8 52.0965 8.0194 52.4928 8.0582C52.8929 8.09313 53.2816 8.15715 53.6589 8.25028C54.0362 8.33952 54.3905 8.46563 54.7221 8.6286C55.0536 8.78769 55.3432 8.99141 55.5909 9.23975C55.8424 9.4842 56.0406 9.7791 56.1854 10.1244C56.3302 10.4659 56.4026 10.8675 56.4026 11.3293C56.4026 11.7988 56.3397 12.212 56.214 12.569C56.092 12.926 55.9186 13.2364 55.6938 13.5003C55.4728 13.7641 55.2079 13.9853 54.8993 14.1638C54.5944 14.3384 54.2591 14.48 53.8932 14.5887C53.5274 14.6935 53.1387 14.7691 52.7272 14.8157C52.3156 14.8584 51.8945 14.8797 51.4639 14.8797C51.1934 14.8797 50.9247 14.872 50.658 14.8564C50.3912 14.8409 50.1226 14.8215 49.852 14.7982V16.8819H48.4344V8.33758C48.5183 8.31042 48.6516 8.27744 48.8345 8.23864C49.0213 8.19983 49.2404 8.16297 49.4919 8.12805C49.7472 8.09313 50.0311 8.06402 50.3436 8.04074C50.6561 8.01358 50.9838 8 51.3267 8ZM51.7383 9.28049C51.4868 9.28049 51.2467 9.29213 51.0181 9.31541C50.7894 9.33481 50.5894 9.35809 50.4179 9.38525C50.2121 9.4163 50.0235 9.45122 49.852 9.49002V13.4712C49.9739 13.4983 50.1092 13.5216 50.2578 13.541C50.3836 13.5604 50.5303 13.5779 50.698 13.5934C50.8656 13.605 51.0447 13.6109 51.2353 13.6109C51.483 13.6109 51.744 13.605 52.0184 13.5934C52.2966 13.5779 52.5709 13.5449 52.8415 13.4945C53.1159 13.444 53.375 13.3703 53.6189 13.2733C53.8666 13.1724 54.0838 13.0405 54.2705 12.8775C54.461 12.7106 54.6116 12.505 54.7221 12.2605C54.8364 12.0161 54.8936 11.7212 54.8936 11.3758C54.8936 11.0887 54.8478 10.8365 54.7564 10.6192C54.6649 10.4019 54.5411 10.2156 54.3848 10.0604C54.2286 9.90521 54.0457 9.77716 53.8361 9.67628C53.6303 9.57539 53.4093 9.49584 53.173 9.43764C52.9406 9.37943 52.7005 9.33869 52.4528 9.31541C52.2089 9.29213 51.9708 9.28049 51.7383 9.28049Z" fill="black"/>
<path d="M61.2041 10.1535C61.5242 10.1535 61.8424 10.1691 62.1587 10.2001C62.4788 10.2312 62.7855 10.2816 63.0789 10.3514C63.3724 10.4213 63.6467 10.5086 63.9021 10.6134C64.1574 10.7181 64.3784 10.8442 64.5651 10.9917C64.7557 11.1391 64.9043 11.3099 65.011 11.5039C65.1177 11.694 65.171 11.9074 65.171 12.1441V15.1591C65.171 15.3686 65.1177 15.5607 65.011 15.7353C64.9043 15.9099 64.7557 16.0671 64.5651 16.2068C64.3784 16.3426 64.1574 16.4609 63.9021 16.5618C63.6467 16.6627 63.3724 16.7461 63.0789 16.8121C62.7855 16.878 62.4788 16.9266 62.1587 16.9576C61.8386 16.9925 61.5204 17.01 61.2041 17.01C60.8878 17.01 60.5696 16.9925 60.2495 16.9576C59.9332 16.9266 59.6284 16.878 59.3349 16.8121C59.0415 16.7461 58.7671 16.6627 58.5118 16.5618C58.2603 16.4609 58.0393 16.3426 57.8488 16.2068C57.662 16.0671 57.5153 15.9119 57.4086 15.7411C57.3019 15.5665 57.2486 15.3725 57.2486 15.1591V12.1441C57.2486 11.9074 57.3019 11.694 57.4086 11.5039C57.5153 11.3099 57.662 11.1391 57.8488 10.9917C58.0393 10.8442 58.2603 10.7181 58.5118 10.6134C58.7671 10.5086 59.0415 10.4213 59.3349 10.3514C59.6284 10.2816 59.9332 10.2312 60.2495 10.2001C60.5696 10.1691 60.8878 10.1535 61.2041 10.1535ZM58.7004 14.7866C58.7004 14.9651 58.7729 15.1203 58.9177 15.2522C59.0663 15.3803 59.2587 15.4889 59.495 15.5782C59.7312 15.6635 59.998 15.7276 60.2952 15.7702C60.5963 15.8129 60.8992 15.8343 61.2041 15.8343C61.5242 15.8343 61.8328 15.811 62.1301 15.7644C62.4311 15.7178 62.6979 15.6519 62.9303 15.5665C63.1628 15.4773 63.3476 15.3686 63.4848 15.2406C63.6258 15.1086 63.6963 14.9573 63.6963 14.7866V12.3653C63.6963 12.1984 63.6258 12.0491 63.4848 11.9171C63.3476 11.7813 63.1628 11.6688 62.9303 11.5795C62.6979 11.4864 62.4311 11.4166 62.1301 11.37C61.8328 11.3196 61.5242 11.2943 61.2041 11.2943C60.8992 11.2943 60.5963 11.3176 60.2952 11.3642C59.998 11.4069 59.7312 11.4728 59.495 11.5621C59.2587 11.6513 59.0663 11.7639 58.9177 11.8997C58.7729 12.0316 58.7004 12.1868 58.7004 12.3653V14.7866Z" fill="black"/>
<path d="M70.1897 10.2583C70.6432 10.2583 71.0852 10.2874 71.5158 10.3456C71.9464 10.3999 72.3332 10.495 72.6762 10.6308C73.0192 10.7627 73.3011 10.9432 73.5222 11.1721C73.7432 11.4011 73.8747 11.6863 73.9166 12.0277L72.5905 12.4002C72.5905 12.1984 72.5219 12.0316 72.3847 11.8997C72.2513 11.7639 72.0722 11.6591 71.8474 11.5854C71.6263 11.5078 71.371 11.4534 71.0814 11.4224C70.7918 11.3914 70.4946 11.3758 70.1897 11.3758C69.8963 11.3758 69.6048 11.3914 69.3152 11.4224C69.0294 11.4496 68.7721 11.5019 68.5435 11.5795C68.3187 11.6533 68.1357 11.7561 67.9947 11.888C67.8576 12.02 67.789 12.1907 67.789 12.4002V13.1103H73.9166V15.1242C73.9166 15.3531 73.867 15.5568 73.768 15.7353C73.6689 15.9099 73.5317 16.0632 73.3564 16.1951C73.1811 16.3232 72.9734 16.4338 72.7334 16.5269C72.4971 16.6161 72.2399 16.6879 71.9617 16.7422C71.6873 16.7966 71.3977 16.8354 71.0928 16.8586C70.7918 16.8819 70.4908 16.8936 70.1897 16.8936C69.7286 16.8936 69.2828 16.8664 68.8522 16.8121C68.4215 16.7539 68.0348 16.6588 67.6918 16.5269C67.3488 16.3911 67.0668 16.2106 66.8458 15.9856C66.6286 15.7567 66.501 15.4695 66.4628 15.1242L67.789 14.7517C67.789 14.9651 67.8576 15.1377 67.9947 15.2697C68.1357 15.4016 68.3187 15.5044 68.5435 15.5782C68.7721 15.6519 69.0294 15.7023 69.3152 15.7295C69.6048 15.7528 69.8963 15.7644 70.1897 15.7644C70.4946 15.7644 70.7918 15.7508 71.0814 15.7237C71.371 15.6926 71.6263 15.6402 71.8474 15.5665C72.0722 15.4889 72.2513 15.3861 72.3847 15.258C72.5219 15.1261 72.5905 14.9573 72.5905 14.7517V14.0416H66.4628V12.0277C66.4628 11.7988 66.5124 11.597 66.6115 11.4224C66.7105 11.2439 66.8458 11.0906 67.0173 10.9626C67.1926 10.8307 67.3984 10.7201 67.6346 10.6308C67.8709 10.5377 68.1262 10.464 68.4006 10.4096C68.6788 10.3553 68.9684 10.3165 69.2694 10.2932C69.5743 10.27 69.881 10.2583 70.1897 10.2583Z" fill="black"/>
<path d="M77.4262 10.1768H78.8781V11.1547H77.4262V16.8936H76.0658V11.1547H74.9912V10.1768H76.0658V8.15133H77.4262V10.1768Z" fill="black"/>
<path d="M84.1483 10.2583C84.3427 10.2583 84.577 10.268 84.8514 10.2874C85.1258 10.3068 85.4097 10.3417 85.7031 10.3922C86.0003 10.4387 86.2937 10.5067 86.5833 10.5959C86.873 10.6813 87.1321 10.7919 87.3607 10.9277C87.5932 11.0635 87.7799 11.2284 87.9209 11.4224C88.0657 11.6125 88.1381 11.8376 88.1381 12.0976V14.0649H81.5875V15.5549C82.0486 15.6208 82.4926 15.6674 82.9194 15.6946C83.3462 15.7178 83.7558 15.7295 84.1483 15.7295C84.7466 15.7295 85.2877 15.7062 85.7717 15.6596C86.2594 15.6131 86.6805 15.5607 87.0349 15.5025C87.4427 15.4365 87.8104 15.3609 88.1381 15.2755V16.5676C87.4141 16.684 86.7148 16.7675 86.0403 16.8179C85.3696 16.8683 84.739 16.8936 84.1483 16.8936C83.5538 16.8936 83.0146 16.878 82.5307 16.847C82.0467 16.8121 81.6313 16.7733 81.2846 16.7306C80.8806 16.684 80.5167 16.6297 80.1928 16.5676V12.0976C80.1928 11.8376 80.2557 11.6125 80.3814 11.4224C80.5072 11.2284 80.6749 11.0635 80.8844 10.9277C81.094 10.7919 81.3341 10.6813 81.6047 10.5959C81.879 10.5067 82.1629 10.4387 82.4564 10.3922C82.7498 10.3417 83.0413 10.3068 83.3309 10.2874C83.6243 10.268 83.8968 10.2583 84.1483 10.2583ZM81.5875 13.1336H86.7205V12.4584C86.7205 12.2993 86.6824 12.1635 86.6062 12.051C86.53 11.9346 86.4271 11.8376 86.2975 11.76C86.1718 11.6824 86.0232 11.6203 85.8517 11.5737C85.684 11.5233 85.5087 11.4864 85.3258 11.4631C85.1429 11.436 84.9581 11.4185 84.7714 11.4108C84.5884 11.403 84.4151 11.3991 84.2512 11.3991C84.0797 11.3991 83.8949 11.403 83.6967 11.4108C83.5024 11.4185 83.3061 11.436 83.108 11.4631C82.9098 11.4903 82.7193 11.5291 82.5364 11.5795C82.3535 11.6261 82.1915 11.6901 82.0505 11.7716C81.9095 11.8492 81.7971 11.9462 81.7133 12.0626C81.6294 12.1752 81.5875 12.311 81.5875 12.4701V13.1336Z" fill="black"/>
<path d="M90.0816 12.0859C90.0663 11.9618 90.0301 11.857 89.973 11.7716C89.9196 11.6863 89.8605 11.6164 89.7958 11.5621C89.7234 11.4961 89.6433 11.4418 89.5557 11.3991L90.1959 10.2583C90.3369 10.3088 90.4779 10.3767 90.6189 10.462C90.737 10.5358 90.8609 10.6308 90.9904 10.7472C91.1238 10.8598 91.24 10.9994 91.3391 11.1663C91.5296 11.0421 91.724 10.9257 91.9221 10.8171C92.1241 10.7045 92.3337 10.6075 92.5509 10.5261C92.7719 10.4446 93.0025 10.3805 93.2425 10.334C93.4864 10.2835 93.7475 10.2583 94.0256 10.2583C94.6125 10.2583 95.1155 10.3088 95.5347 10.4096C95.9577 10.5067 96.3025 10.6541 96.5693 10.852C96.8398 11.046 97.038 11.2885 97.1638 11.5795C97.2895 11.8706 97.3524 12.2101 97.3524 12.5981V16.8936H95.8548V12.959C95.8548 12.7417 95.8262 12.5554 95.769 12.4002C95.7119 12.2411 95.6338 12.1073 95.5347 11.9986C95.4394 11.8861 95.327 11.7949 95.1974 11.7251C95.0679 11.6552 94.9326 11.6028 94.7916 11.5679C94.6544 11.5291 94.5134 11.5039 94.3686 11.4922C94.2238 11.4767 94.0866 11.469 93.9571 11.469C93.7132 11.469 93.4807 11.4864 93.2597 11.5213C93.0387 11.5563 92.8291 11.6048 92.6309 11.6669C92.4328 11.7251 92.246 11.7949 92.0708 11.8764C91.8955 11.9579 91.7316 12.0432 91.5792 12.1325V16.8936H90.0816V12.0859Z" fill="black"/>
<path d="M105.584 14.5188C105.488 14.4335 105.37 14.3501 105.229 14.2686C105.088 14.1871 104.915 14.1153 104.709 14.0532C104.503 13.9873 104.257 13.9349 103.972 13.8961C103.69 13.8534 103.358 13.832 102.977 13.832C102.638 13.832 102.316 13.8398 102.011 13.8553C101.71 13.867 101.445 13.9058 101.216 13.9717C100.988 14.0338 100.807 14.1347 100.673 14.2744C100.54 14.4141 100.473 14.6081 100.473 14.8564V15.6014C100.809 15.6558 101.178 15.7004 101.582 15.7353C101.986 15.7702 102.436 15.7877 102.931 15.7877C103.328 15.7877 103.749 15.7741 104.194 15.747C104.644 15.7159 105.107 15.6558 105.584 15.5665V14.5188ZM103.011 10.2583C103.202 10.2583 103.432 10.268 103.703 10.2874C103.973 10.3068 104.255 10.3417 104.549 10.3922C104.842 10.4387 105.132 10.5047 105.418 10.5901C105.707 10.6716 105.966 10.7802 106.195 10.916C106.428 11.0479 106.614 11.207 106.755 11.3933C106.896 11.5795 106.967 11.7988 106.967 12.051V16.556C106.647 16.622 106.285 16.6782 105.881 16.7248C105.534 16.7675 105.121 16.8063 104.64 16.8412C104.16 16.8761 103.625 16.8936 103.034 16.8936C102.447 16.8936 101.822 16.8683 101.159 16.8179C100.5 16.7675 99.8103 16.6802 99.0901 16.556V14.4606C99.0901 14.2356 99.1415 14.0396 99.2444 13.8728C99.3511 13.7021 99.4959 13.5565 99.6788 13.4363C99.8617 13.316 100.077 13.217 100.325 13.1394C100.572 13.0618 100.839 12.9997 101.125 12.9532C101.411 12.9066 101.708 12.8756 102.017 12.86C102.325 12.8406 102.634 12.8309 102.943 12.8309C103.411 12.8309 103.81 12.862 104.137 12.9241C104.469 12.9823 104.743 13.0463 104.96 13.1161C105.212 13.2015 105.42 13.2966 105.584 13.4013V12.4584C105.584 12.2993 105.545 12.1635 105.469 12.051C105.393 11.9346 105.29 11.8376 105.161 11.76C105.031 11.6785 104.882 11.6145 104.715 11.5679C104.547 11.5175 104.372 11.4787 104.189 11.4515C104.006 11.4243 103.819 11.4069 103.629 11.3991C103.442 11.3914 103.267 11.3875 103.103 11.3875C102.931 11.3875 102.748 11.3933 102.554 11.4049C102.36 11.4127 102.165 11.4302 101.971 11.4573C101.78 11.4845 101.596 11.5233 101.417 11.5737C101.241 11.6203 101.085 11.6843 100.948 11.7658C100.811 11.8473 100.7 11.9462 100.616 12.0626C100.536 12.1752 100.496 12.311 100.496 12.4701L99.0786 12.0976C99.0786 11.8376 99.1415 11.6125 99.2673 11.4224C99.393 11.2284 99.5588 11.0635 99.7646 10.9277C99.9742 10.7919 100.214 10.6813 100.485 10.5959C100.755 10.5067 101.035 10.4387 101.325 10.3922C101.618 10.3417 101.91 10.3068 102.2 10.2874C102.489 10.268 102.76 10.2583 103.011 10.2583Z" fill="black"/>
<path d="M52.2299 19.7921C52.8053 19.7921 53.3502 19.8445 53.8647 19.9493C54.3791 20.0502 54.8269 20.1937 55.2079 20.38C55.5928 20.5662 55.8977 20.7894 56.1225 21.0493C56.3473 21.3054 56.4598 21.5887 56.4598 21.8991V22.9235H54.9507V22.3531C54.9507 22.1863 54.8878 22.0272 54.7621 21.8758C54.6363 21.7206 54.4553 21.5868 54.2191 21.4742C53.9866 21.3578 53.7027 21.2666 53.3674 21.2007C53.032 21.1308 52.6529 21.0959 52.2299 21.0959C51.8221 21.0959 51.4506 21.1289 51.1152 21.1948C50.7799 21.2569 50.4922 21.3442 50.2521 21.4568C50.0121 21.5693 49.8253 21.7032 49.692 21.8584C49.5624 22.0097 49.4976 22.1746 49.4976 22.3531V26.4623C49.4976 26.633 49.5624 26.7941 49.692 26.9454C49.8253 27.0967 50.0121 27.2287 50.2521 27.3412C50.4922 27.4498 50.7799 27.5371 51.1152 27.6031C51.4506 27.6652 51.8221 27.6962 52.2299 27.6962C52.6529 27.6962 53.032 27.6632 53.3674 27.5973C53.7027 27.5274 53.9866 27.4363 54.2191 27.3237C54.4553 27.2112 54.6363 27.0812 54.7621 26.9338C54.8878 26.7824 54.9507 26.6253 54.9507 26.4623V25.8803H56.4598V26.9047C56.4598 27.1103 56.4083 27.3063 56.3054 27.4925C56.2025 27.6749 56.0577 27.8437 55.871 27.9989C55.6881 28.1541 55.4671 28.2938 55.2079 28.418C54.9526 28.5382 54.6668 28.643 54.3505 28.7323C54.0381 28.8176 53.7027 28.8836 53.3445 28.9302C52.9863 28.9767 52.6148 29 52.2299 29C51.845 29 51.4735 28.9767 51.1152 28.9302C50.757 28.8836 50.4198 28.8176 50.1035 28.7323C49.791 28.643 49.5052 28.5382 49.2461 28.418C48.9908 28.2938 48.7698 28.1541 48.583 27.9989C48.4001 27.8437 48.2572 27.6749 48.1543 27.4925C48.0514 27.3063 48 27.1103 48 26.9047V21.8991C48 21.6935 48.0514 21.4975 48.1543 21.3113C48.2572 21.125 48.4001 20.9543 48.583 20.7991C48.7698 20.6438 48.9908 20.5042 49.2461 20.38C49.5052 20.2558 49.791 20.1511 50.1035 20.0657C50.4198 19.9764 50.757 19.9085 51.1152 19.862C51.4735 19.8154 51.845 19.7921 52.2299 19.7921Z" fill="black"/>
<path d="M63.0561 22.1785C63.0561 22.582 63.0427 23.003 63.0161 23.4415C62.9894 23.8761 62.9379 24.3243 62.8617 24.786H61.4784C61.5127 24.6541 61.5451 24.5105 61.5756 24.3553C61.5985 24.2234 61.6194 24.0701 61.6385 23.8955C61.6614 23.717 61.6728 23.5288 61.6728 23.3309C61.3375 23.3387 61.0593 23.3717 60.8383 23.4299C60.621 23.4842 60.44 23.5502 60.2952 23.6278C60.1504 23.7015 60.0323 23.7772 59.9408 23.8548C59.8494 23.9324 59.7674 23.9945 59.695 24.041V28.8137H58.2317V24.0061C58.2165 23.8819 58.1803 23.7772 58.1231 23.6918C58.0698 23.6064 58.0126 23.5366 57.9516 23.4823C57.8831 23.4163 57.8049 23.362 57.7173 23.3193L58.3232 22.1785C58.4642 22.2289 58.6033 22.2968 58.7405 22.3822C58.8586 22.4559 58.9824 22.551 59.112 22.6674C59.2454 22.7799 59.3635 22.9196 59.4664 23.0865C59.6607 22.9507 59.8398 22.8362 60.0037 22.7431C60.1676 22.6461 60.3257 22.5646 60.4781 22.4986C60.6344 22.4326 60.7944 22.3822 60.9583 22.3473C61.126 22.3085 61.3089 22.2774 61.507 22.2542C61.709 22.2309 61.9338 22.2154 62.1815 22.2076C62.433 22.196 62.7245 22.1863 63.0561 22.1785Z" fill="black"/>
<path d="M64.7366 24.0061C64.7214 23.8819 64.6852 23.7772 64.628 23.6918C64.5746 23.6064 64.5156 23.5366 64.4508 23.4823C64.3784 23.4163 64.2984 23.362 64.2107 23.3193L64.8509 22.1785C64.9919 22.2289 65.1329 22.2968 65.2739 22.3822C65.392 22.4559 65.5159 22.551 65.6455 22.6674C65.7788 22.7799 65.8951 22.9196 65.9941 23.0865C66.1847 22.9623 66.379 22.8459 66.5772 22.7373C66.7791 22.6247 66.9887 22.5277 67.2059 22.4462C67.427 22.3647 67.6575 22.3007 67.8976 22.2542C68.1415 22.2037 68.4025 22.1785 68.6807 22.1785C69.2675 22.1785 69.7705 22.2289 70.1897 22.3298C70.6127 22.4268 70.9576 22.5743 71.2243 22.7722C71.4949 22.9662 71.693 23.2087 71.8188 23.4997C71.9445 23.7907 72.0074 24.1303 72.0074 24.5183V28.8137H70.5098V24.8792C70.5098 24.6619 70.4812 24.4756 70.4241 24.3204C70.3669 24.1613 70.2888 24.0274 70.1897 23.9188C70.0944 23.8063 69.982 23.7151 69.8525 23.6452C69.7229 23.5754 69.5876 23.523 69.4466 23.4881C69.3094 23.4493 69.1684 23.4241 69.0236 23.4124C68.8788 23.3969 68.7416 23.3891 68.6121 23.3891C68.3682 23.3891 68.1357 23.4066 67.9147 23.4415C67.6937 23.4764 67.4841 23.5249 67.286 23.587C67.0878 23.6452 66.9011 23.7151 66.7258 23.7966C66.5505 23.878 66.3866 23.9634 66.2342 24.0527V28.8137H64.7366V24.0061Z" fill="black"/>
<path d="M80.2385 26.439C80.1433 26.3537 80.0251 26.2702 79.8841 26.1887C79.7431 26.1073 79.5698 26.0355 79.364 25.9734C79.1582 25.9074 78.9124 25.855 78.6266 25.8162C78.3446 25.7736 78.0131 25.7522 77.632 25.7522C77.2929 25.7522 76.9709 25.76 76.666 25.7755C76.365 25.7871 76.1001 25.8259 75.8715 25.8919C75.6428 25.954 75.4618 26.0549 75.3284 26.1946C75.1951 26.3343 75.1284 26.5283 75.1284 26.7766V27.5216C75.4637 27.5759 75.8334 27.6206 76.2373 27.6555C76.6412 27.6904 77.0909 27.7079 77.5863 27.7079C77.9826 27.7079 78.4037 27.6943 78.8495 27.6671C79.2992 27.6361 79.7622 27.5759 80.2385 27.4867V26.439ZM77.6663 22.1785C77.8568 22.1785 78.0874 22.1882 78.3579 22.2076C78.6285 22.227 78.9105 22.2619 79.2039 22.3124C79.4973 22.3589 79.787 22.4249 80.0728 22.5103C80.3624 22.5917 80.6215 22.7004 80.8501 22.8362C81.0826 22.9681 81.2693 23.1272 81.4103 23.3135C81.5513 23.4997 81.6218 23.719 81.6218 23.9712V28.4762C81.3017 28.5421 80.9397 28.5984 80.5358 28.645C80.189 28.6876 79.7755 28.7264 79.2954 28.7614C78.8152 28.7963 78.2798 28.8137 77.6892 28.8137C77.1023 28.8137 76.4774 28.7885 75.8143 28.7381C75.1551 28.6876 74.4653 28.6003 73.7451 28.4762V26.3808C73.7451 26.1558 73.7965 25.9598 73.8994 25.793C74.0061 25.6222 74.1509 25.4767 74.3338 25.3564C74.5168 25.2361 74.7321 25.1372 74.9798 25.0596C75.2275 24.982 75.4942 24.9199 75.78 24.8733C76.0658 24.8268 76.363 24.7957 76.6717 24.7802C76.9804 24.7608 77.289 24.7511 77.5977 24.7511C78.0664 24.7511 78.4646 24.7822 78.7924 24.8442C79.1239 24.9024 79.3983 24.9665 79.6155 25.0363C79.867 25.1217 80.0747 25.2167 80.2385 25.3215V24.3786C80.2385 24.2195 80.2004 24.0837 80.1242 23.9712C80.048 23.8548 79.9451 23.7578 79.8155 23.6802C79.686 23.5987 79.5374 23.5346 79.3697 23.4881C79.202 23.4376 79.0267 23.3988 78.8438 23.3717C78.6609 23.3445 78.4742 23.3271 78.2836 23.3193C78.0969 23.3115 77.9216 23.3076 77.7578 23.3076C77.5863 23.3076 77.4034 23.3135 77.209 23.3251C77.0147 23.3329 76.8203 23.3503 76.626 23.3775C76.4355 23.4047 76.2506 23.4435 76.0715 23.4939C75.8962 23.5405 75.74 23.6045 75.6028 23.686C75.4656 23.7675 75.3551 23.8664 75.2713 23.9828C75.1913 24.0953 75.1512 24.2312 75.1512 24.3902L73.7337 24.0177C73.7337 23.7578 73.7965 23.5327 73.9223 23.3426C74.048 23.1486 74.2138 22.9836 74.4196 22.8478C74.6292 22.712 74.8693 22.6014 75.1398 22.5161C75.4104 22.4268 75.6905 22.3589 75.9801 22.3124C76.2735 22.2619 76.565 22.227 76.8546 22.2076C77.1442 22.1882 77.4148 22.1785 77.6663 22.1785Z" fill="black"/>
<path d="M92.5623 19.9435C93.1378 19.9435 93.6808 19.9958 94.1914 20.1006C94.702 20.2054 95.1479 20.3509 95.529 20.5371C95.9138 20.7234 96.2187 20.9465 96.4435 21.2065C96.6684 21.4665 96.7808 21.7517 96.7808 22.0621V23.005H95.2946V22.5044C95.2946 22.3376 95.2317 22.1785 95.106 22.0272C94.9802 21.8758 94.7992 21.742 94.563 21.6256C94.3305 21.5091 94.0447 21.418 93.7055 21.352C93.3702 21.2822 92.9891 21.2472 92.5623 21.2472C92.1508 21.2472 91.7773 21.2802 91.442 21.3462C91.1066 21.4121 90.8189 21.5014 90.5789 21.6139C90.3388 21.7264 90.154 21.8603 90.0244 22.0155C89.8948 22.1669 89.8301 22.3298 89.8301 22.5044V26.2761C89.8301 26.4468 89.8948 26.6098 90.0244 26.765C90.154 26.9163 90.3388 27.0502 90.5789 27.1666C90.8189 27.2791 91.1066 27.3683 91.442 27.4343C91.7773 27.5003 92.1508 27.5333 92.5623 27.5333C92.9891 27.5333 93.3702 27.5003 93.7055 27.4343C94.0447 27.3645 94.3305 27.2713 94.563 27.1549C94.7992 27.0385 94.9802 26.9047 95.106 26.7533C95.2317 26.602 95.2946 26.4429 95.2946 26.2761V25.4379C94.9402 25.4379 94.622 25.4476 94.34 25.467C94.0618 25.4864 93.8237 25.5058 93.6255 25.5252C93.3931 25.5524 93.1873 25.5815 93.0082 25.6125L93.1568 24.204C93.7398 24.1574 94.2886 24.1341 94.803 24.1341C95.4928 24.1341 96.152 24.1691 96.7808 24.2389V26.7184C96.7808 27.0288 96.6684 27.314 96.4435 27.574C96.2187 27.8301 95.9138 28.0513 95.529 28.2375C95.1479 28.4238 94.702 28.5693 94.1914 28.6741C93.6808 28.7749 93.1378 28.8254 92.5623 28.8254C91.9869 28.8254 91.4439 28.7749 90.9333 28.6741C90.4226 28.5693 89.9749 28.4238 89.59 28.2375C89.2089 28.0513 88.906 27.8301 88.6811 27.574C88.4563 27.314 88.3439 27.0288 88.3439 26.7184V22.0621C88.3439 21.7517 88.4563 21.4665 88.6811 21.2065C88.906 20.9465 89.2089 20.7234 89.59 20.5371C89.9749 20.3509 90.4226 20.2054 90.9333 20.1006C91.4439 19.9958 91.9869 19.9435 92.5623 19.9435Z" fill="black"/>
<path d="M102.257 22.0737C102.577 22.0737 102.895 22.0892 103.211 22.1203C103.531 22.1513 103.838 22.2018 104.132 22.2716C104.425 22.3415 104.699 22.4288 104.955 22.5335C105.21 22.6383 105.431 22.7644 105.618 22.9119C105.808 23.0593 105.957 23.23 106.064 23.4241C106.17 23.6142 106.224 23.8276 106.224 24.0643V27.0793C106.224 27.2888 106.17 27.4809 106.064 27.6555C105.957 27.8301 105.808 27.9873 105.618 28.1269C105.431 28.2627 105.21 28.3811 104.955 28.482C104.699 28.5829 104.425 28.6663 104.132 28.7323C103.838 28.7982 103.531 28.8467 103.211 28.8778C102.891 28.9127 102.573 28.9302 102.257 28.9302C101.94 28.9302 101.622 28.9127 101.302 28.8778C100.986 28.8467 100.681 28.7982 100.388 28.7323C100.094 28.6663 99.8198 28.5829 99.5645 28.482C99.313 28.3811 99.092 28.2627 98.9014 28.1269C98.7147 27.9873 98.568 27.832 98.4613 27.6613C98.3546 27.4867 98.3013 27.2927 98.3013 27.0793V24.0643C98.3013 23.8276 98.3546 23.6142 98.4613 23.4241C98.568 23.23 98.7147 23.0593 98.9014 22.9119C99.092 22.7644 99.313 22.6383 99.5645 22.5335C99.8198 22.4288 100.094 22.3415 100.388 22.2716C100.681 22.2018 100.986 22.1513 101.302 22.1203C101.622 22.0892 101.94 22.0737 102.257 22.0737ZM99.7531 26.7068C99.7531 26.8853 99.8255 27.0405 99.9703 27.1724C100.119 27.3004 100.311 27.4091 100.548 27.4983C100.784 27.5837 101.051 27.6477 101.348 27.6904C101.649 27.7331 101.952 27.7544 102.257 27.7544C102.577 27.7544 102.886 27.7312 103.183 27.6846C103.484 27.638 103.751 27.5721 103.983 27.4867C104.215 27.3974 104.4 27.2888 104.537 27.1608C104.678 27.0288 104.749 26.8775 104.749 26.7068V24.2855C104.749 24.1186 104.678 23.9692 104.537 23.8373C104.4 23.7015 104.215 23.589 103.983 23.4997C103.751 23.4066 103.484 23.3368 103.183 23.2902C102.886 23.2397 102.577 23.2145 102.257 23.2145C101.952 23.2145 101.649 23.2378 101.348 23.2844C101.051 23.3271 100.784 23.393 100.548 23.4823C100.311 23.5715 100.119 23.684 99.9703 23.8198C99.8255 23.9518 99.7531 24.107 99.7531 24.2855V26.7068Z" fill="black"/>
<path d="M112.694 22.1785C112.694 22.582 112.681 23.003 112.654 23.4415C112.628 23.8761 112.576 24.3243 112.5 24.786H111.117C111.151 24.6541 111.183 24.5105 111.214 24.3553C111.237 24.2234 111.258 24.0701 111.277 23.8955C111.3 23.717 111.311 23.5288 111.311 23.3309C110.976 23.3387 110.697 23.3717 110.476 23.4299C110.259 23.4842 110.078 23.5502 109.933 23.6278C109.789 23.7015 109.67 23.7772 109.579 23.8548C109.488 23.9324 109.406 23.9945 109.333 24.041V28.8137H107.87V24.0061C107.855 23.8819 107.818 23.7772 107.761 23.6918C107.708 23.6064 107.651 23.5366 107.59 23.4823C107.521 23.4163 107.443 23.362 107.355 23.3193L107.961 22.1785C108.102 22.2289 108.241 22.2968 108.379 22.3822C108.497 22.4559 108.621 22.551 108.75 22.6674C108.884 22.7799 109.002 22.9196 109.105 23.0865C109.299 22.9507 109.478 22.8362 109.642 22.7431C109.806 22.6461 109.964 22.5646 110.116 22.4986C110.273 22.4326 110.433 22.3822 110.596 22.3473C110.764 22.3085 110.947 22.2774 111.145 22.2542C111.347 22.2309 111.572 22.2154 111.82 22.2076C112.071 22.196 112.363 22.1863 112.694 22.1785Z" fill="black"/>
<path d="M120.617 26.439C120.521 26.3537 120.403 26.2702 120.262 26.1887C120.121 26.1073 119.948 26.0355 119.742 25.9734C119.536 25.9074 119.291 25.855 119.005 25.8162C118.723 25.7736 118.391 25.7522 118.01 25.7522C117.671 25.7522 117.349 25.76 117.044 25.7755C116.743 25.7871 116.478 25.8259 116.25 25.8919C116.021 25.954 115.84 26.0549 115.707 26.1946C115.573 26.3343 115.507 26.5283 115.507 26.7766V27.5216C115.842 27.5759 116.212 27.6206 116.615 27.6555C117.019 27.6904 117.469 27.7079 117.964 27.7079C118.361 27.7079 118.782 27.6943 119.228 27.6671C119.677 27.6361 120.14 27.5759 120.617 27.4867V26.439ZM118.044 22.1785C118.235 22.1785 118.466 22.1882 118.736 22.2076C119.007 22.227 119.289 22.2619 119.582 22.3124C119.876 22.3589 120.165 22.4249 120.451 22.5103C120.741 22.5917 121 22.7004 121.228 22.8362C121.461 22.9681 121.648 23.1272 121.789 23.3135C121.93 23.4997 122 23.719 122 23.9712V28.4762C121.68 28.5421 121.318 28.5984 120.914 28.645C120.567 28.6876 120.154 28.7264 119.674 28.7614C119.193 28.7963 118.658 28.8137 118.067 28.8137C117.481 28.8137 116.856 28.7885 116.192 28.7381C115.533 28.6876 114.844 28.6003 114.123 28.4762V26.3808C114.123 26.1558 114.175 25.9598 114.278 25.793C114.384 25.6222 114.529 25.4767 114.712 25.3564C114.895 25.2361 115.11 25.1372 115.358 25.0596C115.606 24.982 115.872 24.9199 116.158 24.8733C116.444 24.8268 116.741 24.7957 117.05 24.7802C117.359 24.7608 117.667 24.7511 117.976 24.7511C118.445 24.7511 118.843 24.7822 119.171 24.8442C119.502 24.9024 119.776 24.9665 119.994 25.0363C120.245 25.1217 120.453 25.2167 120.617 25.3215V24.3786C120.617 24.2195 120.579 24.0837 120.502 23.9712C120.426 23.8548 120.323 23.7578 120.194 23.6802C120.064 23.5987 119.916 23.5346 119.748 23.4881C119.58 23.4376 119.405 23.3988 119.222 23.3717C119.039 23.3445 118.852 23.3271 118.662 23.3193C118.475 23.3115 118.3 23.3076 118.136 23.3076C117.964 23.3076 117.782 23.3135 117.587 23.3251C117.393 23.3329 117.199 23.3503 117.004 23.3775C116.814 23.4047 116.629 23.4435 116.45 23.4939C116.274 23.5405 116.118 23.6045 115.981 23.686C115.844 23.7675 115.733 23.8664 115.649 23.9828C115.569 24.0953 115.529 24.2312 115.529 24.3902L114.112 24.0177C114.112 23.7578 114.175 23.5327 114.3 23.3426C114.426 23.1486 114.592 22.9836 114.798 22.8478C115.007 22.712 115.247 22.6014 115.518 22.5161C115.789 22.4268 116.069 22.3589 116.358 22.3124C116.652 22.2619 116.943 22.227 117.233 22.2076C117.522 22.1882 117.793 22.1785 118.044 22.1785Z" fill="black"/>
</svg>
