<svg width="14" height="20" viewBox="0 0 14 20" fill="none" xmlns="http://www.w3.org/2000/svg">
<path d="M7 0C5.14348 0 3.36301 0.772508 2.05025 2.14758C0.737498 3.52265 0 5.38765 0 7.3323C0 11.2051 6.23636 19.3973 6.50364 19.7506C6.56326 19.8284 6.63882 19.8912 6.72473 19.9344C6.81064 19.9776 6.90471 20 7 20C7.09529 20 7.18936 19.9776 7.27527 19.9344C7.36118 19.8912 7.43674 19.8284 7.49636 19.7506C7.76364 19.3973 14 11.2051 14 7.3323C14 5.38765 13.2625 3.52265 11.9497 2.14758C10.637 0.772508 8.85651 0 7 0ZM7 9.33202C6.49656 9.33202 6.00442 9.17564 5.58582 8.88267C5.16722 8.58969 4.84097 8.17328 4.64831 7.68607C4.45565 7.19887 4.40524 6.66277 4.50346 6.14556C4.60167 5.62835 4.8441 5.15326 5.20009 4.78038C5.55608 4.40749 6.00964 4.15355 6.50341 4.05067C6.99718 3.94779 7.50898 4.00059 7.9741 4.2024C8.43922 4.4042 8.83677 4.74595 9.11647 5.18442C9.39617 5.62289 9.54545 6.13839 9.54545 6.66573C9.54545 7.37287 9.27727 8.05105 8.79991 8.55108C8.32254 9.05111 7.6751 9.33202 7 9.33202Z" fill="#A8A8A8"/>
</svg>
