<svg width="323" height="372" viewBox="0 0 323 372" fill="none" xmlns="http://www.w3.org/2000/svg">
<path fill-rule="evenodd" clip-rule="evenodd" d="M120.237 27.7889C144.733 18.4763 165.255 7.10271 175.989 0L211.018 49.6905C196.481 59.3092 171.826 72.8171 142.924 83.8044C142.152 84.0978 141.376 84.39 140.595 84.6809C213.095 112.657 267.277 116.524 290.6 113.856L310.628 169.292C293.815 179.41 270.784 186.945 247.14 192.847C222.834 198.913 195.16 203.894 167.361 207.938C164.863 208.302 162.361 208.658 159.856 209.007C203.242 217.95 252.791 223.262 303.337 219.58L323 274.545C200.181 354.595 53.502 372 0.853893 372V318.307L0 288.231C27.4952 287.499 82.1649 282.071 146.548 267.786C80.9882 254.232 28.0006 233.125 0.684122 218.892L13.8285 162.346C46.0093 160.773 95.7041 156.898 144.703 150.311C109.551 138.613 70.7324 122.018 29.5275 99.094L45.8763 42.9285C69.1138 43.5699 95.5027 37.1918 120.237 27.7889Z" fill="#7238ED"/>
</svg>
