<svg width="33" height="38" viewBox="0 0 33 38" fill="none" xmlns="http://www.w3.org/2000/svg">
<path d="M32.2849 37.296L30.3102 27.8015C30.2669 25.1614 28.116 23.043 25.4756 23.0397H25.3795V21.5427C25.379 21.2645 25.1743 21.029 24.8989 20.99V1.52245C24.8997 1.11871 24.739 0.731321 24.4525 0.446768C23.859 -0.148008 22.8957 -0.149059 22.301 0.444441C22.0147 0.73012 21.8539 1.11803 21.8542 1.52245V20.9899C21.5787 21.0289 21.3739 21.2645 21.3736 21.5426V23.0396H21.2743C20.1978 23.0396 19.1523 23.4006 18.3052 24.065L18.4866 21.3888C19.2848 21.1336 19.7251 20.2795 19.4699 19.4813C19.2682 18.8508 18.6813 18.4237 18.0194 18.4259H1.51742C0.679294 18.426 -7.50539e-05 19.1054 6.21917e-09 19.9436C7.50664e-05 20.6036 0.426717 21.1878 1.05535 21.3888L2.01664 35.6529C2.10604 36.9553 3.18675 37.9672 4.49228 37.9708H31.7381C32.0476 37.971 32.2986 37.7202 32.2988 37.4106C32.2988 37.3721 32.2949 37.3337 32.287 37.296H32.2849V37.296ZM23.3762 1.12193C23.4822 1.12246 23.5837 1.16472 23.6588 1.23955C23.7343 1.31431 23.7768 1.41624 23.7767 1.52245V20.9819H22.9757V1.52245C22.9758 1.30133 23.1551 1.12208 23.3762 1.12193ZM22.495 22.1034H24.2573V23.0397H22.495V22.1034ZM21.2742 24.1612H25.4756C27.3107 24.1637 28.8702 25.503 29.1496 27.3167H17.6002C17.8796 25.503 19.4392 24.1636 21.2742 24.1612ZM21.4344 28.4382L21.0637 36.8493H19.0027L20.0517 28.4382H21.4344ZM22.5559 28.4382H24.19L24.5601 36.8493H22.1867L22.5559 28.4382ZM25.3116 28.4382H26.6945L27.7433 36.8493H25.6845L25.3116 28.4382ZM1.51839 19.5464H18.0203C18.2415 19.5464 18.4208 19.7257 18.4208 19.9469C18.4208 20.1681 18.2415 20.3475 18.0203 20.3475H1.51839C1.29719 20.3475 1.11787 20.1681 1.11787 19.9469C1.11787 19.7257 1.29719 19.5464 1.51839 19.5464ZM17.2192 21.4689C16.5105 24.2852 13.9824 26.2626 11.0783 26.2721H8.40591C5.49808 26.2757 2.96405 24.2924 2.26877 21.4689H17.2192ZM3.13361 35.5779L2.3758 24.3201C2.60624 24.6376 2.86114 24.9366 3.13811 25.2144C4.53296 26.6138 6.42883 27.3982 8.40464 27.3934H11.077C13.5037 27.3853 15.7755 26.1998 17.1699 24.2138L17.085 25.4663C16.6748 26.1756 16.453 26.9781 16.4406 27.7974L14.5571 36.8494H4.49032C3.77455 36.8472 3.18225 36.292 3.13361 35.5779ZM17.4525 28.4382H18.9216L17.8729 36.8493H15.7027L17.4525 28.4382ZM28.8763 36.8493L27.8273 28.4382H29.2967L31.0469 36.8493H28.8763Z" fill="#FFD81B"/>
</svg>
