<svg width="36" height="36" viewBox="0 0 36 36" fill="none" xmlns="http://www.w3.org/2000/svg">
<path d="M31.9244 20.7535C31.8103 20.8109 31.7169 20.9037 31.6601 21.0178L28.5103 27.3168C28.4146 27.5083 28.1893 27.6023 27.9854 27.5338C27.7648 27.4605 27.6419 27.2275 27.7057 27.0041L28.6185 23.8093C28.6859 23.5734 28.6008 23.3204 28.4039 23.1732C28.207 23.0266 27.9398 23.016 27.7329 23.1484L22.5027 26.4767C22.3159 26.5956 22.096 26.6281 21.8838 26.569C21.6715 26.5098 21.5001 26.3691 21.4014 26.1717C21.2346 25.8389 21.3298 25.4357 21.6278 25.2122L25.4492 22.3467C25.6726 22.1794 25.7483 21.8779 25.6307 21.6243C25.513 21.3707 25.2334 21.2347 24.962 21.2974L18.7765 22.7245C18.5371 22.7807 18.29 22.7369 18.0837 22.6039C17.8761 22.4697 17.736 22.2634 17.6876 22.0216C17.5912 21.5398 17.9039 21.0639 18.3846 20.9604L25.2192 19.4955C25.4953 19.4364 25.691 19.1904 25.6868 18.9084C25.6821 18.6258 25.4787 18.3864 25.2015 18.3362L20.2793 17.4411C20.0162 17.3932 19.7892 17.2448 19.6391 17.0237C19.4889 16.8032 19.4351 16.5372 19.4877 16.2753C19.5864 15.7829 20.0369 15.44 20.5376 15.4849L26.229 15.959C26.4542 15.9839 26.6783 15.8627 26.7923 15.6623C26.9059 15.4618 26.8928 15.2135 26.7592 15.0267L24.4956 11.8586C24.2627 11.5328 24.2993 11.0906 24.5825 10.8075C24.8846 10.5054 25.3741 10.4882 25.6963 10.7702L29.4349 14.0418C29.6022 14.1873 29.8363 14.2275 30.0438 14.1459L35.9557 11.7811L35.5164 10.6833L29.941 12.9133L29.0915 12.1701L26.9614 0.66752L26.9561 0.668702C26.9425 0.593622 26.9195 0.519725 26.8763 0.452921C26.7462 0.25251 26.5098 0.150827 26.2727 0.193983L6.50832 3.85281C6.35402 3.88177 6.21746 3.96986 6.12878 4.09933L2.33931 9.61032C2.25063 9.73979 2.21634 9.89823 2.24531 10.0525L3.93018 19.1561L0.484178 17.7781L0.0449298 18.8759L5.95675 21.2406C6.16484 21.3234 6.39895 21.2826 6.56566 21.1366L10.3043 17.865C10.6259 17.583 11.116 17.5996 11.4181 17.9022C11.7013 18.1854 11.7385 18.6282 11.505 18.9534L9.24194 22.1215C9.10833 22.3083 9.09533 22.5566 9.20884 22.757C9.32234 22.9574 9.54344 23.0774 9.77223 23.0538L15.4635 22.5797C15.9666 22.5401 16.4153 22.8782 16.5135 23.3701C16.5655 23.6314 16.5123 23.898 16.3621 24.1185C16.212 24.3396 15.985 24.488 15.7219 24.5359L10.7997 25.4309C10.5218 25.4812 10.3191 25.7206 10.3143 26.0032C10.3102 26.2858 10.5059 26.5317 10.782 26.5902L17.6166 28.0552C18.0972 28.1586 18.41 28.634 18.3136 29.1164C18.2651 29.3582 18.1244 29.5651 17.9175 29.6987C17.7106 29.8317 17.4647 29.8754 17.2241 29.8193L11.0391 28.3922C10.7684 28.3301 10.4882 28.4655 10.3705 28.7191C10.2529 28.9727 10.3279 29.2736 10.5514 29.4409L14.3728 32.307C14.6702 32.5304 14.7659 32.9342 14.5992 33.2665C14.5005 33.4639 14.3291 33.6046 14.1168 33.6637C13.9034 33.7223 13.6841 33.6903 13.4984 33.5715L8.26767 30.2432C8.0448 30.1019 7.75216 30.1249 7.55412 30.3035C7.35725 30.4814 7.30287 30.7687 7.4211 31.0064L8.60347 33.3711C8.78378 33.7311 8.63716 34.1716 8.27654 34.3513C8.10273 34.4382 7.90469 34.4524 7.71906 34.3909C7.53402 34.3294 7.38386 34.1993 7.29636 34.0244L4.34046 28.1125C4.28311 27.9984 4.19029 27.905 4.0762 27.8483L0.529108 26.0747L0 27.1324L3.37092 28.8178L6.23874 34.5535C6.46753 35.0104 6.86007 35.3516 7.34484 35.5129C7.54348 35.5792 7.74803 35.6123 7.95139 35.6123C8.24462 35.6123 8.53548 35.5437 8.80565 35.4089C9.74858 34.9365 10.1329 33.7855 9.66109 32.842L9.43289 32.3862L12.8629 34.5682C13.3288 34.8644 13.9005 34.9501 14.4319 34.8023C14.9634 34.6551 15.4097 34.2874 15.6563 33.7944C16.0784 32.9496 15.8366 31.9262 15.0816 31.3605L13.4973 30.1722L16.958 30.9709C17.5114 31.0986 18.0801 30.9993 18.5584 30.6913C19.0366 30.3827 19.3612 29.9056 19.4729 29.3475C19.681 28.3059 19.0573 27.2861 18.0671 26.9639L20.2858 26.553C20.3053 26.6021 20.3201 26.6523 20.3437 26.7008C20.5903 27.1938 21.0366 27.5616 21.5681 27.7088C22.099 27.8554 22.6712 27.7702 23.1371 27.4746L27.0537 24.9822L26.5689 26.6801C26.3306 27.5143 26.7888 28.3827 27.6111 28.6564C27.7778 28.7126 27.9487 28.7392 28.1172 28.7392C28.7155 28.7392 29.2889 28.4046 29.5679 27.8465L32.6291 21.7236L36 20.0382L35.4709 18.9806L31.9244 20.7535ZM22.242 5.74932L16.329 6.84419L19.1708 2.71123L25.0838 1.61637L22.242 5.74932ZM11.6788 7.70495L14.5206 3.572L17.5268 3.0151L14.685 7.14805L11.6788 7.70495ZM14.5602 8.37357L15.7438 14.7678L12.2564 15.414L11.0722 9.01914L14.5602 8.37357ZM6.96412 4.97073L12.8765 3.87586L10.0347 8.00881L4.12231 9.10368L6.96412 4.97073ZM9.5263 16.9747L6.0602 20.008L5.229 19.6758L3.51517 10.4185L9.90938 9.23492L11.2011 16.2103C11.2313 16.3734 11.3294 16.5023 11.4565 16.588C10.8074 16.3788 10.0708 16.4988 9.5263 16.9747ZM15.366 21.402L10.9469 21.7697L12.468 19.6397C13.0379 18.8422 12.9486 17.7592 12.2552 17.0657C12.0891 16.8996 11.8975 16.7737 11.6948 16.6785C11.7243 16.6832 11.7515 16.6939 11.7822 16.6939C11.8177 16.6939 11.8544 16.6909 11.8904 16.6838L16.5407 15.8231C16.695 15.7941 16.8315 15.706 16.9202 15.5765C17.0089 15.4471 17.0432 15.2886 17.0142 15.1343L15.7231 8.15838L22.1173 6.97484L22.378 8.38421L23.5408 8.16961L23.2169 6.41972L26.0587 2.28618L27.6561 10.9151L26.4743 9.88109C25.6857 9.19177 24.4873 9.23079 23.7454 9.97213C23.0519 10.6662 22.9627 11.7492 23.5326 12.5461L25.0537 14.6762L20.6346 14.3084C19.5332 14.2156 18.5436 14.9623 18.3266 16.0447C18.2113 16.62 18.3296 17.2041 18.6595 17.6894C18.9893 18.1748 19.4889 18.4999 20.0665 18.6052L22.0511 18.9658L18.1357 19.8053C17.24 19.9974 16.6069 20.7529 16.5099 21.622C16.1659 21.4505 15.7739 21.3683 15.366 21.402ZM20.1936 25.3677L15.1118 26.3088L13.9495 26.0594L15.9341 25.6987C16.5117 25.5935 17.0112 25.2684 17.3405 24.783C17.5563 24.4649 17.6716 24.1031 17.7 23.7301C18.1185 23.9246 18.5844 23.9819 19.0414 23.8767L22.5021 23.078L20.9178 24.2663C20.5447 24.5471 20.2976 24.9403 20.1936 25.3677Z" fill="#7238ED"/>
</svg>
