<svg width="36" height="38" viewBox="0 0 36 38" fill="none" xmlns="http://www.w3.org/2000/svg">
<path d="M35.9896 23.2341C35.956 22.7429 35.8275 22.2634 35.6114 21.8234C35.3954 21.3833 35.0962 20.9915 34.7311 20.6707L29.9093 16.4088L30.0446 16.2479C30.5433 15.656 30.792 14.8858 30.7361 14.1064C30.6803 13.3271 30.3245 12.6022 29.7469 12.0909L16.8765 0.716146C16.2985 0.205697 15.5461 -0.0490737 14.7847 0.00783666C14.0232 0.064747 13.3149 0.428681 12.8156 1.01964L10.2772 4.0251C9.77875 4.61739 9.53021 5.38769 9.58603 6.16715C9.64186 6.9466 9.99748 7.67162 10.575 8.18325L23.443 19.558C23.7293 19.8111 24.0615 20.004 24.4206 20.1257C24.7798 20.2474 25.1588 20.2955 25.5362 20.2673C25.9135 20.239 26.2817 20.135 26.6197 19.9611C26.9577 19.7873 27.259 19.547 27.5062 19.254L27.6421 19.0937L32.4645 23.3567C32.4838 23.3738 32.4997 23.3946 32.5111 23.418C32.5226 23.4413 32.5294 23.4668 32.5313 23.4928C32.5352 23.546 32.5184 23.5985 32.4846 23.639L30.3603 26.1553C30.3332 26.1867 30.2974 26.2089 30.2577 26.2189C30.218 26.2289 30.1762 26.2262 30.138 26.2113L16.0591 20.3931C15.3499 20.0986 14.5683 20.0392 13.8243 20.2232C13.0803 20.4071 12.4114 20.8252 11.9119 21.4185L8.90337 24.9856L8.17069 24.3373C8.11372 24.2864 8.04738 24.2477 7.97556 24.2234C7.90374 24.1991 7.82791 24.1898 7.75251 24.1959C7.60018 24.2072 7.45846 24.2799 7.35852 24.398L0.797193 32.168C0.228899 32.8413 -0.0547118 33.7179 0.0087516 34.6051C0.072215 35.4922 0.477554 36.3173 1.1356 36.8987C1.79364 37.4801 2.65049 37.7703 3.51764 37.7053C4.3848 37.6404 5.19122 37.2257 5.75951 36.5525L12.3203 28.7819C12.4203 28.6638 12.4704 28.51 12.4596 28.3542C12.4488 28.1984 12.3779 28.0534 12.2627 27.951L11.53 27.3027L14.5408 23.7368C14.5674 23.7052 14.6031 23.683 14.6428 23.6732C14.6825 23.6635 14.7242 23.6668 14.762 23.6826L28.8402 29.5008C29.5498 29.7939 30.3311 29.8525 31.0749 29.6684C31.8186 29.4843 32.4874 29.0667 32.9875 28.4743L35.1072 25.9579C35.4231 25.5862 35.6637 25.154 35.8152 24.6865C35.9666 24.2189 36.0259 23.7253 35.9896 23.2341ZM24.1953 18.6658L11.3249 7.29222C10.978 6.98526 10.7643 6.55006 10.7306 6.08208C10.6969 5.61411 10.846 5.15156 11.1452 4.79592L13.6831 1.79045C13.8315 1.61449 14.0124 1.4702 14.2154 1.36583C14.4183 1.26147 14.6394 1.19907 14.866 1.18221C15.0926 1.16535 15.3202 1.19436 15.5358 1.26759C15.7514 1.34081 15.9508 1.45681 16.1225 1.60895L28.9934 12.9826C29.3399 13.2898 29.5532 13.725 29.5866 14.1928C29.62 14.6606 29.4707 15.1229 29.1714 15.4783L26.6335 18.4837C26.4852 18.6596 26.3044 18.8038 26.1015 18.9081C25.8987 19.0124 25.6777 19.0748 25.4513 19.0917C25.2248 19.1086 24.9974 19.0797 24.7819 19.0066C24.5663 18.9336 24.367 18.8178 24.1953 18.6658ZM4.88744 35.7828C4.70726 36.0064 4.48524 36.1909 4.2344 36.3255C3.98357 36.46 3.70898 36.542 3.42676 36.5665C3.14455 36.591 2.86039 36.5575 2.59099 36.4681C2.32158 36.3787 2.07235 36.2351 1.85794 36.0458C1.64353 35.8564 1.46825 35.6252 1.3424 35.3656C1.21655 35.106 1.14267 34.8233 1.1251 34.5341C1.10752 34.2449 1.14661 33.955 1.24005 33.6815C1.3335 33.4079 1.47943 33.1562 1.66927 32.9412L7.85388 25.6132L11.072 28.4578L4.88744 35.7828ZM34.2374 25.1877L32.1119 27.7052C31.7691 28.1112 31.3106 28.3972 30.8009 28.5233C30.2911 28.6494 29.7556 28.6092 29.2693 28.4083L15.1917 22.59C14.9308 22.4823 14.6435 22.4608 14.3701 22.5286C14.0966 22.5963 13.8508 22.7499 13.667 22.9678L10.6567 26.5331L9.77488 25.7517L12.7857 22.1858C13.1288 21.7803 13.5871 21.4946 14.0967 21.3687C14.6062 21.2428 15.1415 21.2828 15.6277 21.4833L29.7065 27.3015C29.9675 27.4086 30.2546 27.4298 30.5279 27.3621C30.8012 27.2944 31.047 27.1412 31.2312 26.9238L33.3573 24.4069C33.59 24.1296 33.706 23.7694 33.6797 23.4049C33.6535 23.0405 33.4872 22.7015 33.2173 22.4622L28.395 18.2003L29.1559 17.2986L33.9788 21.5611C34.4821 22.0072 34.792 22.6393 34.8405 23.3188C34.8889 23.9983 34.6721 24.6698 34.2374 25.1859V25.1877Z" fill="#FC6620"/>
</svg>
