<svg width="36" height="36" viewBox="0 0 36 36" fill="none" xmlns="http://www.w3.org/2000/svg">
<path d="M1.18032 27.0083C0.555122 27.8083 0.160662 28.764 0.0396643 29.7721C-0.0813338 30.7802 0.0757422 31.8022 0.493879 32.7274C0.912015 33.6526 1.57527 34.4457 2.41181 35.0209C3.24835 35.5961 4.22628 35.9313 5.23969 35.9904C5.34647 36 5.45504 36 5.56302 36C6.80895 36.0024 8.01955 35.586 9.00041 34.8176C9.98127 34.0491 10.6755 32.9733 10.9715 31.7628C11.355 30.353 12.1155 29.0746 13.1713 28.065L25.5173 15.7247C26.8314 16.1398 28.2299 16.2108 29.5792 15.931C30.9285 15.6512 32.1834 15.0299 33.2242 14.1265C34.2649 13.2232 35.0565 12.0679 35.5234 10.7711C35.9903 9.47436 36.1169 8.07949 35.891 6.71986C35.8471 6.47168 35.7361 6.24026 35.5701 6.05071C35.404 5.86116 35.1893 5.72071 34.949 5.6446C34.7088 5.56849 34.4524 5.55963 34.2075 5.61898C33.9626 5.67832 33.7386 5.80361 33.5599 5.98125L30.7621 8.77787C30.694 8.8452 30.6116 8.89633 30.521 8.92749C30.4305 8.95865 30.3341 8.96903 30.239 8.95787L27.8737 8.69987C27.7289 8.68191 27.5941 8.61647 27.4904 8.51377C27.3868 8.41107 27.3201 8.27691 27.3008 8.13226L27.0404 5.76585C27.0295 5.6701 27.04 5.57312 27.0711 5.48192C27.1023 5.39071 27.1532 5.30756 27.2204 5.23845L30.0194 2.43944C30.197 2.26004 30.3219 2.03538 30.3807 1.78989C30.4394 1.54441 30.4297 1.28751 30.3527 1.04714C30.2756 0.80678 30.1341 0.592165 29.9435 0.426654C29.753 0.261142 29.5207 0.151073 29.272 0.108426C27.9845 -0.104932 26.6644 -0.00241417 25.4253 0.40717C24.1861 0.816754 23.0649 1.52115 22.158 2.45984C21.1636 3.5093 20.4664 4.80464 20.1381 6.21278C19.8098 7.62093 19.8623 9.0911 20.29 10.4723L7.91094 22.8539C6.86267 23.9087 5.55503 24.6686 4.11972 25.0571C2.95479 25.3726 1.92346 26.0572 1.18032 27.0083ZM8.75917 23.6999L21.4004 11.0579C21.481 10.9773 21.5371 10.8755 21.5619 10.7642C21.5868 10.6529 21.5794 10.5369 21.5408 10.4297C21.1022 9.22008 21.0084 7.9124 21.2697 6.65256C21.531 5.39273 22.1372 4.23031 23.0206 3.29504C23.7918 2.49539 24.7456 1.89522 25.8002 1.54622C26.8547 1.19721 27.9782 1.10984 29.074 1.29163C29.1057 1.29755 29.1353 1.31188 29.1596 1.33315C29.1839 1.35441 29.202 1.38181 29.212 1.41249C29.2221 1.44316 29.2237 1.47597 29.2168 1.50749C29.2098 1.53901 29.1945 1.56807 29.1724 1.59163L26.3734 4.39005C26.1796 4.58519 26.0319 4.82111 25.9409 5.0806C25.8499 5.3401 25.8179 5.61663 25.8473 5.89005L26.1088 8.26546C26.1572 8.6803 26.3445 9.06657 26.6402 9.36146C26.9358 9.65635 27.3226 9.84251 27.7375 9.88967L30.104 10.1501C30.3783 10.1822 30.6564 10.1516 30.9172 10.0607C31.178 9.96977 31.4148 9.82081 31.6097 9.62507L34.4081 6.82666C34.431 6.80318 34.4601 6.7868 34.492 6.77945C34.5239 6.77211 34.5573 6.77413 34.5881 6.78526C34.6185 6.79293 34.646 6.80926 34.6673 6.83226C34.6886 6.85527 34.7027 6.88396 34.7081 6.91486C34.9056 8.10026 34.7882 9.31677 34.3677 10.4425C33.9472 11.5683 33.2384 12.5638 32.3121 13.3292C31.3859 14.0947 30.2748 14.6033 29.0902 14.804C27.9055 15.0048 26.689 14.8907 25.5623 14.4731C25.4548 14.4336 25.3383 14.4258 25.2265 14.4504C25.1146 14.4751 25.0122 14.5313 24.9313 14.6123L12.323 27.2165C11.1107 28.3804 10.2395 29.8534 9.80355 31.4766C9.61895 32.2238 9.24015 32.9089 8.70554 33.4625C8.17093 34.0161 7.49951 34.4185 6.75931 34.629C6.01912 34.8394 5.23646 34.8504 4.49065 34.6609C3.74483 34.4713 3.06237 34.0879 2.51241 33.5496C1.96245 33.0112 1.56454 32.337 1.35901 31.5953C1.15347 30.8536 1.14762 30.0707 1.34203 29.326C1.53644 28.5813 1.92422 27.9012 2.46606 27.3547C3.00791 26.8082 3.68456 26.4146 4.42745 26.2139C6.06725 25.7715 7.56139 24.9043 8.75917 23.6999Z" fill="#0544FF"/>
</svg>
