<svg width="32" height="36" viewBox="0 0 32 36" fill="none" xmlns="http://www.w3.org/2000/svg">
<path d="M29.7999 16.8449V16.1999C29.7999 14.4495 29.1045 12.7707 27.8668 11.533C26.6291 10.2953 24.9503 9.59993 23.1999 9.59993C21.4495 9.59993 19.7708 10.2953 18.5331 11.533C17.2953 12.7707 16.6 14.4495 16.6 16.1999V18.5999H14.2C14.0409 18.5999 13.8883 18.6631 13.7757 18.7756C13.6632 18.8881 13.6 19.0407 13.6 19.1999V21.5998C13.6 21.759 13.6632 21.9116 13.7757 22.0241C13.8883 22.1366 14.0409 22.1998 14.2 22.1998H14.26L14.8282 27.5998H12.4V1.79999C12.4 1.3226 12.2104 0.864767 11.8728 0.527204C11.5352 0.189641 11.0774 0 10.6 0C10.1226 0 9.6648 0.189641 9.32724 0.527204C8.98968 0.864767 8.80004 1.3226 8.80004 1.79999V27.5998H2.80008C2.48194 27.6002 2.17694 27.7267 1.95198 27.9517C1.72702 28.1766 1.60047 28.4816 1.60009 28.7998V30.5259L0.418025 35.2542C0.395915 35.3427 0.394255 35.435 0.413171 35.5242C0.432087 35.6134 0.471082 35.6971 0.527194 35.769C0.583305 35.8409 0.655057 35.899 0.737 35.939C0.818942 35.9789 0.908919 35.9997 1.0001 35.9997H29.1999C29.359 35.9997 29.5116 35.9365 29.6241 35.824C29.7367 35.7115 29.7999 35.5589 29.7999 35.3997V33.0313L30.6468 24.9859C30.9369 24.8268 31.1786 24.5923 31.3463 24.3071C31.5141 24.022 31.6017 23.6968 31.5999 23.3659V19.0499C31.5993 18.5314 31.4199 18.0289 31.092 17.6273C30.7641 17.2256 30.3078 16.9493 29.7999 16.8449ZM17.8 16.1999C17.8 15.4907 17.9396 14.7886 18.211 14.1334C18.4824 13.4783 18.8801 12.883 19.3816 12.3815C19.883 11.8801 20.4783 11.4823 21.1335 11.211C21.7886 10.9396 22.4908 10.7999 23.1999 10.7999C23.9091 10.7999 24.6113 10.9396 25.2664 11.211C25.9216 11.4823 26.5168 11.8801 27.0183 12.3815C27.5197 12.883 27.9175 13.4783 28.1888 14.1334C28.4602 14.7886 28.5999 15.4907 28.5999 16.1999V16.7999H23.0499C22.5314 16.8005 22.029 16.9798 21.6273 17.3077C21.2257 17.6356 20.9493 18.092 20.8449 18.5999H17.8V16.1999ZM14.8 19.7999H20.7999V20.9998H14.8V19.7999ZM15.4664 22.1998H20.7999V23.3668C20.801 23.6117 20.8504 23.854 20.9453 24.0797C21.0402 24.3055 21.1788 24.5102 21.3531 24.6822C21.5203 24.8492 21.7191 24.981 21.938 25.0698C22.1569 25.1587 22.3913 25.2029 22.6275 25.1997C23.0608 25.192 23.4768 25.029 23.7999 24.7403C24.1296 25.0361 24.557 25.1998 24.9999 25.1998C25.4429 25.1998 25.8702 25.0361 26.1999 24.7403C26.5295 25.036 26.9567 25.1996 27.3995 25.1997C27.8423 25.1998 28.2696 25.0364 28.5993 24.7409C28.832 24.9501 29.1157 25.0942 29.4219 25.1589L28.6599 32.3998H20.0684L19.6 30.5259V28.7998C19.5996 28.4816 19.473 28.1766 19.2481 27.9517C19.0231 27.7267 18.7181 27.6002 18.4 27.5998H16.0346L15.4664 22.1998ZM10 1.79999C10 1.64086 10.0632 1.48825 10.1758 1.37573C10.2883 1.2632 10.4409 1.19999 10.6 1.19999C10.7592 1.19999 10.9118 1.2632 11.0243 1.37573C11.1368 1.48825 11.2 1.64086 11.2 1.79999V27.5998H10V1.79999ZM2.80008 28.7998H18.4V29.9998H2.80008V28.7998ZM4.16852 34.7997L5.06852 31.1998H6.23161L5.33161 34.7997H4.16852ZM2.66853 31.1998H3.83162L2.93163 34.7997H1.76854L2.66853 31.1998ZM7.4685 31.1998H8.72039L8.27039 34.7997H6.5685L7.4685 31.1998ZM9.47968 34.7997L9.92968 31.1998H11.2704L11.7204 34.7997H9.47968ZM12.9297 34.7997L12.4797 31.1998H13.7316L14.6315 34.7997H12.9297ZM15.8684 34.7997L14.9684 31.1998H16.1315L17.0315 34.7997H15.8684ZM18.2684 34.7997L17.3684 31.1998H18.5315L19.4315 34.7997H18.2684ZM28.5999 34.7997H20.6684L20.3684 33.5998H28.5999V34.7997ZM30.3999 21.5998V23.3659C30.4027 23.524 30.3454 23.6773 30.2396 23.7948C30.1338 23.9123 29.9874 23.9853 29.8299 23.9991C29.7487 24.0031 29.6675 23.9907 29.5912 23.9624C29.515 23.9341 29.4453 23.8906 29.3864 23.8346C29.3274 23.7785 29.2805 23.7111 29.2485 23.6363C29.2164 23.5616 29.1999 23.4811 29.1999 23.3998V20.9998H27.9999V23.3998C27.9999 23.559 27.9367 23.7116 27.8242 23.8241C27.7116 23.9366 27.559 23.9998 27.3999 23.9998C27.2408 23.9998 27.0882 23.9366 26.9756 23.8241C26.8631 23.7116 26.7999 23.559 26.7999 23.3998V20.9998H25.5999V23.3998C25.5999 23.559 25.5367 23.7116 25.4242 23.8241C25.3117 23.9366 25.159 23.9998 24.9999 23.9998C24.8408 23.9998 24.6882 23.9366 24.5757 23.8241C24.4631 23.7116 24.3999 23.559 24.3999 23.3998V20.9998H23.1999V23.3998C23.2001 23.5574 23.1382 23.7087 23.0277 23.8209C22.9172 23.9332 22.7669 23.9975 22.6094 23.9998H22.6011C22.4483 23.9983 22.3024 23.9363 22.1952 23.8273C22.134 23.7672 22.0853 23.6956 22.0518 23.6166C22.0184 23.5375 22.0008 23.4527 22.0002 23.3669V19.0499C22.0005 18.7715 22.1113 18.5046 22.3081 18.3077C22.505 18.1109 22.7718 18.0002 23.0502 17.9999H29.3502C29.6286 18.0002 29.8955 18.1109 30.0923 18.3077C30.2892 18.5046 30.3999 18.7715 30.4002 19.0499L30.3999 21.5998Z" fill="#008FFB"/>
</svg>
