<svg width="32" height="32" viewBox="0 0 32 32" fill="none" xmlns="http://www.w3.org/2000/svg">
<circle cx="16" cy="16" r="16" fill="#7238ED"/>
<path fill-rule="evenodd" clip-rule="evenodd" d="M16.0006 9C14.0995 9 13.8609 9.00831 13.1143 9.04229C12.369 9.07642 11.8604 9.1944 11.4153 9.3675C10.9549 9.54629 10.5644 9.78546 10.1753 10.1747C9.7859 10.5638 9.54673 10.9543 9.36735 11.4146C9.19381 11.8598 9.07569 12.3686 9.04215 13.1135C9.00875 13.8602 9 14.0989 9 16C9 17.9011 9.00846 18.1389 9.04229 18.8856C9.07656 19.6308 9.19454 20.1395 9.3675 20.5846C9.54644 21.045 9.7856 21.4355 10.1748 21.8246C10.5638 22.214 10.9543 22.4537 11.4144 22.6325C11.8598 22.8056 12.3686 22.9236 13.1137 22.9577C13.8603 22.9917 14.0988 23 15.9997 23C17.9009 23 18.1388 22.9917 18.8855 22.9577C19.6307 22.9236 20.1399 22.8056 20.5853 22.6325C21.0455 22.4537 21.4355 22.214 21.8244 21.8246C22.2138 21.4355 22.453 21.045 22.6324 20.5847C22.8044 20.1395 22.9226 19.6307 22.9576 18.8858C22.9911 18.1391 22.9999 17.9011 22.9999 16C22.9999 14.0989 22.9911 13.8603 22.9576 13.1137C22.9226 12.3685 22.8044 11.8598 22.6324 11.4147C22.453 10.9543 22.2138 10.5638 21.8244 10.1747C21.4351 9.78531 21.0457 9.54615 20.5849 9.3675C20.1386 9.1944 19.6296 9.07642 18.8844 9.04229C18.1378 9.00831 17.9001 9 15.9984 9H16.0006ZM15.3726 10.2614C15.559 10.2611 15.7669 10.2614 16.0006 10.2614C17.8696 10.2614 18.0911 10.2681 18.8291 10.3017C19.5116 10.3329 19.8821 10.4469 20.1288 10.5428C20.4555 10.6696 20.6884 10.8213 20.9332 11.0663C21.1782 11.3113 21.3299 11.5446 21.4571 11.8713C21.5529 12.1178 21.6671 12.4882 21.6981 13.1707C21.7317 13.9086 21.7389 14.1303 21.7389 15.9984C21.7389 17.8665 21.7317 18.0882 21.6981 18.8261C21.6669 19.5086 21.5529 19.879 21.4571 20.1255C21.3302 20.4521 21.1782 20.6847 20.9332 20.9296C20.6882 21.1746 20.4556 21.3263 20.1288 21.4531C19.8823 21.5494 19.5116 21.6631 18.8291 21.6943C18.0912 21.7279 17.8696 21.7352 16.0006 21.7352C14.1314 21.7352 13.9099 21.7279 13.172 21.6943C12.4895 21.6628 12.1191 21.5488 11.8722 21.453C11.5455 21.3261 11.3122 21.1744 11.0672 20.9294C10.8222 20.6844 10.6705 20.4517 10.5433 20.1249C10.4475 19.8784 10.3333 19.508 10.3023 18.8255C10.2687 18.0876 10.262 17.8659 10.262 15.9966C10.262 14.1273 10.2687 13.9068 10.3023 13.1689C10.3335 12.4864 10.4475 12.116 10.5433 11.8693C10.6702 11.5426 10.8222 11.3093 11.0672 11.0643C11.3122 10.8193 11.5455 10.6676 11.8722 10.5404C12.1189 10.4442 12.4895 10.3304 13.172 10.2991C13.8177 10.2699 14.068 10.2611 15.3726 10.2597V10.2614ZM19.7371 11.4237C19.2733 11.4237 18.8971 11.7995 18.8971 12.2634C18.8971 12.7272 19.2733 13.1034 19.7371 13.1034C20.2008 13.1034 20.5771 12.7272 20.5771 12.2634C20.5771 11.7997 20.2008 11.4237 19.7371 11.4237ZM16.0006 12.4052C14.0154 12.4052 12.4058 14.0148 12.4058 16C12.4058 17.9852 14.0154 19.594 16.0006 19.594C17.9858 19.594 19.5948 17.9852 19.5948 16C19.5948 14.0148 17.9858 12.4052 16.0006 12.4052ZM16.0006 13.6666C17.2892 13.6666 18.3339 14.7113 18.3339 16C18.3339 17.2886 17.2892 18.3333 16.0006 18.3333C14.7118 18.3333 13.6672 17.2886 13.6672 16C13.6672 14.7113 14.7118 13.6666 16.0006 13.6666Z" fill="white"/>
</svg>
