<svg width="128" height="19" viewBox="0 0 128 19" fill="none" xmlns="http://www.w3.org/2000/svg">
<path d="M0.630826 18.745C0.445783 18.745 0.294385 18.6855 0.176631 18.5664C0.0588764 18.4304 0 18.2774 0 18.1074V1.27517C0 1.08814 0.0588764 0.935123 0.176631 0.816108C0.294385 0.697091 0.445783 0.637583 0.630826 0.637583H3.55786C3.72608 0.637583 3.86907 0.697091 3.98682 0.816108C4.1214 0.935123 4.18869 1.08814 4.18869 1.27517V9.81879L7.69608 5.91678C7.79702 5.79776 7.90636 5.69575 8.02411 5.61074C8.14186 5.52573 8.31009 5.48322 8.52877 5.48322H11.91C12.0614 5.48322 12.1876 5.54273 12.2885 5.66175C12.4063 5.76376 12.4651 5.89127 12.4651 6.04429C12.4651 6.1123 12.4483 6.18881 12.4147 6.27383C12.3978 6.35884 12.3474 6.42685 12.2633 6.47785L7.72131 11.4255L12.8941 17.7758C13.0287 17.9119 13.096 18.0394 13.096 18.1584C13.096 18.3284 13.0371 18.4729 12.9193 18.5919C12.8184 18.694 12.6838 18.745 12.5156 18.745H9.05867C8.80634 18.745 8.62129 18.7025 8.50354 18.6174C8.38579 18.5154 8.27644 18.4134 8.17551 18.3114L4.18869 13.4658V18.1074C4.18869 18.2774 4.1214 18.4304 3.98682 18.5664C3.86907 18.6855 3.72608 18.745 3.55786 18.745H0.630826Z" fill="black"/>
<path d="M18.4256 19C17.5173 19 16.7014 18.83 15.978 18.4899C15.2715 18.1329 14.708 17.6568 14.2874 17.0617C13.8669 16.4667 13.6566 15.7951 13.6566 15.047C13.6566 13.8398 14.1444 12.8877 15.1201 12.1906C16.0958 11.4765 17.3911 10.9919 19.006 10.7369L22.1601 10.2523V9.8953C22.1601 9.28322 22.034 8.81566 21.7816 8.49262C21.5293 8.16957 21.0667 8.00805 20.3938 8.00805C19.9228 8.00805 19.5359 8.10157 19.2331 8.28859C18.9471 8.47561 18.72 8.73065 18.5518 9.05369C18.4004 9.27472 18.1901 9.38523 17.921 9.38523H15.0949C14.9098 9.38523 14.7669 9.33423 14.6659 9.23221C14.565 9.1132 14.5229 8.97718 14.5398 8.82416C14.5398 8.51812 14.6491 8.16957 14.8678 7.77852C15.1033 7.37047 15.4566 6.97092 15.9276 6.57987C16.3986 6.18881 17.0042 5.86577 17.7444 5.61074C18.4845 5.3557 19.3845 5.22819 20.4443 5.22819C21.5209 5.22819 22.4461 5.3557 23.2199 5.61074C23.9937 5.86577 24.6246 6.22282 25.1124 6.68188C25.6002 7.14094 25.9535 7.68501 26.1722 8.31409C26.4077 8.92617 26.5255 9.60626 26.5255 10.3544V18.1074C26.5255 18.2774 26.4582 18.4304 26.3236 18.5664C26.2058 18.6855 26.0629 18.745 25.8946 18.745H22.9676C22.7826 18.745 22.6312 18.6855 22.5134 18.5664C22.3957 18.4304 22.3368 18.2774 22.3368 18.1074V17.2148C22.1181 17.5378 21.8237 17.8353 21.4536 18.1074C21.0835 18.3794 20.6462 18.5919 20.1415 18.745C19.6537 18.915 19.0817 19 18.4256 19ZM19.6116 16.0926C20.0994 16.0926 20.5368 15.9906 20.9237 15.7866C21.3275 15.5655 21.6387 15.234 21.8573 14.7919C22.0929 14.3329 22.2106 13.7633 22.2106 13.0832V12.7262L20.0658 13.1087C19.2752 13.2447 18.6948 13.4573 18.3247 13.7463C17.9715 14.0183 17.7948 14.3414 17.7948 14.7154C17.7948 15.0045 17.8789 15.251 18.0472 15.455C18.2154 15.6591 18.4341 15.8206 18.7032 15.9396C18.9892 16.0416 19.292 16.0926 19.6116 16.0926Z" fill="black"/>
<path d="M37.397 19C36.4718 19 35.6895 18.8385 35.0503 18.5154C34.411 18.1924 33.8896 17.7843 33.4858 17.2913V18.1074C33.4858 18.2774 33.4186 18.4304 33.284 18.5664C33.1662 18.6855 33.0232 18.745 32.855 18.745H30.0037C29.8186 18.745 29.6672 18.6855 29.5495 18.5664C29.4317 18.4304 29.3729 18.2774 29.3729 18.1074V1.27517C29.3729 1.08814 29.4317 0.935123 29.5495 0.816108C29.6672 0.697091 29.8186 0.637583 30.0037 0.637583H33.0821C33.2672 0.637583 33.4186 0.697091 33.5363 0.816108C33.6541 0.935123 33.7129 1.08814 33.7129 1.27517V6.73289C34.1335 6.29083 34.6466 5.93378 35.2522 5.66175C35.8577 5.37271 36.5727 5.22819 37.397 5.22819C38.2381 5.22819 38.9782 5.37271 39.6175 5.66175C40.2735 5.93378 40.8287 6.33333 41.2829 6.8604C41.7371 7.37047 42.0903 7.99955 42.3426 8.74765C42.595 9.47875 42.738 10.2949 42.7716 11.196C42.7884 11.536 42.7968 11.8421 42.7968 12.1141C42.7968 12.3691 42.7884 12.6667 42.7716 13.0067C42.738 13.9588 42.595 14.8089 42.3426 15.557C42.0903 16.2881 41.7286 16.9172 41.2576 17.4443C40.8034 17.9544 40.2567 18.3454 39.6175 18.6174C38.9782 18.8725 38.2381 19 37.397 19ZM36.0344 15.5826C36.6063 15.5826 37.0521 15.4635 37.3717 15.2255C37.6913 14.9875 37.9184 14.6644 38.053 14.2564C38.2044 13.8483 38.2969 13.3978 38.3306 12.9047C38.3642 12.3776 38.3642 11.8506 38.3306 11.3235C38.2969 10.8304 38.2044 10.3799 38.053 9.97181C37.9184 9.56376 37.6913 9.24072 37.3717 9.00268C37.0521 8.76465 36.6063 8.64564 36.0344 8.64564C35.5129 8.64564 35.0839 8.76465 34.7475 9.00268C34.4111 9.22371 34.1587 9.52125 33.9905 9.8953C33.8223 10.2523 33.7298 10.6434 33.7129 11.0685C33.6961 11.3915 33.6877 11.706 33.6877 12.0121C33.6877 12.3181 33.6961 12.6412 33.7129 12.9812C33.7466 13.4403 33.8391 13.8653 33.9905 14.2564C34.1419 14.6474 34.3858 14.9705 34.7223 15.2255C35.0587 15.4635 35.4961 15.5826 36.0344 15.5826Z" fill="black"/>
<path d="M49.2277 19C48.3193 19 47.5035 18.83 46.7801 18.4899C46.0736 18.1329 45.5101 17.6568 45.0895 17.0617C44.6689 16.4667 44.4587 15.7951 44.4587 15.047C44.4587 13.8398 44.9465 12.8877 45.9222 12.1906C46.8979 11.4765 48.1932 10.9919 49.8081 10.7369L52.9622 10.2523V9.8953C52.9622 9.28322 52.836 8.81566 52.5837 8.49262C52.3314 8.16957 51.8688 8.00805 51.1959 8.00805C50.7249 8.00805 50.338 8.10157 50.0352 8.28859C49.7492 8.47561 49.5221 8.73065 49.3539 9.05369C49.2025 9.27472 48.9922 9.38523 48.7231 9.38523H45.897C45.7119 9.38523 45.5689 9.33423 45.468 9.23221C45.3671 9.1132 45.325 8.97718 45.3418 8.82416C45.3418 8.51812 45.4512 8.16957 45.6699 7.77852C45.9054 7.37047 46.2586 6.97092 46.7296 6.57987C47.2007 6.18881 47.8063 5.86577 48.5464 5.61074C49.2866 5.3557 50.1866 5.22819 51.2464 5.22819C52.323 5.22819 53.2482 5.3557 54.022 5.61074C54.7958 5.86577 55.4266 6.22282 55.9145 6.68188C56.4023 7.14094 56.7556 7.68501 56.9743 8.31409C57.2098 8.92617 57.3275 9.60626 57.3275 10.3544V18.1074C57.3275 18.2774 57.2602 18.4304 57.1257 18.5664C57.0079 18.6855 56.8649 18.745 56.6967 18.745H53.7697C53.5846 18.745 53.4332 18.6855 53.3155 18.5664C53.1977 18.4304 53.1388 18.2774 53.1388 18.1074V17.2148C52.9202 17.5378 52.6258 17.8353 52.2557 18.1074C51.8856 18.3794 51.4482 18.5919 50.9436 18.745C50.4557 18.915 49.8838 19 49.2277 19ZM50.4137 16.0926C50.9015 16.0926 51.3389 15.9906 51.7258 15.7866C52.1295 15.5655 52.4407 15.234 52.6594 14.7919C52.8949 14.3329 53.0127 13.7633 53.0127 13.0832V12.7262L50.8679 13.1087C50.0772 13.2447 49.4969 13.4573 49.1268 13.7463C48.7735 14.0183 48.5969 14.3414 48.5969 14.7154C48.5969 15.0045 48.681 15.251 48.8492 15.455C49.0174 15.6591 49.2361 15.8206 49.5053 15.9396C49.7913 16.0416 50.0941 16.0926 50.4137 16.0926Z" fill="black"/>
<path d="M60.8058 18.745C60.6207 18.745 60.4693 18.6855 60.3516 18.5664C60.2338 18.4304 60.1749 18.2774 60.1749 18.1074V6.1208C60.1749 5.93378 60.2338 5.78076 60.3516 5.66175C60.4693 5.54273 60.6207 5.48322 60.8058 5.48322H63.7075C63.8926 5.48322 64.044 5.54273 64.1617 5.66175C64.2963 5.78076 64.3636 5.93378 64.3636 6.1208V7.08993C64.7842 6.56286 65.3477 6.1208 66.0542 5.76376C66.7607 5.40671 67.5934 5.22819 68.5523 5.22819C69.528 5.22819 70.3859 5.44922 71.1261 5.89128C71.8831 6.33333 72.4718 6.97942 72.8924 7.82953C73.3298 8.67964 73.5484 9.73378 73.5484 10.9919V18.1074C73.5484 18.2774 73.4896 18.4304 73.3718 18.5664C73.2541 18.6855 73.1027 18.745 72.9176 18.745H69.7383C69.57 18.745 69.4186 18.6855 69.2841 18.5664C69.1663 18.4304 69.1074 18.2774 69.1074 18.1074V11.145C69.1074 10.3459 68.914 9.73378 68.5271 9.30872C68.157 8.86667 67.6019 8.64564 66.8617 8.64564C66.172 8.64564 65.6169 8.86667 65.1963 9.30872C64.7926 9.73378 64.5907 10.3459 64.5907 11.145V18.1074C64.5907 18.2774 64.5234 18.4304 64.3888 18.5664C64.2711 18.6855 64.1281 18.745 63.9599 18.745H60.8058Z" fill="black"/>
<path d="M82.4198 19C81.175 19 80.0732 18.7705 79.1143 18.3114C78.1554 17.8523 77.39 17.1893 76.8181 16.3221C76.263 15.438 75.9602 14.3839 75.9097 13.1597C75.8929 12.8877 75.8845 12.5477 75.8845 12.1396C75.8845 11.7145 75.8929 11.366 75.9097 11.094C75.9602 9.8528 76.263 8.79866 76.8181 7.93154C77.3732 7.04743 78.1302 6.37584 79.0891 5.91678C80.0647 5.45772 81.175 5.22819 82.4198 5.22819C83.5806 5.22819 84.5731 5.39821 85.3973 5.73825C86.2384 6.0613 86.9113 6.46935 87.416 6.96242C87.9375 7.45548 88.3244 7.96555 88.5767 8.49262C88.8458 9.00268 88.9888 9.45324 89.0057 9.8443C89.0225 10.0143 88.9636 10.1673 88.829 10.3034C88.6945 10.4224 88.5431 10.4819 88.3748 10.4819H85.1702C84.9852 10.4819 84.8422 10.4394 84.7413 10.3544C84.6403 10.2694 84.5478 10.1418 84.4637 9.97181C84.2618 9.44474 84.0011 9.07069 83.6815 8.84966C83.3787 8.62864 82.9834 8.51812 82.4955 8.51812C81.8227 8.51812 81.3012 8.73915 80.9311 9.18121C80.5778 9.62327 80.3844 10.3034 80.3507 11.2215C80.3339 11.9016 80.3339 12.5051 80.3507 13.0322C80.4012 13.9673 80.603 14.6474 80.9563 15.0725C81.3096 15.4975 81.8227 15.7101 82.4955 15.7101C83.017 15.7101 83.4292 15.5996 83.7319 15.3785C84.0347 15.1405 84.2787 14.7664 84.4637 14.2564C84.5478 14.0864 84.6403 13.9588 84.7413 13.8738C84.8422 13.7888 84.9852 13.7463 85.1702 13.7463H88.3748C88.5431 13.7463 88.6945 13.8058 88.829 13.9248C88.9636 14.0438 89.0225 14.1969 89.0057 14.3839C88.9888 14.6559 88.9047 14.9875 88.7533 15.3785C88.6019 15.7696 88.3664 16.1776 88.0468 16.6027C87.7272 17.0277 87.3066 17.4188 86.7852 17.7758C86.2805 18.1329 85.6665 18.4304 84.9431 18.6685C84.2198 18.8895 83.3787 19 82.4198 19Z" fill="black"/>
<path d="M91.9035 18.745C91.7185 18.745 91.5671 18.6855 91.4493 18.5664C91.3316 18.4304 91.2727 18.2774 91.2727 18.1074V1.27517C91.2727 1.08814 91.3316 0.935123 91.4493 0.816108C91.5671 0.697091 91.7185 0.637583 91.9035 0.637583H95.1333C95.3184 0.637583 95.4698 0.697091 95.5875 0.816108C95.7053 0.935123 95.7642 1.08814 95.7642 1.27517V6.96242C96.2184 6.43535 96.7735 6.01879 97.4296 5.71275C98.1024 5.38971 98.8763 5.22819 99.751 5.22819C100.727 5.22819 101.593 5.44922 102.35 5.89128C103.124 6.33333 103.729 6.97942 104.167 7.82953C104.604 8.67964 104.823 9.73378 104.823 10.9919V18.1074C104.823 18.2774 104.764 18.4304 104.646 18.5664C104.528 18.6855 104.377 18.745 104.192 18.745H100.937C100.769 18.745 100.617 18.6855 100.483 18.5664C100.365 18.4304 100.306 18.2774 100.306 18.1074V11.145C100.306 10.3459 100.113 9.73378 99.7258 9.30872C99.3557 8.86667 98.809 8.64564 98.0856 8.64564C97.3791 8.64564 96.8156 8.86667 96.395 9.30872C95.9744 9.73378 95.7642 10.3459 95.7642 11.145V18.1074C95.7642 18.2774 95.7053 18.4304 95.5875 18.5664C95.4698 18.6855 95.3184 18.745 95.1333 18.745H91.9035Z" fill="black"/>
<path d="M108.315 18.745C108.13 18.745 107.978 18.6855 107.861 18.5664C107.743 18.4304 107.684 18.2774 107.684 18.1074V6.1208C107.684 5.93378 107.743 5.78076 107.861 5.66175C107.978 5.54273 108.13 5.48322 108.315 5.48322H111.292C111.477 5.48322 111.629 5.54273 111.747 5.66175C111.864 5.78076 111.923 5.93378 111.923 6.1208V18.1074C111.923 18.2774 111.864 18.4304 111.747 18.5664C111.629 18.6855 111.477 18.745 111.292 18.745H108.315ZM108.29 3.57047C108.105 3.57047 107.953 3.51096 107.835 3.39195C107.718 3.27293 107.659 3.11991 107.659 2.93289V0.637583C107.659 0.467561 107.718 0.323042 107.835 0.204026C107.953 0.0680086 108.105 0 108.29 0H111.318C111.486 0 111.629 0.0680086 111.747 0.204026C111.881 0.323042 111.948 0.467561 111.948 0.637583V2.93289C111.948 3.11991 111.881 3.27293 111.747 3.39195C111.629 3.51096 111.486 3.57047 111.318 3.57047H108.29Z" fill="black"/>
<path d="M115.535 18.745C115.35 18.745 115.198 18.6855 115.081 18.5664C114.963 18.4304 114.904 18.2774 114.904 18.1074V1.27517C114.904 1.08814 114.963 0.935123 115.081 0.816108C115.198 0.697091 115.35 0.637583 115.535 0.637583H118.462C118.63 0.637583 118.773 0.697091 118.891 0.816108C119.025 0.935123 119.093 1.08814 119.093 1.27517V9.81879L122.6 5.91678C122.701 5.79776 122.81 5.69575 122.928 5.61074C123.046 5.52573 123.214 5.48322 123.433 5.48322H126.814C126.965 5.48322 127.092 5.54273 127.193 5.66175C127.31 5.76376 127.369 5.89127 127.369 6.04429C127.369 6.1123 127.352 6.18881 127.319 6.27383C127.302 6.35884 127.251 6.42685 127.167 6.47785L122.625 11.4255L127.798 17.7758C127.933 17.9119 128 18.0394 128 18.1584C128 18.3284 127.941 18.4729 127.823 18.5919C127.722 18.694 127.588 18.745 127.42 18.745H123.963C123.71 18.745 123.525 18.7025 123.408 18.6174C123.29 18.5154 123.18 18.4134 123.08 18.3114L119.093 13.4658V18.1074C119.093 18.2774 119.025 18.4304 118.891 18.5664C118.773 18.6855 118.63 18.745 118.462 18.745H115.535Z" fill="black"/>
</svg>
