<svg width="36" height="37" viewBox="0 0 36 37" fill="none" xmlns="http://www.w3.org/2000/svg">
<path d="M0.572809 4.66988L4.49561 2.64566L6.23733 6.07776C5.37259 6.70091 4.75285 7.611 4.48666 8.64862C4.22047 9.68624 4.3248 10.7852 4.78138 11.7531L12.9247 28.6946C12.295 29.1241 11.7862 29.7107 11.4478 30.3972C11.1094 31.0838 10.9529 31.8469 10.9935 32.6125C11.0342 33.3781 11.2706 34.12 11.6798 34.7662C12.0889 35.4124 12.6569 35.9408 13.3286 36.3001C14.0002 36.6594 14.7526 36.8373 15.5126 36.8166C16.2726 36.7958 17.0144 36.5772 17.6657 36.1818C18.3171 35.7864 18.856 35.2278 19.2299 34.5603C19.6038 33.8927 19.8001 33.139 19.7997 32.3723C19.7984 32.1778 19.7843 31.9835 19.7575 31.7909C19.8299 31.7857 19.9009 31.7677 19.9671 31.7376L35.6571 23.6432C35.7307 23.6053 35.7962 23.5531 35.8498 23.4896C35.9034 23.4261 35.9441 23.3526 35.9695 23.2732C35.9949 23.1939 36.0046 23.1103 35.998 23.0272C35.9913 22.9441 35.9685 22.8631 35.9309 22.7889L34.784 20.5285C34.7463 20.4543 34.6945 20.3883 34.6315 20.3343C34.5685 20.2803 34.4956 20.2394 34.417 20.2138C34.3383 20.1882 34.2554 20.1785 34.173 20.1853C34.0906 20.192 34.0103 20.215 33.9367 20.253L32.2561 21.1201L26.8075 10.3839C26.7698 10.3097 26.718 10.2437 26.655 10.1898C26.592 10.1358 26.5191 10.0948 26.4404 10.0692C26.3617 10.0436 26.2789 10.0339 26.1965 10.0407C26.1141 10.0474 26.0338 10.0704 25.9602 10.1084L24.2796 10.9755L19.9778 2.49967C19.9404 2.42499 19.8887 2.3585 19.8258 2.30403C19.7628 2.24957 19.6897 2.20819 19.6108 2.18229C19.4519 2.13122 19.2794 2.14513 19.1306 2.22101L10.7254 6.56144L7.57115 0.34532C7.53346 0.271131 7.48165 0.205156 7.41867 0.151161C7.35569 0.097166 7.28278 0.0562086 7.20411 0.0306276C7.12543 0.00504665 7.04253 -0.00465698 6.96014 0.00207076C6.87774 0.00879849 6.79747 0.0318258 6.7239 0.069838L4.48239 1.22635L0 3.54002L0.572809 4.66988ZM5.91378 11.2002C5.59799 10.5311 5.51537 9.7742 5.67931 9.05191C5.84324 8.32961 6.24412 7.68425 6.81706 7.22031L17.6469 28.5638C17.1132 28.2397 16.517 28.0344 15.8982 27.9617C15.2794 27.889 14.6523 27.9506 14.059 28.1423L5.91378 11.2002ZM15.3935 35.5461C14.771 35.5461 14.1625 35.3599 13.6449 35.0112C13.1273 34.6625 12.7239 34.1668 12.4857 33.5869C12.2475 33.0069 12.1852 32.3688 12.3066 31.7532C12.4281 31.1375 12.7278 30.572 13.168 30.1281C13.6081 29.6843 14.1689 29.382 14.7795 29.2596C15.39 29.1371 16.0228 29.1999 16.5979 29.4402C17.173 29.6804 17.6645 30.0872 18.0103 30.6091C18.3562 31.131 18.5408 31.7446 18.5408 32.3723C18.5398 33.2137 18.2079 34.0204 17.6178 34.6154C17.0278 35.2104 16.2279 35.5451 15.3935 35.5461ZM25.9734 11.5277L31.135 21.699L21.0485 26.9039L15.887 16.7327L19.2489 14.9979L21.2556 18.9537C21.3085 19.0578 21.3889 19.1451 21.4878 19.206C21.5868 19.2669 21.7005 19.2991 21.8165 19.299H21.8668C21.9909 19.2888 22.1093 19.2418 22.2068 19.1639C22.3044 19.0859 22.3769 18.9805 22.4151 18.861L22.7695 17.7572L23.8641 18.1139C23.9827 18.153 24.1102 18.1557 24.2304 18.1216C24.3505 18.0875 24.4579 18.0181 24.5388 17.9223C24.6198 17.8265 24.6707 17.7086 24.685 17.5836C24.6994 17.4586 24.6766 17.3321 24.6195 17.2202L22.6121 13.265L25.9734 11.5277ZM21.4898 13.8408L22.8047 16.4318L22.5574 16.3512C22.3985 16.2994 22.2258 16.3134 22.0772 16.3901C21.9285 16.4668 21.8162 16.5998 21.7649 16.76L21.6843 17.0101L20.37 14.419L21.4898 13.8408ZM16.5227 6.83946L16.2747 6.75821C16.1159 6.70668 15.9432 6.72085 15.7947 6.79762C15.6462 6.87439 15.5341 7.00748 15.4828 7.16763L15.4023 7.41772L14.6608 5.95779L15.7812 5.37953L16.5227 6.83946ZM13.5397 6.53478L14.9736 9.36006C15.0264 9.46424 15.1067 9.55168 15.2057 9.61273C15.3047 9.67378 15.4184 9.70606 15.5345 9.706C15.5512 9.70693 15.568 9.70693 15.5848 9.706C15.7088 9.6959 15.8271 9.64897 15.9247 9.57113C16.0223 9.49329 16.0948 9.38803 16.1331 9.26865L16.4868 8.16419L17.5821 8.52092C17.7006 8.55992 17.828 8.56254 17.948 8.52844C18.0681 8.49434 18.1754 8.42505 18.2563 8.32938C18.3372 8.2337 18.3881 8.11594 18.4026 7.99103C18.417 7.86613 18.3944 7.73972 18.3374 7.62782L16.9042 4.8L19.1457 3.64285L23.1585 11.5525L15.3135 15.6022L11.302 7.6913L13.5397 6.53478ZM6.73712 1.48914L20.2139 28.0471C20.29 28.1963 20.4216 28.309 20.5799 28.3606C20.7382 28.4122 20.9103 28.3986 21.0586 28.3226L33.9493 21.6723L34.5234 22.8022L19.9539 30.3208L5.61668 2.0674L6.73712 1.48914Z" fill="#3BCC96"/>
</svg>
