<svg width="98" height="32" viewBox="0 0 98 32" fill="none" xmlns="http://www.w3.org/2000/svg">
<path fill-rule="evenodd" clip-rule="evenodd" d="M28.3459 6.70146C30.6959 4.13534 28.8754 -0.000115377 25.3958 2.41428e-09L4.00004 0.000709473C1.79095 0.000782725 0.000168152 1.79162 0.000168125 4.0007L0.000167847 27.3637C0.000167803 31.0127 4.4857 32.7563 6.9501 30.0652L17.7839 18.2349H0.000248205C0.666586 17.3187 2.54899 14.6866 4.7479 11.4882C6.94682 8.28978 7.9963 9.15602 8.24618 9.98895C9.74544 12.7376 11.1966 11.8085 12.744 7.49018C14.464 2.6901 15.9423 4.91404 16.4663 5.70226C16.4752 5.71561 16.4838 5.72856 16.4921 5.74105L22.4318 13.1596L28.3459 6.70146Z" fill="#3D3D3D"/>
<mask id="mask0_804_6057" style="mask-type:alpha" maskUnits="userSpaceOnUse" x="0" y="0" width="30" height="32">
<path fill-rule="evenodd" clip-rule="evenodd" d="M28.3457 6.70146C30.6957 4.13534 28.8752 -0.000115377 25.3956 2.41428e-09L3.99987 0.000709473C1.79078 0.000782725 3.04943e-07 1.79162 2.78604e-07 4.0007L0 27.3637C-4.35175e-08 31.0127 4.48553 32.7563 6.94993 30.0652L17.7838 18.2349H8.11204e-05C0.666419 17.3187 2.54882 14.6866 4.74774 11.4882C6.94665 8.28978 7.99613 9.15602 8.24601 9.98895C9.74527 12.7376 11.1964 11.8085 12.7438 7.49018C14.4638 2.6901 15.9422 4.91404 16.4661 5.70226C16.475 5.71562 16.4836 5.72856 16.4919 5.74105L22.4316 13.1596L28.3457 6.70146Z" fill="#072F98"/>
</mask>
<g mask="url(#mask0_804_6057)">
<rect y="17.5622" width="19.2348" height="15.8896" fill="#7238ED"/>
<circle cx="8.78108" cy="11.29" r="7.1085" fill="#EF864C"/>
</g>
<path d="M38.7428 6.69037C39.0615 6.69037 39.3866 6.70659 39.718 6.73904C40.0526 6.76825 40.3777 6.82179 40.6932 6.89967C41.0087 6.97431 41.3051 7.07977 41.5823 7.21607C41.8596 7.34911 42.1018 7.51948 42.3089 7.72716C42.5193 7.9316 42.685 8.17822 42.8061 8.46703C42.9272 8.75259 42.9877 9.08846 42.9877 9.47462C42.9877 9.86727 42.9352 10.2129 42.83 10.5114C42.728 10.81 42.583 11.0696 42.395 11.2902C42.2101 11.5109 41.9887 11.6958 41.7305 11.8451C41.4756 11.9911 41.1951 12.1096 40.8892 12.2005C40.5832 12.2881 40.2582 12.3513 39.914 12.3903C39.5698 12.426 39.2177 12.4438 38.8576 12.4438C38.6313 12.4438 38.4066 12.4373 38.1835 12.4244C37.9605 12.4114 37.7358 12.3952 37.5095 12.3757V14.1183H36.324V6.97269C36.3941 6.94997 36.5056 6.92239 36.6586 6.88994C36.8148 6.85749 36.998 6.82666 37.2084 6.79746C37.4219 6.76825 37.6593 6.74391 37.9206 6.72444C38.1819 6.70173 38.456 6.69037 38.7428 6.69037ZM39.087 7.76123C38.8767 7.76123 38.6759 7.77097 38.4847 7.79044C38.2935 7.80666 38.1262 7.82613 37.9828 7.84885C37.8107 7.87481 37.6529 7.90402 37.5095 7.93647V11.2659C37.6115 11.2886 37.7246 11.3081 37.8489 11.3243C37.9541 11.3405 38.0768 11.3551 38.217 11.3681C38.3572 11.3778 38.507 11.3827 38.6663 11.3827C38.8735 11.3827 39.0918 11.3778 39.3212 11.3681C39.5539 11.3551 39.7833 11.3275 40.0096 11.2854C40.2391 11.2432 40.4558 11.1815 40.6597 11.1004C40.8669 11.016 41.0485 10.9057 41.2047 10.7694C41.364 10.6299 41.4899 10.4579 41.5823 10.2534C41.6779 10.049 41.7257 9.80237 41.7257 9.51356C41.7257 9.27342 41.6875 9.0625 41.611 8.88077C41.5345 8.69905 41.431 8.54329 41.3003 8.41349C41.1696 8.28369 41.0167 8.1766 40.8414 8.09223C40.6693 8.00786 40.4845 7.94133 40.2869 7.89266C40.0925 7.84398 39.8917 7.80991 39.6845 7.79044C39.4806 7.77097 39.2814 7.76123 39.087 7.76123Z" fill="black"/>
<path d="M47.0032 8.49137C47.2709 8.49137 47.537 8.50435 47.8015 8.53031C48.0692 8.55627 48.3257 8.59845 48.5711 8.65687C48.8165 8.71528 49.046 8.78829 49.2595 8.87591C49.473 8.96352 49.6578 9.06899 49.814 9.1923C49.9733 9.31561 50.0976 9.45839 50.1869 9.62064C50.2761 9.77965 50.3207 9.95813 50.3207 10.1561V12.6775C50.3207 12.8527 50.2761 13.0133 50.1869 13.1594C50.0976 13.3054 49.9733 13.4368 49.814 13.5536C49.6578 13.6672 49.473 13.7662 49.2595 13.8506C49.046 13.9349 48.8165 14.0047 48.5711 14.0599C48.3257 14.115 48.0692 14.1556 47.8015 14.1816C47.5338 14.2108 47.2677 14.2254 47.0032 14.2254C46.7387 14.2254 46.4726 14.2108 46.2049 14.1816C45.9404 14.1556 45.6854 14.115 45.44 14.0599C45.1946 14.0047 44.9652 13.9349 44.7517 13.8506C44.5413 13.7662 44.3565 13.6672 44.1972 13.5536C44.041 13.4368 43.9183 13.307 43.8291 13.1642C43.7398 13.0182 43.6952 12.856 43.6952 12.6775V10.1561C43.6952 9.95813 43.7398 9.77965 43.8291 9.62064C43.9183 9.45839 44.041 9.31561 44.1972 9.1923C44.3565 9.06899 44.5413 8.96352 44.7517 8.87591C44.9652 8.78829 45.1946 8.71528 45.44 8.65687C45.6854 8.59845 45.9404 8.55627 46.2049 8.53031C46.4726 8.50435 46.7387 8.49137 47.0032 8.49137ZM44.9094 12.366C44.9094 12.5152 44.97 12.645 45.0911 12.7554C45.2154 12.8624 45.3763 12.9533 45.5739 13.0279C45.7715 13.0993 45.9945 13.1529 46.2431 13.1886C46.4949 13.2243 46.7482 13.2421 47.0032 13.2421C47.2709 13.2421 47.529 13.2226 47.7776 13.1837C48.0294 13.1448 48.2524 13.0896 48.4468 13.0182C48.6412 12.9436 48.7958 12.8527 48.9105 12.7456C49.0284 12.6353 49.0874 12.5087 49.0874 12.366V10.341C49.0874 10.2015 49.0284 10.0766 48.9105 9.96624C48.7958 9.85266 48.6412 9.75856 48.4468 9.68392C48.2524 9.60604 48.0294 9.54763 47.7776 9.50869C47.529 9.4665 47.2709 9.44541 47.0032 9.44541C46.7482 9.44541 46.4949 9.46488 46.2431 9.50382C45.9945 9.53952 45.7715 9.59468 45.5739 9.66932C45.3763 9.74395 45.2154 9.83806 45.0911 9.95164C44.97 10.062 44.9094 10.1918 44.9094 10.341V12.366Z" fill="black"/>
<path d="M54.5178 8.57898C54.8971 8.57898 55.2667 8.60332 55.6269 8.652C55.987 8.69743 56.3104 8.77693 56.5972 8.89051C56.8841 9.00084 57.1199 9.15173 57.3047 9.34319C57.4896 9.53465 57.5995 9.77316 57.6346 10.0587L56.5255 10.3702C56.5255 10.2015 56.4682 10.062 56.3535 9.95164C56.2419 9.83806 56.0921 9.75045 55.9041 9.68879C55.7193 9.62389 55.5057 9.57846 55.2635 9.5525C55.0213 9.52654 54.7728 9.51356 54.5178 9.51356C54.2724 9.51356 54.0286 9.52654 53.7864 9.5525C53.5474 9.57521 53.3323 9.61902 53.1411 9.68392C52.9531 9.74558 52.8001 9.83157 52.6822 9.9419C52.5675 10.0522 52.5101 10.195 52.5101 10.3702V10.9641H57.6346V12.6483C57.6346 12.8397 57.5931 13.0101 57.5103 13.1594C57.4274 13.3054 57.3127 13.4336 57.1661 13.5439C57.0195 13.651 56.8458 13.7435 56.6451 13.8214C56.4475 13.896 56.2324 13.956 55.9997 14.0015C55.7703 14.0469 55.5281 14.0793 55.2731 14.0988C55.0213 14.1183 54.7696 14.128 54.5178 14.128C54.1322 14.128 53.7593 14.1053 53.3992 14.0599C53.0391 14.0112 52.7156 13.9317 52.4288 13.8214C52.142 13.7078 51.9062 13.5569 51.7213 13.3687C51.5397 13.1772 51.4329 12.9371 51.4011 12.6483L52.5101 12.3367C52.5101 12.5152 52.5675 12.6596 52.6822 12.77C52.8001 12.8803 52.9531 12.9663 53.1411 13.0279C53.3323 13.0896 53.5474 13.1318 53.7864 13.1545C54.0286 13.174 54.2724 13.1837 54.5178 13.1837C54.7728 13.1837 55.0213 13.1723 55.2635 13.1496C55.5057 13.1237 55.7193 13.0799 55.9041 13.0182C56.0921 12.9533 56.2419 12.8673 56.3535 12.7602C56.4682 12.6499 56.5255 12.5087 56.5255 12.3367V11.7429H51.4011V10.0587C51.4011 9.86727 51.4425 9.69852 51.5254 9.5525C51.6082 9.40323 51.7213 9.27505 51.8648 9.16796C52.0113 9.05763 52.1834 8.96514 52.381 8.89051C52.5786 8.81263 52.7921 8.75097 53.0216 8.70554C53.2542 8.66011 53.4964 8.62766 53.7482 8.60819C54.0031 8.58872 54.2597 8.57898 54.5178 8.57898Z" fill="black"/>
<path d="M60.5697 8.51084H61.7839V9.32859H60.5697V14.128H59.432V9.32859H58.5333V8.51084H59.432V6.81693H60.5697V8.51084Z" fill="black"/>
<path d="M66.1913 8.57898C66.3538 8.57898 66.5498 8.5871 66.7793 8.60332C67.0087 8.61955 67.2462 8.64875 67.4916 8.69094C67.7401 8.72988 67.9855 8.78667 68.2277 8.8613C68.4699 8.93269 68.6866 9.02518 68.8778 9.13875C69.0722 9.25233 69.2284 9.39025 69.3463 9.5525C69.4674 9.7115 69.528 9.89972 69.528 10.1171V11.7624H64.0497V13.0085C64.4354 13.0636 64.8066 13.1026 65.1635 13.1253C65.5205 13.1448 65.8631 13.1545 66.1913 13.1545C66.6917 13.1545 67.1442 13.135 67.5489 13.0961C67.9568 13.0571 68.309 13.0133 68.6054 12.9647C68.9464 12.9095 69.2539 12.8462 69.528 12.7748V13.8554C68.9225 13.9528 68.3377 14.0225 67.7736 14.0647C67.2127 14.1069 66.6853 14.128 66.1913 14.128C65.6942 14.128 65.2432 14.115 64.8385 14.0891C64.4338 14.0599 64.0864 14.0274 63.7964 13.9917C63.4586 13.9528 63.1542 13.9073 62.8833 13.8554V10.1171C62.8833 9.89972 62.9359 9.7115 63.0411 9.5525C63.1463 9.39025 63.2865 9.25233 63.4618 9.13875C63.637 9.02518 63.8378 8.93269 64.0641 8.8613C64.2935 8.78667 64.531 8.72988 64.7763 8.69094C65.0217 8.64875 65.2655 8.61955 65.5077 8.60332C65.7531 8.5871 65.981 8.57898 66.1913 8.57898ZM64.0497 10.9836H68.3424V10.4189C68.3424 10.2859 68.3106 10.1723 68.2468 10.0782C68.1831 9.98084 68.0971 9.89972 67.9887 9.83482C67.8835 9.76992 67.7593 9.71799 67.6158 9.67905C67.4756 9.63687 67.329 9.60604 67.1761 9.58657C67.0231 9.56385 66.8685 9.54925 66.7124 9.54276C66.5594 9.53627 66.4144 9.53303 66.2774 9.53303C66.1339 9.53303 65.9794 9.53627 65.8137 9.54276C65.6511 9.54925 65.487 9.56385 65.3213 9.58657C65.1556 9.60929 64.9962 9.64174 64.8433 9.68392C64.6903 9.72286 64.5549 9.77641 64.4369 9.84455C64.319 9.90945 64.225 9.99058 64.1549 10.0879C64.0848 10.182 64.0497 10.2956 64.0497 10.4287V10.9836Z" fill="black"/>
<path d="M71.1533 10.1074C71.1405 10.0036 71.1102 9.91594 71.0624 9.84455C71.0178 9.77316 70.9684 9.71475 70.9142 9.66932C70.8537 9.61415 70.7868 9.56872 70.7135 9.53303L71.2489 8.57898C71.3668 8.62117 71.4847 8.67796 71.6026 8.74935C71.7014 8.811 71.805 8.89051 71.9133 8.98786C72.0249 9.08197 72.1221 9.19879 72.2049 9.33832C72.3643 9.23448 72.5268 9.13713 72.6925 9.04627C72.8614 8.95216 73.0367 8.87104 73.2184 8.80289C73.4032 8.73475 73.596 8.6812 73.7968 8.64226C74.0007 8.60008 74.219 8.57898 74.4517 8.57898C74.9425 8.57898 75.3631 8.62117 75.7137 8.70554C76.0674 8.78667 76.3558 8.90998 76.5789 9.07548C76.8052 9.23773 76.9709 9.44054 77.0761 9.68392C77.1812 9.9273 77.2338 10.2112 77.2338 10.5357V14.128H75.9814V10.8375C75.9814 10.6558 75.9575 10.5001 75.9097 10.3702C75.8619 10.2372 75.7965 10.1252 75.7137 10.0344C75.634 9.94028 75.54 9.86402 75.4316 9.80561C75.3233 9.7472 75.2101 9.70339 75.0922 9.67419C74.9775 9.64174 74.8596 9.62064 74.7385 9.61091C74.6174 9.59793 74.5027 9.59144 74.3943 9.59144C74.1903 9.59144 73.9959 9.60604 73.8111 9.63525C73.6263 9.66445 73.451 9.70501 73.2853 9.75694C73.1196 9.80561 72.9634 9.86402 72.8168 9.93217C72.6702 10.0003 72.5332 10.0717 72.4057 10.1463V14.128H71.1533V10.1074Z" fill="black"/>
<path d="M84.1174 12.142C84.0378 12.0707 83.939 12.0009 83.8211 11.9327C83.7031 11.8646 83.5581 11.8046 83.3861 11.7526C83.214 11.6975 83.0084 11.6537 82.7694 11.6212C82.5336 11.5855 82.2563 11.5677 81.9376 11.5677C81.654 11.5677 81.3847 11.5742 81.1298 11.5871C80.878 11.5969 80.6565 11.6293 80.4653 11.6845C80.2741 11.7364 80.1227 11.8208 80.0112 11.9376C79.8996 12.0544 79.8439 12.2167 79.8439 12.4244V13.0474C80.1243 13.0928 80.4334 13.1302 80.7712 13.1594C81.109 13.1886 81.4851 13.2032 81.8994 13.2032C82.2308 13.2032 82.583 13.1918 82.9558 13.1691C83.3319 13.1431 83.7191 13.0928 84.1174 13.0182V12.142ZM81.9663 8.57898C82.1256 8.57898 82.3185 8.5871 82.5447 8.60332C82.771 8.61955 83.0068 8.64875 83.2522 8.69094C83.4976 8.72988 83.7398 8.78504 83.9788 8.85644C84.221 8.92458 84.4377 9.01544 84.6289 9.12902C84.8233 9.23935 84.9795 9.3724 85.0974 9.52816C85.2153 9.68392 85.2743 9.86727 85.2743 10.0782V13.8457C85.0066 13.9009 84.7038 13.9479 84.366 13.9868C84.076 14.0225 83.7302 14.055 83.3287 14.0842C82.9271 14.1134 82.4794 14.128 81.9854 14.128C81.4946 14.128 80.972 14.1069 80.4175 14.0647C79.8662 14.0225 79.2893 13.9495 78.687 13.8457V12.0934C78.687 11.9052 78.73 11.7413 78.8161 11.6017C78.9053 11.459 79.0264 11.3373 79.1794 11.2367C79.3324 11.1361 79.5124 11.0533 79.7196 10.9884C79.9267 10.9235 80.1498 10.8716 80.3888 10.8327C80.6278 10.7937 80.8764 10.7678 81.1345 10.7548C81.3927 10.7386 81.6508 10.7304 81.9089 10.7304C82.3009 10.7304 82.634 10.7564 82.908 10.8083C83.1853 10.857 83.4147 10.9105 83.5964 10.969C83.8067 11.0403 83.9804 11.1199 84.1174 11.2075V10.4189C84.1174 10.2859 84.0856 10.1723 84.0218 10.0782C83.9581 9.98084 83.8721 9.89972 83.7637 9.83482C83.6553 9.76667 83.5311 9.71313 83.3908 9.67419C83.2506 9.632 83.104 9.59955 82.951 9.57684C82.7981 9.55412 82.6419 9.53952 82.4826 9.53303C82.3264 9.52654 82.1798 9.52329 82.0428 9.52329C81.8994 9.52329 81.7464 9.52816 81.5839 9.53789C81.4213 9.54438 81.2588 9.55899 81.0963 9.5817C80.9369 9.60442 80.7824 9.63687 80.6326 9.67905C80.486 9.71799 80.3553 9.77154 80.2406 9.83968C80.1259 9.90783 80.0335 9.99058 79.9634 10.0879C79.8964 10.182 79.863 10.2956 79.863 10.4287L78.6775 10.1171C78.6775 9.89972 78.73 9.7115 78.8352 9.5525C78.9404 9.39025 79.079 9.25233 79.2511 9.13875C79.4264 9.02518 79.6271 8.93269 79.8534 8.8613C80.0797 8.78667 80.3139 8.72988 80.5561 8.69094C80.8015 8.64875 81.0453 8.61955 81.2875 8.60332C81.5297 8.5871 81.756 8.57898 81.9663 8.57898Z" fill="black"/>
<path d="M39.4981 16.5521C39.9793 16.5521 40.4351 16.5959 40.8653 16.6835C41.2955 16.7679 41.67 16.8879 41.9887 17.0437C42.3105 17.1994 42.5655 17.386 42.7535 17.6035C42.9415 17.8176 43.0355 18.0545 43.0355 18.3141V19.1708H41.7735V18.6938C41.7735 18.5542 41.721 18.4212 41.6158 18.2946C41.5106 18.1648 41.3592 18.0529 41.1617 17.9588C40.9673 17.8614 40.7298 17.7852 40.4494 17.73C40.169 17.6716 39.8519 17.6424 39.4981 17.6424C39.1571 17.6424 38.8464 17.67 38.566 17.7251C38.2855 17.7771 38.0449 17.8501 37.8441 17.9442C37.6434 18.0383 37.4872 18.1502 37.3757 18.28C37.2673 18.4066 37.2131 18.5445 37.2131 18.6938V22.1303C37.2131 22.2731 37.2673 22.4077 37.3757 22.5343C37.4872 22.6609 37.6434 22.7712 37.8441 22.8653C38.0449 22.9562 38.2855 23.0292 38.566 23.0843C38.8464 23.1363 39.1571 23.1622 39.4981 23.1622C39.8519 23.1622 40.169 23.1346 40.4494 23.0795C40.7298 23.0211 40.9673 22.9448 41.1617 22.8507C41.3592 22.7566 41.5106 22.6479 41.6158 22.5246C41.721 22.398 41.7735 22.2666 41.7735 22.1303V21.6435H43.0355V22.5002C43.0355 22.6722 42.9925 22.8361 42.9065 22.9918C42.8204 23.1444 42.6993 23.2855 42.5432 23.4153C42.3902 23.5451 42.2054 23.6619 41.9887 23.7658C41.7751 23.8664 41.5361 23.954 41.2716 24.0286C41.0103 24.1 40.7298 24.1552 40.4303 24.1941C40.1307 24.2331 39.82 24.2525 39.4981 24.2525C39.1762 24.2525 38.8655 24.2331 38.566 24.1941C38.2664 24.1552 37.9844 24.1 37.7198 24.0286C37.4585 23.954 37.2195 23.8664 37.0028 23.7658C36.7893 23.6619 36.6044 23.5451 36.4483 23.4153C36.2953 23.2855 36.1758 23.1444 36.0898 22.9918C36.0037 22.8361 35.9607 22.6722 35.9607 22.5002V18.3141C35.9607 18.1421 36.0037 17.9783 36.0898 17.8225C36.1758 17.6667 36.2953 17.5239 36.4483 17.3941C36.6044 17.2643 36.7893 17.1475 37.0028 17.0437C37.2195 16.9398 37.4585 16.8522 37.7198 16.7808C37.9844 16.7062 38.2664 16.6494 38.566 16.6105C38.8655 16.5715 39.1762 16.5521 39.4981 16.5521Z" fill="black"/>
<path d="M48.552 18.5478C48.552 18.8852 48.5409 19.2373 48.5185 19.604C48.4962 19.9675 48.4532 20.3423 48.3895 20.7284H47.2326C47.2613 20.6181 47.2884 20.498 47.3139 20.3682C47.333 20.2579 47.3506 20.1297 47.3665 19.9837C47.3856 19.8344 47.3952 19.677 47.3952 19.5115C47.1147 19.518 46.8821 19.5456 46.6972 19.5943C46.5156 19.6397 46.3642 19.6949 46.2431 19.7598C46.122 19.8214 46.0232 19.8847 45.9467 19.9496C45.8703 20.0145 45.8017 20.0664 45.7412 20.1054V24.0968H44.5174V20.0762C44.5047 19.9723 44.4744 19.8847 44.4266 19.8133C44.382 19.7419 44.3342 19.6835 44.2832 19.6381C44.2258 19.5829 44.1605 19.5375 44.0872 19.5018L44.5939 18.5478C44.7118 18.5899 44.8282 18.6467 44.9429 18.7181C45.0417 18.7798 45.1452 18.8593 45.2536 18.9566C45.3651 19.0507 45.4639 19.1676 45.55 19.3071C45.7125 19.1935 45.8623 19.0978 45.9993 19.0199C46.1364 18.9388 46.2686 18.8706 46.3961 18.8155C46.5268 18.7603 46.6606 18.7181 46.7976 18.6889C46.9379 18.6565 47.0908 18.6305 47.2565 18.611C47.4254 18.5916 47.6135 18.5786 47.8206 18.5721C48.031 18.5624 48.2747 18.5542 48.552 18.5478Z" fill="black"/>
<path d="M49.9574 20.0762C49.9447 19.9723 49.9144 19.8847 49.8666 19.8133C49.822 19.7419 49.7726 19.6835 49.7184 19.6381C49.6578 19.5829 49.5909 19.5375 49.5176 19.5018L50.053 18.5478C50.1709 18.5899 50.2888 18.6467 50.4068 18.7181C50.5056 18.7798 50.6091 18.8593 50.7175 18.9566C50.829 19.0507 50.9262 19.1676 51.0091 19.3071C51.1684 19.2033 51.331 19.1059 51.4967 19.015C51.6656 18.9209 51.8409 18.8398 52.0225 18.7717C52.2073 18.7035 52.4001 18.65 52.6009 18.611C52.8049 18.5689 53.0232 18.5478 53.2558 18.5478C53.7466 18.5478 54.1673 18.5899 54.5178 18.6743C54.8716 18.7554 55.16 18.8788 55.3831 19.0443C55.6093 19.2065 55.775 19.4093 55.8802 19.6527C55.9854 19.8961 56.038 20.18 56.038 20.5045V24.0968H54.7855V20.8063C54.7855 20.6246 54.7616 20.4688 54.7138 20.339C54.666 20.206 54.6007 20.094 54.5178 20.0032C54.4381 19.9091 54.3441 19.8328 54.2358 19.7744C54.1274 19.716 54.0143 19.6722 53.8964 19.643C53.7817 19.6105 53.6637 19.5894 53.5426 19.5797C53.4215 19.5667 53.3068 19.5602 53.1985 19.5602C52.9945 19.5602 52.8001 19.5748 52.6153 19.604C52.4304 19.6332 52.2551 19.6738 52.0894 19.7257C51.9237 19.7744 51.7676 19.8328 51.621 19.9009C51.4744 19.9691 51.3373 20.0405 51.2099 20.1151V24.0968H49.9574V20.0762Z" fill="black"/>
<path d="M62.9216 22.1108C62.8419 22.0394 62.7431 21.9697 62.6252 21.9015C62.5073 21.8334 62.3623 21.7733 62.1902 21.7214C62.0181 21.6662 61.8126 21.6224 61.5735 21.59C61.3377 21.5543 61.0605 21.5364 60.7418 21.5364C60.4581 21.5364 60.1888 21.5429 59.9339 21.5559C59.6821 21.5656 59.4606 21.5981 59.2694 21.6533C59.0782 21.7052 58.9268 21.7896 58.8153 21.9064C58.7038 22.0232 58.648 22.1855 58.648 22.3931V23.0162C58.9284 23.0616 59.2376 23.0989 59.5754 23.1281C59.9132 23.1573 60.2892 23.1719 60.7035 23.1719C61.035 23.1719 61.3871 23.1606 61.76 23.1379C62.136 23.1119 62.5232 23.0616 62.9216 22.987V22.1108ZM60.7705 18.5478C60.9298 18.5478 61.1226 18.5559 61.3489 18.5721C61.5751 18.5883 61.811 18.6175 62.0564 18.6597C62.3017 18.6987 62.5439 18.7538 62.783 18.8252C63.0252 18.8934 63.2419 18.9842 63.4331 19.0978C63.6275 19.2081 63.7836 19.3412 63.9016 19.4969C64.0195 19.6527 64.0784 19.836 64.0784 20.047V23.8145C63.8107 23.8696 63.508 23.9167 63.1702 23.9556C62.8802 23.9913 62.5344 24.0238 62.1328 24.053C61.7313 24.0822 61.2835 24.0968 60.7896 24.0968C60.2988 24.0968 59.7761 24.0757 59.2216 24.0335C58.6703 23.9913 58.0935 23.9183 57.4912 23.8145V22.0621C57.4912 21.8739 57.5342 21.7101 57.6202 21.5705C57.7095 21.4277 57.8306 21.306 57.9835 21.2055C58.1365 21.1049 58.3166 21.0221 58.5237 20.9572C58.7309 20.8923 58.9539 20.8404 59.193 20.8014C59.432 20.7625 59.6805 20.7365 59.9387 20.7236C60.1968 20.7073 60.455 20.6992 60.7131 20.6992C61.1051 20.6992 61.4381 20.7252 61.7122 20.7771C61.9894 20.8258 62.2189 20.8793 62.4005 20.9377C62.6109 21.0091 62.7846 21.0886 62.9216 21.1762V20.3877C62.9216 20.2547 62.8897 20.1411 62.826 20.047C62.7622 19.9496 62.6762 19.8685 62.5678 19.8036C62.4595 19.7354 62.3352 19.6819 62.195 19.643C62.0548 19.6008 61.9082 19.5683 61.7552 19.5456C61.6022 19.5229 61.4461 19.5083 61.2867 19.5018C61.1306 19.4953 60.984 19.4921 60.8469 19.4921C60.7035 19.4921 60.5506 19.4969 60.388 19.5067C60.2255 19.5132 60.063 19.5278 59.9004 19.5505C59.7411 19.5732 59.5865 19.6056 59.4367 19.6478C59.2902 19.6868 59.1595 19.7403 59.0448 19.8085C58.93 19.8766 58.8376 19.9594 58.7675 20.0567C58.7006 20.1508 58.6671 20.2644 58.6671 20.3974L57.4816 20.0859C57.4816 19.8685 57.5342 19.6803 57.6394 19.5213C57.7445 19.359 57.8832 19.2211 58.0552 19.1075C58.2305 18.994 58.4313 18.9015 58.6576 18.8301C58.8838 18.7554 59.1181 18.6987 59.3603 18.6597C59.6057 18.6175 59.8494 18.5883 60.0917 18.5721C60.3339 18.5559 60.5601 18.5478 60.7705 18.5478Z" fill="black"/>
<path d="M73.2279 16.6786C73.7091 16.6786 74.1633 16.7224 74.5903 16.81C75.0173 16.8977 75.3902 17.0193 75.7089 17.1751C76.0308 17.3309 76.2857 17.5175 76.4737 17.7349C76.6618 17.9523 76.7558 18.1908 76.7558 18.4504V19.239H75.5129V18.8203C75.5129 18.6808 75.4603 18.5478 75.3551 18.4212C75.25 18.2946 75.0986 18.1827 74.901 18.0853C74.7066 17.988 74.4676 17.9117 74.184 17.8566C73.9035 17.7982 73.5848 17.7689 73.2279 17.7689C72.8837 17.7689 72.5714 17.7965 72.291 17.8517C72.0105 17.9069 71.7699 17.9815 71.5692 18.0756C71.3684 18.1697 71.2138 18.2817 71.1055 18.4115C70.9971 18.538 70.9429 18.6743 70.9429 18.8203V21.9745C70.9429 22.1173 70.9971 22.2536 71.1055 22.3834C71.2138 22.51 71.3684 22.6219 71.5692 22.7193C71.7699 22.8134 72.0105 22.888 72.291 22.9432C72.5714 22.9983 72.8837 23.0259 73.2279 23.0259C73.5848 23.0259 73.9035 22.9983 74.184 22.9432C74.4676 22.8848 74.7066 22.8069 74.901 22.7095C75.0986 22.6122 75.25 22.5002 75.3551 22.3737C75.4603 22.2471 75.5129 22.1141 75.5129 21.9745V21.2736C75.2165 21.2736 74.9504 21.2817 74.7146 21.2979C74.4819 21.3142 74.2828 21.3304 74.1171 21.3466C73.9227 21.3693 73.7506 21.3937 73.6008 21.4196L73.7251 20.2417C74.2127 20.2027 74.6716 20.1833 75.1018 20.1833C75.6786 20.1833 76.2299 20.2125 76.7558 20.2709V22.3445C76.7558 22.6041 76.6618 22.8426 76.4737 23.06C76.2857 23.2742 76.0308 23.4591 75.7089 23.6149C75.3902 23.7707 75.0173 23.8923 74.5903 23.98C74.1633 24.0643 73.7091 24.1065 73.2279 24.1065C72.7467 24.1065 72.2926 24.0643 71.8655 23.98C71.4385 23.8923 71.064 23.7707 70.7422 23.6149C70.4235 23.4591 70.1701 23.2742 69.9821 23.06C69.7941 22.8426 69.7001 22.6041 69.7001 22.3445V18.4504C69.7001 18.1908 69.7941 17.9523 69.9821 17.7349C70.1701 17.5175 70.4235 17.3309 70.7422 17.1751C71.064 17.0193 71.4385 16.8977 71.8655 16.81C72.2926 16.7224 72.7467 16.6786 73.2279 16.6786Z" fill="black"/>
<path d="M81.3353 18.4601C81.603 18.4601 81.8691 18.4731 82.1336 18.4991C82.4013 18.525 82.6579 18.5672 82.9032 18.6256C83.1486 18.6841 83.3781 18.7571 83.5916 18.8447C83.8051 18.9323 83.99 19.0378 84.1461 19.1611C84.3055 19.2844 84.4298 19.4272 84.519 19.5894C84.6082 19.7484 84.6528 19.9269 84.6528 20.1249V22.6462C84.6528 22.8215 84.6082 22.9821 84.519 23.1281C84.4298 23.2742 84.3055 23.4056 84.1461 23.5224C83.99 23.636 83.8051 23.735 83.5916 23.8193C83.3781 23.9037 83.1486 23.9735 82.9032 24.0286C82.6579 24.0838 82.4013 24.1244 82.1336 24.1503C81.8659 24.1795 81.5998 24.1941 81.3353 24.1941C81.0708 24.1941 80.8047 24.1795 80.537 24.1503C80.2725 24.1244 80.0175 24.0838 79.7721 24.0286C79.5268 23.9735 79.2973 23.9037 79.0838 23.8193C78.8735 23.735 78.6886 23.636 78.5293 23.5224C78.3731 23.4056 78.2504 23.2758 78.1612 23.133C78.072 22.987 78.0273 22.8247 78.0273 22.6462V20.1249C78.0273 19.9269 78.072 19.7484 78.1612 19.5894C78.2504 19.4272 78.3731 19.2844 78.5293 19.1611C78.6886 19.0378 78.8735 18.9323 79.0838 18.8447C79.2973 18.7571 79.5268 18.6841 79.7721 18.6256C80.0175 18.5672 80.2725 18.525 80.537 18.4991C80.8047 18.4731 81.0708 18.4601 81.3353 18.4601ZM79.2415 22.3347C79.2415 22.484 79.3021 22.6138 79.4232 22.7241C79.5475 22.8312 79.7084 22.9221 79.906 22.9967C80.1036 23.0681 80.3267 23.1216 80.5752 23.1573C80.827 23.193 81.0804 23.2109 81.3353 23.2109C81.603 23.2109 81.8611 23.1914 82.1097 23.1525C82.3615 23.1135 82.5846 23.0584 82.779 22.987C82.9734 22.9123 83.1279 22.8215 83.2426 22.7144C83.3606 22.6041 83.4195 22.4775 83.4195 22.3347V20.3098C83.4195 20.1703 83.3606 20.0453 83.2426 19.935C83.1279 19.8214 82.9734 19.7273 82.779 19.6527C82.5846 19.5748 82.3615 19.5164 82.1097 19.4775C81.8611 19.4353 81.603 19.4142 81.3353 19.4142C81.0804 19.4142 80.827 19.4337 80.5752 19.4726C80.3267 19.5083 80.1036 19.5635 79.906 19.6381C79.7084 19.7127 79.5475 19.8068 79.4232 19.9204C79.3021 20.0307 79.2415 20.1605 79.2415 20.3098V22.3347Z" fill="black"/>
<path d="M90.0641 18.5478C90.0641 18.8852 90.053 19.2373 90.0307 19.604C90.0084 19.9675 89.9653 20.3423 89.9016 20.7284H88.7448C88.7735 20.6181 88.8005 20.498 88.826 20.3682C88.8452 20.2579 88.8627 20.1297 88.8786 19.9837C88.8977 19.8344 88.9073 19.677 88.9073 19.5115C88.6269 19.518 88.3942 19.5456 88.2094 19.5943C88.0277 19.6397 87.8764 19.6949 87.7552 19.7598C87.6341 19.8214 87.5354 19.8847 87.4589 19.9496C87.3824 20.0145 87.3139 20.0664 87.2533 20.1054V24.0968H86.0296V20.0762C86.0168 19.9723 85.9865 19.8847 85.9387 19.8133C85.8941 19.7419 85.8463 19.6835 85.7953 19.6381C85.738 19.5829 85.6726 19.5375 85.5993 19.5018L86.106 18.5478C86.224 18.5899 86.3403 18.6467 86.455 18.7181C86.5538 18.7798 86.6574 18.8593 86.7657 18.9566C86.8773 19.0507 86.9761 19.1676 87.0621 19.3071C87.2246 19.1935 87.3744 19.0978 87.5115 19.0199C87.6485 18.9388 87.7807 18.8706 87.9082 18.8155C88.0389 18.7603 88.1727 18.7181 88.3098 18.6889C88.45 18.6565 88.603 18.6305 88.7687 18.611C88.9376 18.5916 89.1256 18.5786 89.3327 18.5721C89.5431 18.5624 89.7869 18.5542 90.0641 18.5478Z" fill="black"/>
<path d="M96.6896 22.1108C96.61 22.0394 96.5112 21.9697 96.3932 21.9015C96.2753 21.8334 96.1303 21.7733 95.9582 21.7214C95.7862 21.6662 95.5806 21.6224 95.3416 21.59C95.1058 21.5543 94.8285 21.5364 94.5098 21.5364C94.2262 21.5364 93.9569 21.5429 93.7019 21.5559C93.4502 21.5656 93.2287 21.5981 93.0375 21.6533C92.8463 21.7052 92.6949 21.7896 92.5834 21.9064C92.4718 22.0232 92.416 22.1855 92.416 22.3931V23.0162C92.6965 23.0616 93.0056 23.0989 93.3434 23.1281C93.6812 23.1573 94.0573 23.1719 94.4716 23.1719C94.803 23.1719 95.1552 23.1606 95.528 23.1379C95.9041 23.1119 96.2913 23.0616 96.6896 22.987V22.1108ZM94.5385 18.5478C94.6978 18.5478 94.8906 18.5559 95.1169 18.5721C95.3432 18.5883 95.579 18.6175 95.8244 18.6597C96.0698 18.6987 96.312 18.7538 96.551 18.8252C96.7932 18.8934 97.0099 18.9842 97.2011 19.0978C97.3955 19.2081 97.5517 19.3412 97.6696 19.4969C97.7875 19.6527 97.8465 19.836 97.8465 20.047V23.8145C97.5788 23.8696 97.276 23.9167 96.9382 23.9556C96.6482 23.9913 96.3024 24.0238 95.9009 24.053C95.4993 24.0822 95.0516 24.0968 94.5576 24.0968C94.0668 24.0968 93.5442 24.0757 92.9897 24.0335C92.4384 23.9913 91.8615 23.9183 91.2592 23.8145V22.0621C91.2592 21.8739 91.3022 21.7101 91.3883 21.5705C91.4775 21.4277 91.5986 21.306 91.7516 21.2055C91.9045 21.1049 92.0846 21.0221 92.2918 20.9572C92.4989 20.8923 92.722 20.8404 92.961 20.8014C93.2 20.7625 93.4486 20.7365 93.7067 20.7236C93.9649 20.7073 94.223 20.6992 94.4811 20.6992C94.8731 20.6992 95.2061 20.7252 95.4802 20.7771C95.7575 20.8258 95.9869 20.8793 96.1686 20.9377C96.3789 21.0091 96.5526 21.0886 96.6896 21.1762V20.3877C96.6896 20.2547 96.6578 20.1411 96.594 20.047C96.5303 19.9496 96.4442 19.8685 96.3359 19.8036C96.2275 19.7354 96.1032 19.6819 95.963 19.643C95.8228 19.6008 95.6762 19.5683 95.5232 19.5456C95.3703 19.5229 95.2141 19.5083 95.0548 19.5018C94.8986 19.4953 94.752 19.4921 94.615 19.4921C94.4716 19.4921 94.3186 19.4969 94.1561 19.5067C93.9935 19.5132 93.831 19.5278 93.6685 19.5505C93.5091 19.5732 93.3546 19.6056 93.2048 19.6478C93.0582 19.6868 92.9275 19.7403 92.8128 19.8085C92.6981 19.8766 92.6057 19.9594 92.5355 20.0567C92.4686 20.1508 92.4352 20.2644 92.4352 20.3974L91.2496 20.0859C91.2496 19.8685 91.3022 19.6803 91.4074 19.5213C91.5126 19.359 91.6512 19.2211 91.8233 19.1075C91.9986 18.994 92.1993 18.9015 92.4256 18.8301C92.6519 18.7554 92.8861 18.6987 93.1283 18.6597C93.3737 18.6175 93.6175 18.5883 93.8597 18.5721C94.1019 18.5559 94.3282 18.5478 94.5385 18.5478Z" fill="black"/>
</svg>
