<svg width="502" height="381" viewBox="0 0 502 381" fill="none" xmlns="http://www.w3.org/2000/svg">

<rect x="104" y="28" width="57" height="16" rx="4" fill="#F2F2F2"/>
<rect x="171" y="28" width="115" height="16" rx="4" fill="#F2F2F2"/>
<g filter="url(#filter0_d_330_5137)">
<rect x="104" y="59" width="119" height="109" rx="8" fill="white"/>
</g>
<circle cx="126" cy="81" r="8.5" stroke="#7238ED" stroke-width="3"/>
<path d="M124.812 112.047V122H123.485L118.475 114.323V122H117.155V112.047H118.475L123.506 119.744V112.047H124.812ZM130.027 122.137C129.512 122.137 129.045 122.05 128.626 121.877C128.211 121.699 127.854 121.451 127.553 121.132C127.257 120.813 127.029 120.435 126.869 119.997C126.71 119.56 126.63 119.081 126.63 118.562V118.274C126.63 117.673 126.719 117.137 126.896 116.668C127.074 116.194 127.316 115.793 127.621 115.465C127.926 115.137 128.273 114.888 128.66 114.72C129.048 114.551 129.449 114.467 129.863 114.467C130.392 114.467 130.848 114.558 131.23 114.74C131.618 114.923 131.935 115.178 132.181 115.506C132.427 115.829 132.609 116.212 132.728 116.654C132.846 117.092 132.905 117.57 132.905 118.09V118.657H127.382V117.625H131.641V117.529C131.622 117.201 131.554 116.882 131.436 116.572C131.322 116.262 131.139 116.007 130.889 115.807C130.638 115.606 130.296 115.506 129.863 115.506C129.576 115.506 129.312 115.567 129.07 115.69C128.829 115.809 128.621 115.987 128.448 116.224C128.275 116.461 128.141 116.75 128.045 117.092C127.949 117.434 127.901 117.828 127.901 118.274V118.562C127.901 118.912 127.949 119.243 128.045 119.553C128.145 119.858 128.289 120.127 128.476 120.359C128.667 120.592 128.897 120.774 129.166 120.906C129.439 121.038 129.749 121.104 130.096 121.104C130.542 121.104 130.921 121.013 131.23 120.831C131.54 120.649 131.812 120.405 132.044 120.1L132.81 120.708C132.65 120.95 132.447 121.18 132.201 121.398C131.955 121.617 131.652 121.795 131.292 121.932C130.937 122.068 130.515 122.137 130.027 122.137ZM136.255 120.688L138.155 114.604H138.989L138.825 115.813L136.891 122H136.077L136.255 120.688ZM134.977 114.604L136.597 120.756L136.713 122H135.858L133.712 114.604H134.977ZM140.808 120.708L142.353 114.604H143.61L141.464 122H140.616L140.808 120.708ZM139.174 114.604L141.033 120.585L141.245 122H140.438L138.449 115.8L138.285 114.604H139.174ZM148.416 114.604H149.688V122.882C149.688 123.333 149.615 123.716 149.469 124.03C149.327 124.345 149.113 124.582 148.826 124.741C148.544 124.905 148.186 124.987 147.753 124.987C147.639 124.987 147.507 124.976 147.356 124.953C147.201 124.93 147.072 124.903 146.967 124.871L146.974 123.853C147.06 123.871 147.158 123.884 147.268 123.894C147.377 123.907 147.473 123.914 147.555 123.914C147.742 123.914 147.899 123.88 148.026 123.812C148.154 123.743 148.25 123.634 148.313 123.483C148.382 123.333 148.416 123.132 148.416 122.882V114.604ZM148.286 112.642C148.286 112.437 148.35 112.263 148.478 112.122C148.605 111.981 148.79 111.91 149.031 111.91C149.277 111.91 149.464 111.981 149.592 112.122C149.719 112.263 149.783 112.437 149.783 112.642C149.783 112.838 149.719 113.006 149.592 113.147C149.464 113.284 149.277 113.353 149.031 113.353C148.79 113.353 148.605 113.284 148.478 113.147C148.35 113.006 148.286 112.838 148.286 112.642ZM151.396 118.384V118.227C151.396 117.693 151.474 117.199 151.629 116.743C151.784 116.283 152.007 115.884 152.299 115.547C152.59 115.205 152.944 114.941 153.358 114.754C153.773 114.562 154.238 114.467 154.753 114.467C155.272 114.467 155.74 114.562 156.154 114.754C156.574 114.941 156.929 115.205 157.221 115.547C157.517 115.884 157.743 116.283 157.897 116.743C158.052 117.199 158.13 117.693 158.13 118.227V118.384C158.13 118.917 158.052 119.411 157.897 119.867C157.743 120.323 157.517 120.722 157.221 121.063C156.929 121.401 156.576 121.665 156.161 121.856C155.751 122.043 155.286 122.137 154.767 122.137C154.247 122.137 153.78 122.043 153.365 121.856C152.951 121.665 152.595 121.401 152.299 121.063C152.007 120.722 151.784 120.323 151.629 119.867C151.474 119.411 151.396 118.917 151.396 118.384ZM152.661 118.227V118.384C152.661 118.753 152.704 119.102 152.791 119.43C152.878 119.753 153.007 120.04 153.181 120.291C153.358 120.542 153.579 120.74 153.844 120.886C154.108 121.027 154.416 121.098 154.767 121.098C155.113 121.098 155.416 121.027 155.676 120.886C155.94 120.74 156.159 120.542 156.332 120.291C156.505 120.04 156.635 119.753 156.722 119.43C156.813 119.102 156.858 118.753 156.858 118.384V118.227C156.858 117.862 156.813 117.518 156.722 117.194C156.635 116.866 156.503 116.577 156.325 116.326C156.152 116.071 155.933 115.87 155.669 115.725C155.409 115.579 155.104 115.506 154.753 115.506C154.407 115.506 154.101 115.579 153.837 115.725C153.577 115.87 153.358 116.071 153.181 116.326C153.007 116.577 152.878 116.866 152.791 117.194C152.704 117.518 152.661 117.862 152.661 118.227ZM159.709 111.5H160.98V120.564L160.871 122H159.709V111.5ZM165.978 118.24V118.384C165.978 118.922 165.914 119.421 165.786 119.881C165.659 120.337 165.472 120.733 165.226 121.07C164.979 121.408 164.679 121.67 164.323 121.856C163.968 122.043 163.56 122.137 163.1 122.137C162.63 122.137 162.218 122.057 161.862 121.897C161.511 121.733 161.215 121.499 160.974 121.193C160.732 120.888 160.538 120.519 160.393 120.086C160.251 119.653 160.153 119.165 160.099 118.623V117.994C160.153 117.447 160.251 116.957 160.393 116.524C160.538 116.091 160.732 115.722 160.974 115.417C161.215 115.107 161.511 114.872 161.862 114.713C162.213 114.549 162.621 114.467 163.086 114.467C163.551 114.467 163.963 114.558 164.323 114.74C164.683 114.918 164.984 115.173 165.226 115.506C165.472 115.839 165.659 116.237 165.786 116.702C165.914 117.162 165.978 117.675 165.978 118.24ZM164.706 118.384V118.24C164.706 117.871 164.672 117.525 164.604 117.201C164.535 116.873 164.426 116.586 164.275 116.34C164.125 116.089 163.927 115.893 163.681 115.752C163.435 115.606 163.132 115.533 162.771 115.533C162.452 115.533 162.174 115.588 161.938 115.697C161.705 115.807 161.507 115.955 161.343 116.142C161.179 116.324 161.044 116.534 160.939 116.771C160.839 117.003 160.764 117.244 160.714 117.495V119.143C160.787 119.462 160.905 119.769 161.069 120.065C161.238 120.357 161.461 120.596 161.739 120.783C162.022 120.97 162.37 121.063 162.785 121.063C163.127 121.063 163.419 120.995 163.66 120.858C163.906 120.717 164.104 120.523 164.255 120.277C164.41 120.031 164.524 119.746 164.597 119.423C164.67 119.099 164.706 118.753 164.706 118.384ZM171.884 120.038C171.884 119.856 171.843 119.687 171.761 119.532C171.683 119.373 171.521 119.229 171.275 119.102C171.034 118.969 170.669 118.855 170.182 118.76C169.771 118.673 169.4 118.571 169.067 118.452C168.739 118.334 168.459 118.19 168.227 118.021C167.999 117.853 167.823 117.655 167.7 117.427C167.577 117.199 167.516 116.932 167.516 116.627C167.516 116.335 167.579 116.06 167.707 115.8C167.839 115.54 168.024 115.31 168.261 115.109C168.502 114.909 168.792 114.752 169.129 114.638C169.466 114.524 169.842 114.467 170.257 114.467C170.849 114.467 171.355 114.572 171.774 114.781C172.194 114.991 172.515 115.271 172.738 115.622C172.962 115.968 173.073 116.354 173.073 116.777H171.809C171.809 116.572 171.747 116.374 171.624 116.183C171.506 115.987 171.33 115.825 171.098 115.697C170.87 115.57 170.59 115.506 170.257 115.506C169.906 115.506 169.621 115.561 169.402 115.67C169.188 115.775 169.031 115.909 168.931 116.073C168.835 116.237 168.787 116.41 168.787 116.593C168.787 116.729 168.81 116.853 168.855 116.962C168.906 117.067 168.992 117.165 169.115 117.256C169.238 117.342 169.411 117.424 169.635 117.502C169.858 117.579 170.143 117.657 170.489 117.734C171.095 117.871 171.594 118.035 171.986 118.227C172.378 118.418 172.67 118.653 172.861 118.931C173.053 119.209 173.148 119.546 173.148 119.942C173.148 120.266 173.08 120.562 172.943 120.831C172.811 121.1 172.618 121.332 172.362 121.528C172.112 121.72 171.811 121.87 171.46 121.979C171.114 122.084 170.724 122.137 170.291 122.137C169.639 122.137 169.088 122.021 168.637 121.788C168.186 121.556 167.844 121.255 167.611 120.886C167.379 120.517 167.263 120.127 167.263 119.717H168.534C168.552 120.063 168.653 120.339 168.835 120.544C169.017 120.744 169.241 120.888 169.505 120.975C169.769 121.057 170.031 121.098 170.291 121.098C170.637 121.098 170.927 121.052 171.159 120.961C171.396 120.87 171.576 120.744 171.699 120.585C171.822 120.425 171.884 120.243 171.884 120.038ZM182.944 120.564V111.5H184.216V122H183.054L182.944 120.564ZM177.968 118.384V118.24C177.968 117.675 178.036 117.162 178.173 116.702C178.314 116.237 178.512 115.839 178.768 115.506C179.027 115.173 179.335 114.918 179.69 114.74C180.05 114.558 180.451 114.467 180.894 114.467C181.358 114.467 181.764 114.549 182.11 114.713C182.461 114.872 182.757 115.107 182.999 115.417C183.245 115.722 183.439 116.091 183.58 116.524C183.721 116.957 183.819 117.447 183.874 117.994V118.623C183.824 119.165 183.726 119.653 183.58 120.086C183.439 120.519 183.245 120.888 182.999 121.193C182.757 121.499 182.461 121.733 182.11 121.897C181.759 122.057 181.349 122.137 180.88 122.137C180.447 122.137 180.05 122.043 179.69 121.856C179.335 121.67 179.027 121.408 178.768 121.07C178.512 120.733 178.314 120.337 178.173 119.881C178.036 119.421 177.968 118.922 177.968 118.384ZM179.239 118.24V118.384C179.239 118.753 179.276 119.099 179.349 119.423C179.426 119.746 179.545 120.031 179.704 120.277C179.864 120.523 180.066 120.717 180.312 120.858C180.559 120.995 180.853 121.063 181.194 121.063C181.614 121.063 181.958 120.975 182.227 120.797C182.5 120.619 182.719 120.384 182.883 120.093C183.047 119.801 183.174 119.484 183.266 119.143V117.495C183.211 117.244 183.131 117.003 183.026 116.771C182.926 116.534 182.794 116.324 182.63 116.142C182.47 115.955 182.272 115.807 182.035 115.697C181.803 115.588 181.527 115.533 181.208 115.533C180.862 115.533 180.563 115.606 180.312 115.752C180.066 115.893 179.864 116.089 179.704 116.34C179.545 116.586 179.426 116.873 179.349 117.201C179.276 117.525 179.239 117.871 179.239 118.24ZM190.546 120.735V116.928C190.546 116.636 190.487 116.383 190.368 116.169C190.254 115.95 190.081 115.782 189.849 115.663C189.616 115.545 189.329 115.485 188.987 115.485C188.668 115.485 188.388 115.54 188.146 115.649C187.91 115.759 187.723 115.902 187.586 116.08C187.454 116.258 187.388 116.449 187.388 116.654H186.123C186.123 116.39 186.191 116.128 186.328 115.868C186.465 115.608 186.661 115.374 186.916 115.164C187.176 114.95 187.486 114.781 187.846 114.658C188.21 114.531 188.616 114.467 189.062 114.467C189.6 114.467 190.074 114.558 190.484 114.74C190.899 114.923 191.223 115.198 191.455 115.567C191.692 115.932 191.811 116.39 191.811 116.941V120.387C191.811 120.633 191.831 120.895 191.872 121.173C191.918 121.451 191.984 121.69 192.07 121.891V122H190.751C190.687 121.854 190.637 121.66 190.601 121.419C190.564 121.173 190.546 120.945 190.546 120.735ZM190.765 117.516L190.778 118.404H189.5C189.14 118.404 188.819 118.434 188.536 118.493C188.254 118.548 188.017 118.632 187.825 118.746C187.634 118.86 187.488 119.004 187.388 119.177C187.287 119.345 187.237 119.544 187.237 119.771C187.237 120.004 187.29 120.216 187.395 120.407C187.499 120.599 187.657 120.751 187.866 120.865C188.08 120.975 188.342 121.029 188.652 121.029C189.04 121.029 189.382 120.947 189.678 120.783C189.974 120.619 190.209 120.419 190.382 120.182C190.56 119.945 190.655 119.715 190.669 119.491L191.209 120.1C191.177 120.291 191.09 120.503 190.949 120.735C190.808 120.968 190.619 121.191 190.382 121.405C190.149 121.615 189.871 121.79 189.548 121.932C189.229 122.068 188.869 122.137 188.468 122.137C187.966 122.137 187.527 122.039 187.148 121.843C186.775 121.647 186.483 121.385 186.273 121.057C186.068 120.724 185.966 120.353 185.966 119.942C185.966 119.546 186.043 119.197 186.198 118.896C186.353 118.591 186.576 118.338 186.868 118.138C187.16 117.933 187.511 117.778 187.921 117.673C188.331 117.568 188.789 117.516 189.295 117.516H190.765ZM195.174 114.604V122H193.902V114.604H195.174ZM193.807 112.642C193.807 112.437 193.868 112.263 193.991 112.122C194.119 111.981 194.306 111.91 194.552 111.91C194.793 111.91 194.978 111.981 195.105 112.122C195.238 112.263 195.304 112.437 195.304 112.642C195.304 112.838 195.238 113.006 195.105 113.147C194.978 113.284 194.793 113.353 194.552 113.353C194.306 113.353 194.119 113.284 193.991 113.147C193.868 113.006 193.807 112.838 193.807 112.642ZM198.578 111.5V122H197.307V111.5H198.578ZM202.687 121.234L204.744 114.604H206.098L203.131 123.142C203.062 123.324 202.971 123.52 202.857 123.729C202.748 123.944 202.607 124.146 202.434 124.338C202.26 124.529 202.051 124.684 201.805 124.803C201.563 124.926 201.274 124.987 200.937 124.987C200.836 124.987 200.709 124.974 200.554 124.946C200.399 124.919 200.289 124.896 200.226 124.878L200.219 123.853C200.255 123.857 200.312 123.862 200.39 123.866C200.472 123.875 200.529 123.88 200.561 123.88C200.848 123.88 201.091 123.841 201.292 123.764C201.493 123.691 201.661 123.565 201.798 123.388C201.939 123.215 202.06 122.975 202.16 122.67L202.687 121.234ZM201.176 114.604L203.097 120.346L203.425 121.679L202.516 122.144L199.795 114.604H201.176Z" fill="black"/>
<path d="M119.545 142.389L117.67 141.93L118.441 134.781H126.107V136.773H120.395L120.004 140.26C120.225 140.13 120.531 140.003 120.922 139.879C121.312 139.749 121.758 139.684 122.26 139.684C122.93 139.684 123.529 139.794 124.057 140.016C124.59 140.23 125.043 140.546 125.414 140.963C125.785 141.373 126.068 141.874 126.264 142.467C126.459 143.053 126.557 143.714 126.557 144.449C126.557 145.107 126.459 145.722 126.264 146.295C126.075 146.868 125.788 147.372 125.404 147.809C125.02 148.245 124.535 148.587 123.949 148.834C123.37 149.075 122.683 149.195 121.889 149.195C121.296 149.195 120.727 149.111 120.18 148.941C119.639 148.766 119.154 148.508 118.725 148.17C118.295 147.825 117.95 147.402 117.689 146.9C117.429 146.393 117.279 145.81 117.24 145.152H119.545C119.604 145.615 119.73 146.008 119.926 146.334C120.128 146.653 120.395 146.897 120.727 147.066C121.059 147.236 121.443 147.32 121.879 147.32C122.276 147.32 122.618 147.252 122.904 147.115C123.191 146.972 123.428 146.77 123.617 146.51C123.812 146.243 123.956 145.93 124.047 145.572C124.145 145.214 124.193 144.817 124.193 144.381C124.193 143.964 124.138 143.583 124.027 143.238C123.923 142.893 123.764 142.594 123.549 142.34C123.34 142.086 123.077 141.891 122.758 141.754C122.439 141.611 122.071 141.539 121.654 141.539C121.094 141.539 120.665 141.62 120.365 141.783C120.072 141.946 119.799 142.148 119.545 142.389ZM137.709 140.699V143.023C137.709 144.137 137.598 145.087 137.377 145.875C137.162 146.656 136.85 147.291 136.439 147.779C136.029 148.268 135.538 148.626 134.965 148.854C134.398 149.081 133.764 149.195 133.061 149.195C132.501 149.195 131.98 149.124 131.498 148.98C131.023 148.837 130.593 148.613 130.209 148.307C129.825 148.001 129.496 147.607 129.223 147.125C128.956 146.637 128.747 146.054 128.598 145.377C128.454 144.7 128.383 143.915 128.383 143.023V140.699C128.383 139.579 128.493 138.635 128.715 137.867C128.936 137.092 129.252 136.464 129.662 135.982C130.072 135.494 130.561 135.139 131.127 134.918C131.7 134.697 132.338 134.586 133.041 134.586C133.607 134.586 134.128 134.658 134.604 134.801C135.085 134.938 135.515 135.156 135.893 135.455C136.277 135.755 136.602 136.145 136.869 136.627C137.143 137.102 137.351 137.678 137.494 138.355C137.637 139.026 137.709 139.807 137.709 140.699ZM135.355 143.355V140.348C135.355 139.781 135.323 139.283 135.258 138.854C135.193 138.417 135.095 138.049 134.965 137.75C134.841 137.444 134.685 137.197 134.496 137.008C134.307 136.812 134.092 136.673 133.852 136.588C133.611 136.497 133.34 136.451 133.041 136.451C132.676 136.451 132.351 136.523 132.064 136.666C131.778 136.803 131.537 137.024 131.342 137.33C131.146 137.636 130.997 138.04 130.893 138.541C130.795 139.036 130.746 139.638 130.746 140.348V143.355C130.746 143.928 130.779 144.433 130.844 144.869C130.909 145.305 131.007 145.68 131.137 145.992C131.267 146.298 131.423 146.552 131.605 146.754C131.794 146.949 132.009 147.092 132.25 147.184C132.497 147.275 132.768 147.32 133.061 147.32C133.432 147.32 133.76 147.249 134.047 147.105C134.333 146.962 134.574 146.734 134.77 146.422C134.965 146.103 135.111 145.689 135.209 145.182C135.307 144.674 135.355 144.065 135.355 143.355ZM149.076 140.699V143.023C149.076 144.137 148.965 145.087 148.744 145.875C148.529 146.656 148.217 147.291 147.807 147.779C147.396 148.268 146.905 148.626 146.332 148.854C145.766 149.081 145.131 149.195 144.428 149.195C143.868 149.195 143.347 149.124 142.865 148.98C142.39 148.837 141.96 148.613 141.576 148.307C141.192 148.001 140.863 147.607 140.59 147.125C140.323 146.637 140.115 146.054 139.965 145.377C139.822 144.7 139.75 143.915 139.75 143.023V140.699C139.75 139.579 139.861 138.635 140.082 137.867C140.303 137.092 140.619 136.464 141.029 135.982C141.439 135.494 141.928 135.139 142.494 134.918C143.067 134.697 143.705 134.586 144.408 134.586C144.975 134.586 145.495 134.658 145.971 134.801C146.452 134.938 146.882 135.156 147.26 135.455C147.644 135.755 147.969 136.145 148.236 136.627C148.51 137.102 148.718 137.678 148.861 138.355C149.005 139.026 149.076 139.807 149.076 140.699ZM146.723 143.355V140.348C146.723 139.781 146.69 139.283 146.625 138.854C146.56 138.417 146.462 138.049 146.332 137.75C146.208 137.444 146.052 137.197 145.863 137.008C145.674 136.812 145.46 136.673 145.219 136.588C144.978 136.497 144.708 136.451 144.408 136.451C144.044 136.451 143.718 136.523 143.432 136.666C143.145 136.803 142.904 137.024 142.709 137.33C142.514 137.636 142.364 138.04 142.26 138.541C142.162 139.036 142.113 139.638 142.113 140.348V143.355C142.113 143.928 142.146 144.433 142.211 144.869C142.276 145.305 142.374 145.68 142.504 145.992C142.634 146.298 142.79 146.552 142.973 146.754C143.161 146.949 143.376 147.092 143.617 147.184C143.865 147.275 144.135 147.32 144.428 147.32C144.799 147.32 145.128 147.249 145.414 147.105C145.701 146.962 145.941 146.734 146.137 146.422C146.332 146.103 146.479 145.689 146.576 145.182C146.674 144.674 146.723 144.065 146.723 143.355ZM160.492 141.207V143.326H150.746V141.207H160.492ZM156.762 137.223V147.574H154.486V137.223H156.762Z" fill="black"/>
<g filter="url(#filter1_d_330_5137)">
<rect x="239" y="123" width="159" height="109" rx="8" fill="white"/>
</g>
<circle cx="261" cy="145" r="8.5" stroke="#FFBC89" stroke-width="3"/>
<path d="M258.656 180.326V181.399H253.27V180.326H258.656ZM253.475 176.047V186H252.155V176.047H253.475ZM259.805 176.047V186H258.492V176.047H259.805ZM266.319 184.735V180.928C266.319 180.636 266.26 180.383 266.142 180.169C266.028 179.95 265.854 179.782 265.622 179.663C265.39 179.545 265.103 179.485 264.761 179.485C264.442 179.485 264.161 179.54 263.92 179.649C263.683 179.759 263.496 179.902 263.359 180.08C263.227 180.258 263.161 180.449 263.161 180.654H261.896C261.896 180.39 261.965 180.128 262.102 179.868C262.238 179.608 262.434 179.374 262.689 179.164C262.949 178.95 263.259 178.781 263.619 178.658C263.984 178.531 264.389 178.467 264.836 178.467C265.374 178.467 265.848 178.558 266.258 178.74C266.673 178.923 266.996 179.198 267.229 179.567C267.465 179.932 267.584 180.39 267.584 180.941V184.387C267.584 184.633 267.604 184.895 267.646 185.173C267.691 185.451 267.757 185.69 267.844 185.891V186H266.524C266.461 185.854 266.41 185.66 266.374 185.419C266.338 185.173 266.319 184.945 266.319 184.735ZM266.538 181.516L266.552 182.404H265.273C264.913 182.404 264.592 182.434 264.31 182.493C264.027 182.548 263.79 182.632 263.599 182.746C263.407 182.86 263.261 183.004 263.161 183.177C263.061 183.345 263.011 183.544 263.011 183.771C263.011 184.004 263.063 184.216 263.168 184.407C263.273 184.599 263.43 184.751 263.64 184.865C263.854 184.975 264.116 185.029 264.426 185.029C264.813 185.029 265.155 184.947 265.451 184.783C265.747 184.619 265.982 184.419 266.155 184.182C266.333 183.945 266.429 183.715 266.442 183.491L266.982 184.1C266.951 184.291 266.864 184.503 266.723 184.735C266.581 184.968 266.392 185.191 266.155 185.405C265.923 185.615 265.645 185.79 265.321 185.932C265.002 186.068 264.642 186.137 264.241 186.137C263.74 186.137 263.3 186.039 262.922 185.843C262.548 185.647 262.257 185.385 262.047 185.057C261.842 184.724 261.739 184.353 261.739 183.942C261.739 183.546 261.817 183.197 261.972 182.896C262.127 182.591 262.35 182.338 262.642 182.138C262.933 181.933 263.284 181.778 263.694 181.673C264.104 181.568 264.562 181.516 265.068 181.516H266.538ZM270.838 180.025V188.844H269.566V178.604H270.729L270.838 180.025ZM275.821 182.24V182.384C275.821 182.922 275.757 183.421 275.63 183.881C275.502 184.337 275.315 184.733 275.069 185.07C274.828 185.408 274.529 185.67 274.174 185.856C273.818 186.043 273.41 186.137 272.95 186.137C272.481 186.137 272.066 186.059 271.706 185.904C271.346 185.749 271.041 185.524 270.79 185.228C270.539 184.931 270.339 184.576 270.188 184.161C270.043 183.746 269.942 183.279 269.888 182.76V181.994C269.942 181.447 270.045 180.957 270.195 180.524C270.346 180.091 270.544 179.722 270.79 179.417C271.041 179.107 271.344 178.872 271.699 178.713C272.055 178.549 272.465 178.467 272.93 178.467C273.395 178.467 273.807 178.558 274.167 178.74C274.527 178.918 274.83 179.173 275.076 179.506C275.322 179.839 275.507 180.237 275.63 180.702C275.757 181.162 275.821 181.675 275.821 182.24ZM274.55 182.384V182.24C274.55 181.871 274.511 181.525 274.434 181.201C274.356 180.873 274.235 180.586 274.071 180.34C273.912 180.089 273.707 179.893 273.456 179.752C273.205 179.606 272.907 179.533 272.561 179.533C272.242 179.533 271.964 179.588 271.727 179.697C271.494 179.807 271.296 179.955 271.132 180.142C270.968 180.324 270.833 180.534 270.729 180.771C270.628 181.003 270.553 181.244 270.503 181.495V183.266C270.594 183.585 270.722 183.885 270.886 184.168C271.05 184.446 271.269 184.672 271.542 184.845C271.815 185.013 272.16 185.098 272.574 185.098C272.916 185.098 273.21 185.027 273.456 184.886C273.707 184.74 273.912 184.542 274.071 184.291C274.235 184.04 274.356 183.753 274.434 183.43C274.511 183.102 274.55 182.753 274.55 182.384ZM278.699 180.025V188.844H277.428V178.604H278.59L278.699 180.025ZM283.683 182.24V182.384C283.683 182.922 283.619 183.421 283.491 183.881C283.364 184.337 283.177 184.733 282.931 185.07C282.689 185.408 282.391 185.67 282.035 185.856C281.68 186.043 281.272 186.137 280.812 186.137C280.342 186.137 279.927 186.059 279.567 185.904C279.207 185.749 278.902 185.524 278.651 185.228C278.401 184.931 278.2 184.576 278.05 184.161C277.904 183.746 277.804 183.279 277.749 182.76V181.994C277.804 181.447 277.906 180.957 278.057 180.524C278.207 180.091 278.405 179.722 278.651 179.417C278.902 179.107 279.205 178.872 279.561 178.713C279.916 178.549 280.326 178.467 280.791 178.467C281.256 178.467 281.668 178.558 282.028 178.74C282.388 178.918 282.691 179.173 282.938 179.506C283.184 179.839 283.368 180.237 283.491 180.702C283.619 181.162 283.683 181.675 283.683 182.24ZM282.411 182.384V182.24C282.411 181.871 282.372 181.525 282.295 181.201C282.217 180.873 282.097 180.586 281.933 180.34C281.773 180.089 281.568 179.893 281.317 179.752C281.067 179.606 280.768 179.533 280.422 179.533C280.103 179.533 279.825 179.588 279.588 179.697C279.355 179.807 279.157 179.955 278.993 180.142C278.829 180.324 278.695 180.534 278.59 180.771C278.49 181.003 278.414 181.244 278.364 181.495V183.266C278.455 183.585 278.583 183.885 278.747 184.168C278.911 184.446 279.13 184.672 279.403 184.845C279.677 185.013 280.021 185.098 280.436 185.098C280.777 185.098 281.071 185.027 281.317 184.886C281.568 184.74 281.773 184.542 281.933 184.291C282.097 184.04 282.217 183.753 282.295 183.43C282.372 183.102 282.411 182.753 282.411 182.384ZM287.292 185.234L289.35 178.604H290.703L287.736 187.142C287.668 187.324 287.577 187.52 287.463 187.729C287.354 187.944 287.212 188.146 287.039 188.338C286.866 188.529 286.656 188.684 286.41 188.803C286.169 188.926 285.879 188.987 285.542 188.987C285.442 188.987 285.314 188.974 285.159 188.946C285.004 188.919 284.895 188.896 284.831 188.878L284.824 187.853C284.861 187.857 284.918 187.862 284.995 187.866C285.077 187.875 285.134 187.88 285.166 187.88C285.453 187.88 285.697 187.841 285.897 187.764C286.098 187.691 286.267 187.565 286.403 187.388C286.545 187.215 286.665 186.975 286.766 186.67L287.292 185.234ZM285.781 178.604L287.702 184.346L288.03 185.679L287.121 186.144L284.4 178.604H285.781ZM298.277 185.098C298.578 185.098 298.856 185.036 299.111 184.913C299.367 184.79 299.576 184.621 299.74 184.407C299.904 184.188 299.998 183.94 300.021 183.662H301.224C301.201 184.1 301.053 184.507 300.779 184.886C300.51 185.259 300.157 185.562 299.72 185.795C299.282 186.023 298.801 186.137 298.277 186.137C297.721 186.137 297.236 186.039 296.821 185.843C296.411 185.647 296.069 185.378 295.796 185.036C295.527 184.694 295.324 184.302 295.188 183.86C295.055 183.414 294.989 182.942 294.989 182.445V182.158C294.989 181.661 295.055 181.192 295.188 180.75C295.324 180.303 295.527 179.909 295.796 179.567C296.069 179.226 296.411 178.957 296.821 178.761C297.236 178.565 297.721 178.467 298.277 178.467C298.856 178.467 299.362 178.585 299.795 178.822C300.228 179.055 300.567 179.374 300.813 179.779C301.064 180.18 301.201 180.636 301.224 181.146H300.021C299.998 180.841 299.911 180.565 299.761 180.319C299.615 180.073 299.414 179.877 299.159 179.731C298.909 179.581 298.615 179.506 298.277 179.506C297.89 179.506 297.564 179.583 297.3 179.738C297.04 179.889 296.833 180.094 296.678 180.354C296.527 180.609 296.418 180.894 296.35 181.208C296.286 181.518 296.254 181.835 296.254 182.158V182.445C296.254 182.769 296.286 183.088 296.35 183.402C296.413 183.717 296.521 184.002 296.671 184.257C296.826 184.512 297.033 184.717 297.293 184.872C297.557 185.022 297.885 185.098 298.277 185.098ZM307.171 184.291V178.604H308.442V186H307.232L307.171 184.291ZM307.41 182.732L307.937 182.719C307.937 183.211 307.884 183.667 307.779 184.086C307.679 184.501 307.515 184.861 307.287 185.166C307.059 185.471 306.761 185.711 306.392 185.884C306.022 186.052 305.574 186.137 305.045 186.137C304.685 186.137 304.354 186.084 304.054 185.979C303.757 185.875 303.502 185.713 303.288 185.494C303.074 185.275 302.908 184.991 302.789 184.64C302.675 184.289 302.618 183.867 302.618 183.375V178.604H303.883V183.389C303.883 183.721 303.919 183.997 303.992 184.216C304.07 184.43 304.172 184.601 304.3 184.729C304.432 184.852 304.578 184.938 304.737 184.988C304.901 185.038 305.07 185.063 305.243 185.063C305.781 185.063 306.207 184.961 306.521 184.756C306.836 184.546 307.062 184.266 307.198 183.915C307.34 183.56 307.41 183.165 307.41 182.732ZM314.677 184.038C314.677 183.856 314.636 183.687 314.554 183.532C314.476 183.373 314.314 183.229 314.068 183.102C313.827 182.969 313.462 182.855 312.975 182.76C312.564 182.673 312.193 182.571 311.86 182.452C311.532 182.334 311.252 182.19 311.02 182.021C310.792 181.853 310.616 181.655 310.493 181.427C310.37 181.199 310.309 180.932 310.309 180.627C310.309 180.335 310.372 180.06 310.5 179.8C310.632 179.54 310.817 179.31 311.054 179.109C311.295 178.909 311.585 178.752 311.922 178.638C312.259 178.524 312.635 178.467 313.05 178.467C313.642 178.467 314.148 178.572 314.567 178.781C314.987 178.991 315.308 179.271 315.531 179.622C315.755 179.968 315.866 180.354 315.866 180.777H314.602C314.602 180.572 314.54 180.374 314.417 180.183C314.299 179.987 314.123 179.825 313.891 179.697C313.663 179.57 313.382 179.506 313.05 179.506C312.699 179.506 312.414 179.561 312.195 179.67C311.981 179.775 311.824 179.909 311.724 180.073C311.628 180.237 311.58 180.41 311.58 180.593C311.58 180.729 311.603 180.853 311.648 180.962C311.699 181.067 311.785 181.165 311.908 181.256C312.031 181.342 312.204 181.424 312.428 181.502C312.651 181.579 312.936 181.657 313.282 181.734C313.888 181.871 314.387 182.035 314.779 182.227C315.171 182.418 315.463 182.653 315.654 182.931C315.846 183.209 315.941 183.546 315.941 183.942C315.941 184.266 315.873 184.562 315.736 184.831C315.604 185.1 315.41 185.332 315.155 185.528C314.905 185.72 314.604 185.87 314.253 185.979C313.907 186.084 313.517 186.137 313.084 186.137C312.432 186.137 311.881 186.021 311.43 185.788C310.979 185.556 310.637 185.255 310.404 184.886C310.172 184.517 310.056 184.127 310.056 183.717H311.327C311.345 184.063 311.446 184.339 311.628 184.544C311.81 184.744 312.034 184.888 312.298 184.975C312.562 185.057 312.824 185.098 313.084 185.098C313.43 185.098 313.72 185.052 313.952 184.961C314.189 184.87 314.369 184.744 314.492 184.585C314.615 184.425 314.677 184.243 314.677 184.038ZM320.699 178.604V179.574H316.7V178.604H320.699ZM318.054 176.806H319.318V184.168C319.318 184.419 319.357 184.608 319.435 184.735C319.512 184.863 319.612 184.947 319.735 184.988C319.858 185.029 319.991 185.05 320.132 185.05C320.237 185.05 320.346 185.041 320.46 185.022C320.578 185 320.667 184.981 320.727 184.968L320.733 186C320.633 186.032 320.501 186.062 320.337 186.089C320.177 186.121 319.984 186.137 319.756 186.137C319.446 186.137 319.161 186.075 318.901 185.952C318.642 185.829 318.434 185.624 318.279 185.337C318.129 185.045 318.054 184.653 318.054 184.161V176.806ZM321.711 182.384V182.227C321.711 181.693 321.788 181.199 321.943 180.743C322.098 180.283 322.322 179.884 322.613 179.547C322.905 179.205 323.258 178.941 323.673 178.754C324.088 178.562 324.552 178.467 325.067 178.467C325.587 178.467 326.054 178.562 326.469 178.754C326.888 178.941 327.243 179.205 327.535 179.547C327.831 179.884 328.057 180.283 328.212 180.743C328.367 181.199 328.444 181.693 328.444 182.227V182.384C328.444 182.917 328.367 183.411 328.212 183.867C328.057 184.323 327.831 184.722 327.535 185.063C327.243 185.401 326.89 185.665 326.476 185.856C326.065 186.043 325.601 186.137 325.081 186.137C324.562 186.137 324.094 186.043 323.68 185.856C323.265 185.665 322.91 185.401 322.613 185.063C322.322 184.722 322.098 184.323 321.943 183.867C321.788 183.411 321.711 182.917 321.711 182.384ZM322.976 182.227V182.384C322.976 182.753 323.019 183.102 323.105 183.43C323.192 183.753 323.322 184.04 323.495 184.291C323.673 184.542 323.894 184.74 324.158 184.886C324.423 185.027 324.73 185.098 325.081 185.098C325.427 185.098 325.73 185.027 325.99 184.886C326.255 184.74 326.473 184.542 326.646 184.291C326.82 184.04 326.95 183.753 327.036 183.43C327.127 183.102 327.173 182.753 327.173 182.384V182.227C327.173 181.862 327.127 181.518 327.036 181.194C326.95 180.866 326.817 180.577 326.64 180.326C326.466 180.071 326.248 179.87 325.983 179.725C325.724 179.579 325.418 179.506 325.067 179.506C324.721 179.506 324.416 179.579 324.151 179.725C323.892 179.87 323.673 180.071 323.495 180.326C323.322 180.577 323.192 180.866 323.105 181.194C323.019 181.518 322.976 181.862 322.976 182.227ZM331.288 180.073V186H330.017V178.604H331.22L331.288 180.073ZM331.028 182.021L330.44 182.001C330.445 181.495 330.511 181.028 330.639 180.6C330.766 180.167 330.955 179.791 331.206 179.472C331.457 179.153 331.769 178.907 332.143 178.733C332.516 178.556 332.949 178.467 333.441 178.467C333.788 178.467 334.107 178.517 334.398 178.617C334.69 178.713 334.943 178.866 335.157 179.075C335.371 179.285 335.538 179.554 335.656 179.882C335.775 180.21 335.834 180.606 335.834 181.071V186H334.569V181.133C334.569 180.745 334.503 180.436 334.371 180.203C334.243 179.971 334.061 179.802 333.824 179.697C333.587 179.588 333.309 179.533 332.99 179.533C332.617 179.533 332.304 179.599 332.054 179.731C331.803 179.864 331.603 180.046 331.452 180.278C331.302 180.511 331.192 180.777 331.124 181.078C331.06 181.374 331.028 181.689 331.028 182.021ZM335.82 181.324L334.973 181.584C334.977 181.178 335.043 180.789 335.171 180.415C335.303 180.041 335.492 179.709 335.738 179.417C335.989 179.125 336.297 178.895 336.661 178.727C337.026 178.553 337.443 178.467 337.912 178.467C338.309 178.467 338.66 178.519 338.965 178.624C339.275 178.729 339.535 178.891 339.744 179.109C339.958 179.324 340.12 179.599 340.229 179.937C340.339 180.274 340.394 180.675 340.394 181.14V186H339.122V181.126C339.122 180.711 339.056 180.39 338.924 180.162C338.796 179.93 338.614 179.768 338.377 179.677C338.145 179.581 337.867 179.533 337.543 179.533C337.265 179.533 337.019 179.581 336.805 179.677C336.59 179.772 336.41 179.905 336.265 180.073C336.119 180.237 336.007 180.426 335.93 180.641C335.857 180.855 335.82 181.083 335.82 181.324ZM345.377 186.137C344.862 186.137 344.395 186.05 343.976 185.877C343.561 185.699 343.203 185.451 342.902 185.132C342.606 184.813 342.378 184.435 342.219 183.997C342.059 183.56 341.979 183.081 341.979 182.562V182.274C341.979 181.673 342.068 181.137 342.246 180.668C342.424 180.194 342.665 179.793 342.971 179.465C343.276 179.137 343.622 178.888 344.01 178.72C344.397 178.551 344.798 178.467 345.213 178.467C345.742 178.467 346.197 178.558 346.58 178.74C346.967 178.923 347.284 179.178 347.53 179.506C347.776 179.829 347.959 180.212 348.077 180.654C348.196 181.092 348.255 181.57 348.255 182.09V182.657H342.731V181.625H346.99V181.529C346.972 181.201 346.904 180.882 346.785 180.572C346.671 180.262 346.489 180.007 346.238 179.807C345.988 179.606 345.646 179.506 345.213 179.506C344.926 179.506 344.661 179.567 344.42 179.69C344.178 179.809 343.971 179.987 343.798 180.224C343.625 180.461 343.49 180.75 343.395 181.092C343.299 181.434 343.251 181.828 343.251 182.274V182.562C343.251 182.912 343.299 183.243 343.395 183.553C343.495 183.858 343.638 184.127 343.825 184.359C344.017 184.592 344.247 184.774 344.516 184.906C344.789 185.038 345.099 185.104 345.445 185.104C345.892 185.104 346.27 185.013 346.58 184.831C346.89 184.649 347.161 184.405 347.394 184.1L348.159 184.708C348 184.95 347.797 185.18 347.551 185.398C347.305 185.617 347.002 185.795 346.642 185.932C346.286 186.068 345.865 186.137 345.377 186.137ZM350.996 179.766V186H349.731V178.604H350.962L350.996 179.766ZM353.307 178.562L353.3 179.738C353.195 179.715 353.095 179.702 352.999 179.697C352.908 179.688 352.803 179.684 352.685 179.684C352.393 179.684 352.135 179.729 351.912 179.82C351.689 179.911 351.5 180.039 351.345 180.203C351.19 180.367 351.067 180.563 350.976 180.791C350.889 181.014 350.832 181.26 350.805 181.529L350.449 181.734C350.449 181.288 350.493 180.868 350.579 180.477C350.67 180.085 350.809 179.738 350.996 179.438C351.183 179.132 351.42 178.895 351.707 178.727C351.999 178.553 352.345 178.467 352.746 178.467C352.837 178.467 352.942 178.478 353.061 178.501C353.179 178.519 353.261 178.54 353.307 178.562ZM358.782 184.038C358.782 183.856 358.741 183.687 358.659 183.532C358.582 183.373 358.42 183.229 358.174 183.102C357.932 182.969 357.568 182.855 357.08 182.76C356.67 182.673 356.299 182.571 355.966 182.452C355.638 182.334 355.357 182.19 355.125 182.021C354.897 181.853 354.722 181.655 354.599 181.427C354.476 181.199 354.414 180.932 354.414 180.627C354.414 180.335 354.478 180.06 354.605 179.8C354.738 179.54 354.922 179.31 355.159 179.109C355.401 178.909 355.69 178.752 356.027 178.638C356.365 178.524 356.741 178.467 357.155 178.467C357.748 178.467 358.254 178.572 358.673 178.781C359.092 178.991 359.413 179.271 359.637 179.622C359.86 179.968 359.972 180.354 359.972 180.777H358.707C358.707 180.572 358.646 180.374 358.522 180.183C358.404 179.987 358.229 179.825 357.996 179.697C357.768 179.57 357.488 179.506 357.155 179.506C356.804 179.506 356.52 179.561 356.301 179.67C356.087 179.775 355.929 179.909 355.829 180.073C355.733 180.237 355.686 180.41 355.686 180.593C355.686 180.729 355.708 180.853 355.754 180.962C355.804 181.067 355.891 181.165 356.014 181.256C356.137 181.342 356.31 181.424 356.533 181.502C356.757 181.579 357.041 181.657 357.388 181.734C357.994 181.871 358.493 182.035 358.885 182.227C359.277 182.418 359.568 182.653 359.76 182.931C359.951 183.209 360.047 183.546 360.047 183.942C360.047 184.266 359.979 184.562 359.842 184.831C359.71 185.1 359.516 185.332 359.261 185.528C359.01 185.72 358.709 185.87 358.358 185.979C358.012 186.084 357.622 186.137 357.189 186.137C356.538 186.137 355.986 186.021 355.535 185.788C355.084 185.556 354.742 185.255 354.51 184.886C354.277 184.517 354.161 184.127 354.161 183.717H355.433C355.451 184.063 355.551 184.339 355.733 184.544C355.916 184.744 356.139 184.888 356.403 184.975C356.668 185.057 356.93 185.098 357.189 185.098C357.536 185.098 357.825 185.052 358.058 184.961C358.295 184.87 358.475 184.744 358.598 184.585C358.721 184.425 358.782 184.243 358.782 184.038Z" fill="black"/>
<path d="M258.5 198.732V213H256.146V201.525L252.66 202.707V200.764L258.217 198.732H258.5ZM272.709 204.699V207.023C272.709 208.137 272.598 209.087 272.377 209.875C272.162 210.656 271.85 211.291 271.439 211.779C271.029 212.268 270.538 212.626 269.965 212.854C269.398 213.081 268.764 213.195 268.061 213.195C267.501 213.195 266.98 213.124 266.498 212.98C266.023 212.837 265.593 212.613 265.209 212.307C264.825 212.001 264.496 211.607 264.223 211.125C263.956 210.637 263.747 210.054 263.598 209.377C263.454 208.7 263.383 207.915 263.383 207.023V204.699C263.383 203.579 263.493 202.635 263.715 201.867C263.936 201.092 264.252 200.464 264.662 199.982C265.072 199.494 265.561 199.139 266.127 198.918C266.7 198.697 267.338 198.586 268.041 198.586C268.607 198.586 269.128 198.658 269.604 198.801C270.085 198.938 270.515 199.156 270.893 199.455C271.277 199.755 271.602 200.145 271.869 200.627C272.143 201.102 272.351 201.678 272.494 202.355C272.637 203.026 272.709 203.807 272.709 204.699ZM270.355 207.355V204.348C270.355 203.781 270.323 203.283 270.258 202.854C270.193 202.417 270.095 202.049 269.965 201.75C269.841 201.444 269.685 201.197 269.496 201.008C269.307 200.812 269.092 200.673 268.852 200.588C268.611 200.497 268.34 200.451 268.041 200.451C267.676 200.451 267.351 200.523 267.064 200.666C266.778 200.803 266.537 201.024 266.342 201.33C266.146 201.636 265.997 202.04 265.893 202.541C265.795 203.036 265.746 203.638 265.746 204.348V207.355C265.746 207.928 265.779 208.433 265.844 208.869C265.909 209.305 266.007 209.68 266.137 209.992C266.267 210.298 266.423 210.552 266.605 210.754C266.794 210.949 267.009 211.092 267.25 211.184C267.497 211.275 267.768 211.32 268.061 211.32C268.432 211.32 268.76 211.249 269.047 211.105C269.333 210.962 269.574 210.734 269.77 210.422C269.965 210.103 270.111 209.689 270.209 209.182C270.307 208.674 270.355 208.065 270.355 207.355ZM284.076 204.699V207.023C284.076 208.137 283.965 209.087 283.744 209.875C283.529 210.656 283.217 211.291 282.807 211.779C282.396 212.268 281.905 212.626 281.332 212.854C280.766 213.081 280.131 213.195 279.428 213.195C278.868 213.195 278.347 213.124 277.865 212.98C277.39 212.837 276.96 212.613 276.576 212.307C276.192 212.001 275.863 211.607 275.59 211.125C275.323 210.637 275.115 210.054 274.965 209.377C274.822 208.7 274.75 207.915 274.75 207.023V204.699C274.75 203.579 274.861 202.635 275.082 201.867C275.303 201.092 275.619 200.464 276.029 199.982C276.439 199.494 276.928 199.139 277.494 198.918C278.067 198.697 278.705 198.586 279.408 198.586C279.975 198.586 280.495 198.658 280.971 198.801C281.452 198.938 281.882 199.156 282.26 199.455C282.644 199.755 282.969 200.145 283.236 200.627C283.51 201.102 283.718 201.678 283.861 202.355C284.005 203.026 284.076 203.807 284.076 204.699ZM281.723 207.355V204.348C281.723 203.781 281.69 203.283 281.625 202.854C281.56 202.417 281.462 202.049 281.332 201.75C281.208 201.444 281.052 201.197 280.863 201.008C280.674 200.812 280.46 200.673 280.219 200.588C279.978 200.497 279.708 200.451 279.408 200.451C279.044 200.451 278.718 200.523 278.432 200.666C278.145 200.803 277.904 201.024 277.709 201.33C277.514 201.636 277.364 202.04 277.26 202.541C277.162 203.036 277.113 203.638 277.113 204.348V207.355C277.113 207.928 277.146 208.433 277.211 208.869C277.276 209.305 277.374 209.68 277.504 209.992C277.634 210.298 277.79 210.552 277.973 210.754C278.161 210.949 278.376 211.092 278.617 211.184C278.865 211.275 279.135 211.32 279.428 211.32C279.799 211.32 280.128 211.249 280.414 211.105C280.701 210.962 280.941 210.734 281.137 210.422C281.332 210.103 281.479 209.689 281.576 209.182C281.674 208.674 281.723 208.065 281.723 207.355ZM300.424 204.699V207.023C300.424 208.137 300.313 209.087 300.092 209.875C299.877 210.656 299.564 211.291 299.154 211.779C298.744 212.268 298.253 212.626 297.68 212.854C297.113 213.081 296.479 213.195 295.775 213.195C295.215 213.195 294.695 213.124 294.213 212.98C293.738 212.837 293.308 212.613 292.924 212.307C292.54 212.001 292.211 211.607 291.938 211.125C291.671 210.637 291.462 210.054 291.312 209.377C291.169 208.7 291.098 207.915 291.098 207.023V204.699C291.098 203.579 291.208 202.635 291.43 201.867C291.651 201.092 291.967 200.464 292.377 199.982C292.787 199.494 293.275 199.139 293.842 198.918C294.415 198.697 295.053 198.586 295.756 198.586C296.322 198.586 296.843 198.658 297.318 198.801C297.8 198.938 298.23 199.156 298.607 199.455C298.992 199.755 299.317 200.145 299.584 200.627C299.857 201.102 300.066 201.678 300.209 202.355C300.352 203.026 300.424 203.807 300.424 204.699ZM298.07 207.355V204.348C298.07 203.781 298.038 203.283 297.973 202.854C297.908 202.417 297.81 202.049 297.68 201.75C297.556 201.444 297.4 201.197 297.211 201.008C297.022 200.812 296.807 200.673 296.566 200.588C296.326 200.497 296.055 200.451 295.756 200.451C295.391 200.451 295.066 200.523 294.779 200.666C294.493 200.803 294.252 201.024 294.057 201.33C293.861 201.636 293.712 202.04 293.607 202.541C293.51 203.036 293.461 203.638 293.461 204.348V207.355C293.461 207.928 293.493 208.433 293.559 208.869C293.624 209.305 293.721 209.68 293.852 209.992C293.982 210.298 294.138 210.552 294.32 210.754C294.509 210.949 294.724 211.092 294.965 211.184C295.212 211.275 295.482 211.32 295.775 211.32C296.146 211.32 296.475 211.249 296.762 211.105C297.048 210.962 297.289 210.734 297.484 210.422C297.68 210.103 297.826 209.689 297.924 209.182C298.021 208.674 298.07 208.065 298.07 207.355ZM311.791 204.699V207.023C311.791 208.137 311.68 209.087 311.459 209.875C311.244 210.656 310.932 211.291 310.521 211.779C310.111 212.268 309.62 212.626 309.047 212.854C308.48 213.081 307.846 213.195 307.143 213.195C306.583 213.195 306.062 213.124 305.58 212.98C305.105 212.837 304.675 212.613 304.291 212.307C303.907 212.001 303.578 211.607 303.305 211.125C303.038 210.637 302.829 210.054 302.68 209.377C302.536 208.7 302.465 207.915 302.465 207.023V204.699C302.465 203.579 302.576 202.635 302.797 201.867C303.018 201.092 303.334 200.464 303.744 199.982C304.154 199.494 304.643 199.139 305.209 198.918C305.782 198.697 306.42 198.586 307.123 198.586C307.689 198.586 308.21 198.658 308.686 198.801C309.167 198.938 309.597 199.156 309.975 199.455C310.359 199.755 310.684 200.145 310.951 200.627C311.225 201.102 311.433 201.678 311.576 202.355C311.719 203.026 311.791 203.807 311.791 204.699ZM309.438 207.355V204.348C309.438 203.781 309.405 203.283 309.34 202.854C309.275 202.417 309.177 202.049 309.047 201.75C308.923 201.444 308.767 201.197 308.578 201.008C308.389 200.812 308.174 200.673 307.934 200.588C307.693 200.497 307.423 200.451 307.123 200.451C306.758 200.451 306.433 200.523 306.146 200.666C305.86 200.803 305.619 201.024 305.424 201.33C305.229 201.636 305.079 202.04 304.975 202.541C304.877 203.036 304.828 203.638 304.828 204.348V207.355C304.828 207.928 304.861 208.433 304.926 208.869C304.991 209.305 305.089 209.68 305.219 209.992C305.349 210.298 305.505 210.552 305.688 210.754C305.876 210.949 306.091 211.092 306.332 211.184C306.579 211.275 306.85 211.32 307.143 211.32C307.514 211.32 307.842 211.249 308.129 211.105C308.415 210.962 308.656 210.734 308.852 210.422C309.047 210.103 309.193 209.689 309.291 209.182C309.389 208.674 309.438 208.065 309.438 207.355ZM323.158 204.699V207.023C323.158 208.137 323.048 209.087 322.826 209.875C322.611 210.656 322.299 211.291 321.889 211.779C321.479 212.268 320.987 212.626 320.414 212.854C319.848 213.081 319.213 213.195 318.51 213.195C317.95 213.195 317.429 213.124 316.947 212.98C316.472 212.837 316.042 212.613 315.658 212.307C315.274 212.001 314.945 211.607 314.672 211.125C314.405 210.637 314.197 210.054 314.047 209.377C313.904 208.7 313.832 207.915 313.832 207.023V204.699C313.832 203.579 313.943 202.635 314.164 201.867C314.385 201.092 314.701 200.464 315.111 199.982C315.521 199.494 316.01 199.139 316.576 198.918C317.149 198.697 317.787 198.586 318.49 198.586C319.057 198.586 319.577 198.658 320.053 198.801C320.535 198.938 320.964 199.156 321.342 199.455C321.726 199.755 322.051 200.145 322.318 200.627C322.592 201.102 322.8 201.678 322.943 202.355C323.087 203.026 323.158 203.807 323.158 204.699ZM320.805 207.355V204.348C320.805 203.781 320.772 203.283 320.707 202.854C320.642 202.417 320.544 202.049 320.414 201.75C320.29 201.444 320.134 201.197 319.945 201.008C319.757 200.812 319.542 200.673 319.301 200.588C319.06 200.497 318.79 200.451 318.49 200.451C318.126 200.451 317.8 200.523 317.514 200.666C317.227 200.803 316.986 201.024 316.791 201.33C316.596 201.636 316.446 202.04 316.342 202.541C316.244 203.036 316.195 203.638 316.195 204.348V207.355C316.195 207.928 316.228 208.433 316.293 208.869C316.358 209.305 316.456 209.68 316.586 209.992C316.716 210.298 316.872 210.552 317.055 210.754C317.243 210.949 317.458 211.092 317.699 211.184C317.947 211.275 318.217 211.32 318.51 211.32C318.881 211.32 319.21 211.249 319.496 211.105C319.783 210.962 320.023 210.734 320.219 210.422C320.414 210.103 320.561 209.689 320.658 209.182C320.756 208.674 320.805 208.065 320.805 207.355Z" fill="black"/>
<defs>
<filter id="filter0_d_330_5137" x="0" y="0" width="327" height="317" filterUnits="userSpaceOnUse" color-interpolation-filters="sRGB">
<feFlood flood-opacity="0" result="BackgroundImageFix"/>
<feColorMatrix in="SourceAlpha" type="matrix" values="0 0 0 0 0 0 0 0 0 0 0 0 0 0 0 0 0 0 127 0" result="hardAlpha"/>
<feOffset dy="45"/>
<feGaussianBlur stdDeviation="52"/>
<feComposite in2="hardAlpha" operator="out"/>
<feColorMatrix type="matrix" values="0 0 0 0 0 0 0 0 0 0 0 0 0 0 0 0 0 0 0.06 0"/>
<feBlend mode="normal" in2="BackgroundImageFix" result="effect1_dropShadow_330_5137"/>
<feBlend mode="normal" in="SourceGraphic" in2="effect1_dropShadow_330_5137" result="shape"/>
</filter>
<filter id="filter1_d_330_5137" x="135" y="64" width="367" height="317" filterUnits="userSpaceOnUse" color-interpolation-filters="sRGB">
<feFlood flood-opacity="0" result="BackgroundImageFix"/>
<feColorMatrix in="SourceAlpha" type="matrix" values="0 0 0 0 0 0 0 0 0 0 0 0 0 0 0 0 0 0 127 0" result="hardAlpha"/>
<feOffset dy="45"/>
<feGaussianBlur stdDeviation="52"/>
<feComposite in2="hardAlpha" operator="out"/>
<feColorMatrix type="matrix" values="0 0 0 0 0 0 0 0 0 0 0 0 0 0 0 0 0 0 0.06 0"/>
<feBlend mode="normal" in2="BackgroundImageFix" result="effect1_dropShadow_330_5137"/>
<feBlend mode="normal" in="SourceGraphic" in2="effect1_dropShadow_330_5137" result="shape"/>
</filter>
</defs>
</svg>
