<svg width="36" height="36" viewBox="0 0 36 36" fill="none" xmlns="http://www.w3.org/2000/svg">
<rect x="0.6" y="0.6" width="34.8" height="34.8" rx="3.4" stroke="#FA39A2" stroke-width="1.2"/>
<path d="M21 30C23.9667 30 26.8668 29.2962 29.3335 27.9776C31.8003 26.6591 33.7229 24.7849 34.8582 22.5922C35.9935 20.3995 36.2906 17.9867 35.7118 15.6589C35.133 13.3311 33.7044 11.193 31.6066 9.51472C29.5088 7.83649 26.8361 6.6936 23.9264 6.23058C21.0166 5.76756 18.0006 6.0052 15.2597 6.91345C12.5189 7.8217 10.1762 9.35977 8.52796 11.3332C6.87973 13.3065 6 15.6266 6 18C6.00451 21.1815 7.58631 24.2316 10.3984 26.4813C13.2104 28.7309 17.0231 29.9964 21 30V30ZM21 7.09091C23.697 7.09091 26.3335 7.73072 28.576 8.92943C30.8184 10.1281 32.5662 11.8319 33.5984 13.8253C34.6305 15.8186 34.9005 18.0121 34.3743 20.1283C33.8482 22.2444 32.5494 24.1882 30.6424 25.7139C28.7353 27.2396 26.3055 28.2785 23.6603 28.6995C21.0151 29.1204 18.2733 28.9044 15.7816 28.0787C13.2899 27.253 11.1602 25.8548 9.66178 24.0608C8.16339 22.2668 7.36364 20.1576 7.36364 18C7.36779 15.1078 8.8058 12.3349 11.3622 10.2898C13.9186 8.24465 17.3847 7.09423 21 7.09091V7.09091Z" fill="#FA39A2"/>
<path d="M13.5791 20.8421H14.8422C15.1772 20.8421 15.4985 20.7223 15.7354 20.5091C15.9723 20.2959 16.1054 20.0068 16.1054 19.7053V16.2947C16.1054 15.9932 15.9723 15.7041 15.7354 15.4909C15.4985 15.2777 15.1772 15.1579 14.8422 15.1579H13.5791C13.2441 15.1579 12.9228 15.2777 12.6859 15.4909C12.449 15.7041 12.3159 15.9932 12.3159 16.2947V19.7053C12.3159 20.0068 12.449 20.2959 12.6859 20.5091C12.9228 20.7223 13.2441 20.8421 13.5791 20.8421ZM13.5791 16.2947H14.8422V19.7053H13.5791V16.2947Z" fill="#FA39A2"/>
<path d="M21.1577 20.8421H22.4208C22.7559 20.8421 23.0771 20.7223 23.314 20.5091C23.5509 20.2959 23.684 20.0068 23.684 19.7053V16.2947C23.684 15.9932 23.5509 15.7041 23.314 15.4909C23.0771 15.2777 22.7559 15.1579 22.4208 15.1579H21.1577C20.8227 15.1579 20.5014 15.2777 20.2645 15.4909C20.0276 15.7041 19.8945 15.9932 19.8945 16.2947V19.7053C19.8945 20.0068 20.0276 20.2959 20.2645 20.5091C20.5014 20.7223 20.8227 20.8421 21.1577 20.8421ZM21.1577 16.2947H22.4208V19.7053H21.1577V16.2947Z" fill="#FA39A2"/>
</svg>
