<svg width="266" height="200" viewBox="0 0 266 200" fill="none" xmlns="http://www.w3.org/2000/svg">
<path d="M265.96 175.978H-6.10352e-05V176.111H265.96V175.978Z" fill="#EBEBEB"/>
<path d="M239.31 184.537H198.049V184.67H239.31V184.537Z" fill="#EBEBEB"/>
<path d="M177.305 182.675H147.874V182.808H177.305V182.675Z" fill="#EBEBEB"/>
<path d="M221.161 179.601H189.768V179.734H221.161V179.601Z" fill="#EBEBEB"/>
<path d="M34.6545 180.495H27.9044V180.627H34.6545V180.495Z" fill="#EBEBEB"/>
<path d="M77.4847 180.495H39.3939V180.627H77.4847V180.495Z" fill="#EBEBEB"/>
<path d="M117.022 182.739H92.1072V182.872H117.022V182.739Z" fill="#EBEBEB"/>
<path d="M126.065 152.255H23.3566C22.552 152.253 21.7808 151.933 21.2124 151.363C20.6439 150.794 20.3246 150.022 20.3246 149.218V4.83867C20.3317 4.03867 20.654 3.27375 21.2217 2.71004C21.7894 2.14633 22.5566 1.82937 23.3566 1.828H126.065C126.87 1.828 127.643 2.148 128.213 2.7176C128.782 3.28719 129.102 4.05973 129.102 4.86526V149.218C129.102 150.023 128.782 150.796 128.213 151.365C127.643 151.935 126.87 152.255 126.065 152.255ZM23.3566 1.93439C22.5872 1.9358 21.8499 2.2424 21.3064 2.78691C20.7629 3.33141 20.4576 4.06932 20.4576 4.83867V149.218C20.4576 149.987 20.7629 150.725 21.3064 151.269C21.8499 151.814 22.5872 152.12 23.3566 152.122H126.065C126.835 152.12 127.573 151.814 128.117 151.27C128.661 150.725 128.968 149.987 128.969 149.218V4.83867C128.968 4.06884 128.661 3.33094 128.117 2.78658C127.573 2.24223 126.835 1.93579 126.065 1.93439H23.3566Z" fill="#EBEBEB"/>
<path d="M241.124 152.255H138.411C137.606 152.253 136.834 151.933 136.265 151.364C135.695 150.794 135.375 150.023 135.373 149.218V4.83867C135.382 4.03819 135.705 3.27327 136.274 2.70971C136.842 2.14615 137.61 1.82936 138.411 1.828H241.124C241.923 1.83077 242.689 2.14835 243.256 2.71191C243.822 3.27547 244.144 4.03959 244.151 4.83867V149.218C244.151 150.021 243.832 150.792 243.265 151.361C242.698 151.931 241.928 152.252 241.124 152.255ZM138.411 1.93439C137.641 1.93579 136.903 2.24223 136.359 2.78658C135.814 3.33094 135.508 4.06884 135.506 4.83867V149.218C135.508 149.987 135.814 150.725 136.359 151.27C136.903 151.814 137.641 152.12 138.411 152.122H241.124C241.894 152.12 242.632 151.814 243.176 151.27C243.721 150.725 244.027 149.987 244.029 149.218V4.83867C244.027 4.06884 243.721 3.33094 243.176 2.78658C242.632 2.24223 241.894 1.93579 241.124 1.93439H138.411Z" fill="#EBEBEB"/>
<path d="M100.496 24.0515H29.9683V139.148H100.496V24.0515Z" fill="#E6E6E6"/>
<path d="M102.65 24.0515H30.9736V139.148H102.65V24.0515Z" fill="#F0F0F0"/>
<path d="M100.496 139.148H29.9683V142.409H100.496V139.148Z" fill="#E6E6E6"/>
<path d="M106.235 139.148H34.5588V142.409H106.235V139.148Z" fill="#F0F0F0"/>
<path d="M99.6338 136.132V27.062L33.9843 27.062V136.132H99.6338Z" fill="#FAFAFA"/>
<path d="M48.7876 136.132L57.176 27.062H70.2612L61.8728 136.132H48.7876Z" fill="white"/>
<path d="M35.3833 133.132C35.3549 133.133 35.3266 133.128 35.3002 133.118C35.2738 133.107 35.2497 133.092 35.2294 133.072C35.209 133.052 35.1929 133.028 35.1819 133.002C35.1708 132.976 35.1652 132.948 35.1652 132.92V29.0251C35.1603 28.994 35.1622 28.9622 35.1707 28.9318C35.1793 28.9015 35.1943 28.8734 35.2148 28.8495C35.2353 28.8255 35.2607 28.8063 35.2893 28.7931C35.3179 28.7799 35.3491 28.7731 35.3806 28.7731C35.4121 28.7731 35.4432 28.7799 35.4719 28.7931C35.5005 28.8063 35.5259 28.8255 35.5464 28.8495C35.5668 28.8734 35.5819 28.9015 35.5905 28.9318C35.599 28.9622 35.6009 28.994 35.596 29.0251V132.92C35.596 132.948 35.5905 132.975 35.5798 133.001C35.5691 133.027 35.5535 133.05 35.5337 133.07C35.5139 133.09 35.4905 133.106 35.4647 133.116C35.4389 133.127 35.4112 133.132 35.3833 133.132Z" fill="#F0F0F0"/>
<path d="M64.6867 136.132L73.0698 27.062H78.1709L69.7878 136.132H64.6867Z" fill="white"/>
<path d="M99.6338 136.132V27.062H99.2508V136.132H99.6338Z" fill="#E6E6E6"/>
<path opacity="0.6" d="M103.363 31.6048H32.8354L32.5534 28.2324H103.086L103.363 31.6048Z" fill="#EBEBEB"/>
<path opacity="0.6" d="M103.363 37.1369H32.8354L32.5534 33.7645H103.086L103.363 37.1369Z" fill="#EBEBEB"/>
<path opacity="0.6" d="M103.363 42.6634H32.8354L32.5534 39.291H103.086L103.363 42.6634Z" fill="#EBEBEB"/>
<path opacity="0.6" d="M103.363 48.1954H32.8354L32.5534 44.823H103.086L103.363 48.1954Z" fill="#EBEBEB"/>
<path opacity="0.6" d="M103.363 53.7222H32.8354L32.5534 50.3499H103.086L103.363 53.7222Z" fill="#EBEBEB"/>
<path opacity="0.6" d="M103.363 59.254H32.8354L32.5534 55.8816H103.086L103.363 59.254Z" fill="#EBEBEB"/>
<path d="M213.199 24.0515H145.613V175.978H213.199V24.0515Z" fill="#F0F0F0"/>
<path d="M213.204 24.0515H147.044V175.978H213.204V24.0515Z" fill="#F5F5F5"/>
<path d="M209.167 172.531V27.4983L151.07 27.4983V172.531H209.167Z" fill="#F0F0F0"/>
<path d="M156.783 54.4881C156.783 50.287 158.452 46.2579 161.423 43.2872C164.393 40.3165 168.423 38.6476 172.624 38.6476H187.624C189.704 38.6476 191.763 39.0573 193.685 39.8535C195.607 40.6496 197.352 41.8165 198.823 43.2875C200.293 44.7585 201.46 46.5048 202.255 48.4266C203.051 50.3485 203.46 52.4082 203.459 54.4881H156.783Z" fill="#FAFAFA"/>
<path d="M203.464 163.515V128.866H156.788V163.515H203.464Z" fill="#F5F5F5"/>
<path d="M156.778 124.398H177.368V64.2434H156.778V124.398Z" fill="#F5F5F5"/>
<path d="M182.869 124.398H203.459V64.2434H182.869V124.398Z" fill="#F5F5F5"/>
<path d="M195.991 94.0467H204.427C204.774 94.0467 205.107 93.9089 205.353 93.6635C205.598 93.4181 205.736 93.0853 205.736 92.7382C205.734 92.3916 205.596 92.0596 205.351 91.8145C205.106 91.5694 204.774 91.4311 204.427 91.4297H195.991C195.645 91.4311 195.313 91.5696 195.069 91.8148C194.825 92.0601 194.688 92.3921 194.688 92.7382C194.688 93.0843 194.825 93.4164 195.069 93.6616C195.313 93.9068 195.645 94.0453 195.991 94.0467Z" fill="#E0E0E0"/>
<path d="M209.167 172.531V27.4983H208.119V172.531H209.167Z" fill="#F0F0F0"/>
<path d="M243.199 97.6268H219.129L221.262 69.4617H241.066L243.199 97.6268Z" fill="#EBEBEB"/>
<path d="M237.917 97.6268H233.779L232.901 69.4617H236.72L237.917 97.6268Z" fill="#F5F5F5"/>
<path d="M232.369 97.6267H229.959V175.978H232.369V97.6267Z" fill="#F0F0F0"/>
<path d="M232.348 132.712H229.981C229.393 132.712 228.917 133.189 228.917 133.776V136.143C228.917 136.731 229.393 137.207 229.981 137.207H232.348C232.935 137.207 233.412 136.731 233.412 136.143V133.776C233.412 133.189 232.935 132.712 232.348 132.712Z" fill="#F0F0F0"/>
<path d="M232.348 139.914H229.981C229.393 139.914 228.917 140.391 228.917 140.978V143.345C228.917 143.933 229.393 144.409 229.981 144.409H232.348C232.935 144.409 233.412 143.933 233.412 143.345V140.978C233.412 140.391 232.935 139.914 232.348 139.914Z" fill="#F0F0F0"/>
<path d="M234.975 175.978H227.353C227.353 175.548 227.524 175.134 227.828 174.829C228.132 174.524 228.545 174.352 228.975 174.351H233.348C233.779 174.351 234.193 174.522 234.499 174.827C234.804 175.133 234.975 175.547 234.975 175.978Z" fill="#F0F0F0"/>
<path d="M232.369 97.6267H229.959V99.1001H232.369V97.6267Z" fill="#E0E0E0"/>
<path d="M138.762 97.6268H114.692L116.825 69.4617H136.629L138.762 97.6268Z" fill="#EBEBEB"/>
<path d="M133.48 97.6268H129.341L128.464 69.4617H132.283L133.48 97.6268Z" fill="#F5F5F5"/>
<path d="M127.932 97.6267H125.522V175.978H127.932V97.6267Z" fill="#F0F0F0"/>
<path d="M127.911 132.712H125.544C124.956 132.712 124.48 133.189 124.48 133.776V136.143C124.48 136.731 124.956 137.207 125.544 137.207H127.911C128.498 137.207 128.975 136.731 128.975 136.143V133.776C128.975 133.189 128.498 132.712 127.911 132.712Z" fill="#F0F0F0"/>
<path d="M127.911 139.914H125.544C124.956 139.914 124.48 140.391 124.48 140.978V143.345C124.48 143.933 124.956 144.409 125.544 144.409H127.911C128.498 144.409 128.975 143.933 128.975 143.345V140.978C128.975 140.391 128.498 139.914 127.911 139.914Z" fill="#F0F0F0"/>
<path d="M130.538 175.978H122.916C122.916 175.552 123.083 175.143 123.381 174.839C123.68 174.534 124.086 174.359 124.512 174.351H128.889C129.315 174.359 129.721 174.534 130.02 174.839C130.318 175.143 130.485 175.552 130.485 175.978H130.538Z" fill="#F0F0F0"/>
<path d="M127.932 97.6267H125.522V99.1001H127.932V97.6267Z" fill="#E0E0E0"/>
<path d="M132.98 200C189.939 200 236.114 197.304 236.114 193.979C236.114 190.653 189.939 187.958 132.98 187.958C76.0206 187.958 29.846 190.653 29.846 193.979C29.846 197.304 76.0206 200 132.98 200Z" fill="#F5F5F5"/>
<path opacity="0.1" d="M152.453 27.7856L151.453 58.4987L175.533 56.8338L152.453 27.7856Z" fill="#384AED"/>
<path opacity="0.1" d="M135.374 122.271L135.996 99.5522L45.793 100.776L135.374 122.271Z" fill="#384AED"/>
<path d="M44.3089 30.525H153.352V99.1426C153.352 99.5856 153.176 100.01 152.863 100.324C152.55 100.637 152.125 100.813 151.682 100.813H45.9792C45.7598 100.813 45.5426 100.77 45.34 100.686C45.1373 100.602 44.9532 100.479 44.7981 100.324C44.643 100.169 44.52 99.9845 44.4361 99.7818C44.3521 99.5792 44.3089 99.362 44.3089 99.1426V30.525Z" fill="#384AED"/>
<path opacity="0.7" d="M44.3089 30.525H153.352V99.1426C153.352 99.5856 153.176 100.01 152.863 100.324C152.55 100.637 152.125 100.813 151.682 100.813H45.9792C45.7598 100.813 45.5426 100.77 45.34 100.686C45.1373 100.602 44.9532 100.479 44.7981 100.324C44.643 100.169 44.52 99.9845 44.4361 99.7818C44.3521 99.5792 44.3089 99.362 44.3089 99.1426V30.525Z" fill="white"/>
<path opacity="0.9" d="M142.379 35.1104H55.2665C54.4351 35.1104 53.7611 35.7843 53.7611 36.6157V61.0999C53.7611 61.9313 54.4351 62.6053 55.2665 62.6053H142.379C143.21 62.6053 143.884 61.9313 143.884 61.0999V36.6157C143.884 35.7843 143.21 35.1104 142.379 35.1104Z" fill="white"/>
<path opacity="0.7" d="M79.5486 66.8181H55.2665C54.4351 66.8181 53.7611 67.4921 53.7611 68.3234V73.3341C53.7611 74.1655 54.4351 74.8395 55.2665 74.8395H79.5486C80.38 74.8395 81.0539 74.1655 81.0539 73.3341V68.3234C81.0539 67.4921 80.38 66.8181 79.5486 66.8181Z" fill="#384AED"/>
<path opacity="0.7" d="M110.964 66.8181H86.6817C85.8503 66.8181 85.1763 67.4921 85.1763 68.3234V73.3341C85.1763 74.1655 85.8503 74.8395 86.6817 74.8395H110.964C111.795 74.8395 112.469 74.1655 112.469 73.3341V68.3234C112.469 67.4921 111.795 66.8181 110.964 66.8181Z" fill="#384AED"/>
<path opacity="0.7" d="M142.374 66.8181H118.091C117.26 66.8181 116.586 67.4921 116.586 68.3234V73.3341C116.586 74.1655 117.26 74.8395 118.091 74.8395H142.374C143.205 74.8395 143.879 74.1655 143.879 73.3341V68.3234C143.879 67.4921 143.205 66.8181 142.374 66.8181Z" fill="#384AED"/>
<path opacity="0.3" d="M55.2665 78.0841H79.5486C79.7463 78.0841 79.942 78.123 80.1247 78.1987C80.3073 78.2743 80.4732 78.3852 80.613 78.525C80.7528 78.6648 80.8637 78.8307 80.9393 79.0134C81.015 79.196 81.0539 79.3918 81.0539 79.5894V100.765H53.7611V79.5894C53.7611 79.1902 53.9197 78.8073 54.202 78.525C54.4843 78.2427 54.8672 78.0841 55.2665 78.0841Z" fill="#384AED"/>
<path opacity="0.3" d="M86.7029 78.0839H110.985C111.384 78.0839 111.767 78.2425 112.049 78.5248C112.332 78.8071 112.49 79.19 112.49 79.5892V100.765H85.1763V79.5892C85.1763 79.3897 85.2159 79.1922 85.2929 79.0082C85.3699 78.8242 85.4827 78.6573 85.6247 78.5172C85.7668 78.3771 85.9352 78.2667 86.1203 78.1923C86.3054 78.1179 86.5035 78.0811 86.7029 78.0839Z" fill="#384AED"/>
<path opacity="0.3" d="M118.086 78.0841H142.368C142.768 78.0841 143.15 78.2427 143.433 78.525C143.715 78.8073 143.874 79.1902 143.874 79.5894V100.765H116.586V79.5894C116.586 79.1911 116.744 78.809 117.025 78.5269C117.306 78.2447 117.688 78.0855 118.086 78.0841Z" fill="#384AED"/>
<path d="M77.5432 23.9346H74.8836V24.4665H77.5432V23.9346Z" fill="#384AED"/>
<path d="M72.5326 23.9346H66.0166V24.4665H72.5326V23.9346Z" fill="#384AED"/>
<path d="M148.608 25.7964H49.0377C48.4144 25.7964 47.7974 25.9196 47.2219 26.1589C46.6464 26.3982 46.124 26.7489 45.6845 27.1908C45.245 27.6328 44.8973 28.1572 44.6612 28.734C44.4251 29.3108 44.3054 29.9286 44.3089 30.5518H153.352C153.356 29.9272 153.236 29.3081 152.999 28.7303C152.762 28.1524 152.412 27.6273 151.971 27.1852C151.53 26.743 151.006 26.3927 150.428 26.1543C149.851 25.9159 149.232 25.7943 148.608 25.7964Z" fill="#384AED"/>
<path d="M51.0058 28.1581C51.0069 28.3458 50.9521 28.5296 50.8485 28.6861C50.7448 28.8426 50.597 28.9648 50.4238 29.0371C50.2506 29.1094 50.0597 29.1286 49.8756 29.0922C49.6914 29.0559 49.5222 28.9656 49.3895 28.8329C49.2568 28.7001 49.1665 28.5309 49.1301 28.3468C49.0938 28.1626 49.113 27.9718 49.1853 27.7986C49.2576 27.6254 49.3798 27.4775 49.5363 27.3739C49.6928 27.2703 49.8766 27.2155 50.0643 27.2166C50.3136 27.218 50.5522 27.3176 50.7285 27.4939C50.9048 27.6701 51.0044 27.9088 51.0058 28.1581Z" fill="white"/>
<path d="M54.0483 28.1102C54.0483 28.2964 53.9931 28.4784 53.8897 28.6333C53.7862 28.7881 53.6392 28.9088 53.4671 28.98C53.2951 29.0513 53.1058 29.0699 52.9232 29.0336C52.7405 28.9973 52.5728 28.9076 52.4411 28.7759C52.3094 28.6443 52.2198 28.4765 52.1834 28.2939C52.1471 28.1112 52.1658 27.9219 52.237 27.7499C52.3083 27.5779 52.4289 27.4308 52.5838 27.3274C52.7386 27.2239 52.9206 27.1687 53.1068 27.1687C53.3561 27.1701 53.5948 27.2697 53.771 27.446C53.9473 27.6223 54.0469 27.8609 54.0483 28.1102Z" fill="white"/>
<path d="M57.0909 28.1102C57.0909 28.2964 57.0357 28.4784 56.9323 28.6333C56.8288 28.7881 56.6818 28.9088 56.5097 28.98C56.3377 29.0513 56.1484 29.0699 55.9658 29.0336C55.7831 28.9973 55.6154 28.9076 55.4837 28.7759C55.352 28.6443 55.2624 28.4765 55.226 28.2939C55.1897 28.1112 55.2084 27.9219 55.2796 27.7499C55.3509 27.5779 55.4715 27.4308 55.6264 27.3274C55.7812 27.2239 55.9632 27.1687 56.1494 27.1687C56.3987 27.1701 56.6374 27.2697 56.8136 27.446C56.9899 27.6223 57.0895 27.8609 57.0909 28.1102Z" fill="white"/>
<path d="M134.517 62.1372H176.539V120.579C176.539 121.143 176.315 121.685 175.916 122.084C175.517 122.483 174.975 122.707 174.411 122.707H136.618C136.054 122.707 135.513 122.483 135.114 122.084C134.715 121.685 134.491 121.143 134.491 120.579V62.1372H134.517Z" fill="#384AED"/>
<path opacity="0.8" d="M134.517 62.1372H176.539V120.579C176.539 121.143 176.315 121.685 175.916 122.084C175.517 122.483 174.975 122.707 174.411 122.707H136.618C136.054 122.707 135.513 122.483 135.114 122.084C134.715 121.685 134.491 121.143 134.491 120.579V62.1372H134.517Z" fill="white"/>
<path opacity="0.9" d="M171.65 65.2968H139.389C138.814 65.2968 138.347 65.7635 138.347 66.3393V77.4245C138.347 78.0003 138.814 78.4671 139.389 78.4671H171.65C172.226 78.4671 172.693 78.0003 172.693 77.4245V66.3393C172.693 65.7635 172.226 65.2968 171.65 65.2968Z" fill="white"/>
<path opacity="0.7" d="M170.799 81.0732H140.241C139.195 81.0732 138.347 81.921 138.347 82.9669V89.2701C138.347 90.3159 139.195 91.1638 140.241 91.1638H170.799C171.845 91.1638 172.693 90.3159 172.693 89.2701V82.9669C172.693 81.921 171.845 81.0732 170.799 81.0732Z" fill="#384AED"/>
<path opacity="0.7" d="M170.799 94.5043H140.241C139.195 94.5043 138.347 95.3521 138.347 96.3979V102.701C138.347 103.747 139.195 104.595 140.241 104.595H170.799C171.845 104.595 172.693 103.747 172.693 102.701V96.3979C172.693 95.3521 171.845 94.5043 170.799 94.5043Z" fill="#384AED"/>
<path opacity="0.7" d="M170.799 107.935H140.241C139.195 107.935 138.347 108.783 138.347 109.829V116.132C138.347 117.178 139.195 118.026 140.241 118.026H170.799C171.845 118.026 172.693 117.178 172.693 116.132V109.829C172.693 108.783 171.845 107.935 170.799 107.935Z" fill="#384AED"/>
<path d="M137.278 56.1902H173.757C174.49 56.1902 175.194 56.4816 175.713 57.0003C176.231 57.5191 176.523 58.2226 176.523 58.9562V62.1477H134.501V58.9562C134.501 58.5921 134.573 58.2315 134.713 57.8952C134.852 57.5589 135.057 57.2536 135.315 56.9966C135.573 56.7396 135.879 56.5361 136.216 56.3977C136.553 56.2593 136.914 56.1888 137.278 56.1902Z" fill="#384AED"/>
<path d="M193.151 190.782H189.257L189.262 181.755H193.161L193.151 190.782Z" fill="#FFB573"/>
<path d="M224.459 183.33L220.731 184.457L216.624 176.271L220.353 175.143L224.459 183.33Z" fill="#FFB573"/>
<path d="M219.289 185.133C219.042 185.228 218.771 185.238 218.518 185.16C218.436 185.121 218.365 185.062 218.312 184.989C218.259 184.915 218.225 184.829 218.215 184.739C218.202 184.686 218.204 184.631 218.219 184.578C218.235 184.526 218.265 184.479 218.305 184.441C218.656 184.106 220.055 184.489 220.215 184.532C220.231 184.538 220.246 184.549 220.257 184.563C220.269 184.577 220.276 184.594 220.278 184.612C220.279 184.63 220.275 184.648 220.267 184.663C220.258 184.679 220.246 184.693 220.231 184.702C219.934 184.881 219.618 185.026 219.289 185.133ZM218.534 184.521C218.492 184.53 218.453 184.55 218.422 184.58C218.407 184.595 218.396 184.614 218.392 184.634C218.387 184.655 218.388 184.677 218.395 184.697C218.401 184.759 218.423 184.818 218.458 184.87C218.493 184.921 218.542 184.962 218.598 184.989C219.071 185.055 219.551 184.935 219.938 184.654C219.483 184.518 219.006 184.473 218.534 184.521Z" fill="#384AED"/>
<path d="M220.215 184.713H220.167C219.731 184.617 218.773 184.016 218.741 183.569C218.738 183.499 218.758 183.429 218.799 183.371C218.839 183.314 218.897 183.271 218.965 183.25C219.028 183.22 219.097 183.204 219.167 183.204C219.237 183.204 219.306 183.22 219.369 183.25C219.901 183.473 220.262 184.537 220.278 184.585C220.286 184.6 220.29 184.616 220.29 184.633C220.29 184.649 220.286 184.666 220.278 184.681L220.215 184.713ZM219.071 183.409C219.057 183.405 219.042 183.405 219.028 183.409C218.922 183.457 218.922 183.51 218.922 183.537C218.922 183.798 219.576 184.282 220.034 184.463C219.911 184.154 219.629 183.553 219.294 183.399C219.219 183.374 219.138 183.378 219.066 183.409H219.071Z" fill="#384AED"/>
<path d="M220.353 184.101L224.544 182.835C224.617 182.813 224.695 182.816 224.765 182.845C224.835 182.875 224.892 182.927 224.927 182.994L226.523 186.133C226.561 186.212 226.581 186.298 226.582 186.385C226.583 186.472 226.565 186.559 226.53 186.638C226.494 186.718 226.442 186.789 226.377 186.847C226.311 186.905 226.234 186.948 226.151 186.973C224.683 187.388 223.949 187.505 222.103 188.074C220.97 188.415 217.316 190.255 215.773 190.734C214.23 191.213 213.603 189.702 214.209 189.361C216.917 187.856 219.103 185.638 219.81 184.521C219.935 184.321 220.128 184.172 220.353 184.101Z" fill="#263238"/>
<path d="M187.65 191.011C187.32 191.043 186.989 190.958 186.714 190.771C186.653 190.716 186.606 190.646 186.579 190.568C186.552 190.49 186.545 190.406 186.56 190.324C186.563 190.273 186.58 190.223 186.609 190.18C186.638 190.137 186.678 190.102 186.725 190.08C187.209 189.814 188.741 190.612 188.911 190.702C188.929 190.71 188.943 190.724 188.952 190.741C188.961 190.759 188.963 190.779 188.959 190.798C188.955 190.817 188.945 190.834 188.931 190.847C188.916 190.861 188.899 190.869 188.879 190.872C188.475 190.958 188.064 191.004 187.65 191.011ZM186.98 190.207C186.92 190.205 186.86 190.215 186.805 190.239C186.787 190.25 186.772 190.265 186.761 190.282C186.75 190.3 186.743 190.32 186.741 190.34C186.733 190.394 186.739 190.449 186.756 190.501C186.774 190.553 186.803 190.6 186.842 190.638C187.071 190.851 187.714 190.883 188.576 190.739C188.079 190.471 187.539 190.291 186.98 190.207Z" fill="#384AED"/>
<path d="M188.863 190.878H188.826C188.363 190.665 187.47 189.814 187.56 189.383C187.56 189.282 187.661 189.149 187.916 189.128C188.011 189.111 188.108 189.117 188.2 189.143C188.292 189.17 188.377 189.218 188.448 189.282C188.922 189.691 188.98 190.739 188.98 190.787C188.98 190.803 188.976 190.818 188.969 190.832C188.962 190.846 188.951 190.858 188.938 190.867C188.915 190.879 188.889 190.883 188.863 190.878ZM187.98 189.282H187.927C187.757 189.282 187.746 189.367 187.741 189.388C187.688 189.649 188.273 190.314 188.757 190.601C188.734 190.161 188.572 189.74 188.294 189.399C188.205 189.328 188.094 189.292 187.98 189.298V189.282Z" fill="#384AED"/>
<path d="M189.299 190.33H193.555C193.631 190.329 193.705 190.355 193.764 190.404C193.822 190.452 193.861 190.52 193.874 190.596L194.491 194.064C194.506 194.149 194.502 194.237 194.479 194.321C194.456 194.405 194.415 194.482 194.358 194.548C194.302 194.614 194.232 194.667 194.153 194.703C194.073 194.739 193.987 194.756 193.901 194.755C192.369 194.729 190.177 194.638 188.225 194.638C185.97 194.638 184.012 194.761 181.369 194.761C179.773 194.761 179.395 193.165 180.071 193C183.15 192.33 185.64 192.26 188.347 190.633C188.632 190.448 188.961 190.343 189.299 190.33Z" fill="#263238"/>
<path d="M203.161 48.5944C202.475 51.4454 202.044 54.9774 203.954 56.8817C203.954 56.8817 202.683 59.7753 197.385 59.7753C192.544 59.7753 195.092 56.8817 195.092 56.8817C198.284 56.1263 198.31 52.1901 197.858 49.9667L203.161 48.5944Z" fill="#FFB573"/>
<path opacity="0.2" d="M189.262 181.76L189.257 186.409H193.156L193.161 181.76H189.262Z" fill="black"/>
<path opacity="0.2" d="M220.353 175.143L216.624 176.276L218.741 180.495L222.475 179.367L220.353 175.143Z" fill="black"/>
<path d="M211.746 60.4456L206.746 63.3179C206.746 63.3179 211.991 75.5521 211.475 77.5308C210.768 80.1904 210.411 85.6213 209.321 89.1479C209.752 89.632 211.209 90.499 211.794 90.4777C213.922 86.2224 217.39 78.9617 217.188 76.4989C216.73 70.8712 211.746 60.4456 211.746 60.4456Z" fill="#FFB573"/>
<path d="M209.321 89.1479L205.895 90.5629L209.332 93.4193C209.332 93.4193 212.289 92.0841 211.746 89.5735L209.321 89.1479Z" fill="#FFB573"/>
<path d="M203.98 93.6267L207.22 96.0576L209.332 93.4193L205.895 90.5629L203.98 93.6267Z" fill="#FFB573"/>
<path d="M210.895 57.7647C214.523 58.5041 217.47 71.4617 217.47 71.4617L209.3 75.3925C209.3 75.3925 206.502 69.1478 205.268 64.5627C203.98 59.7541 207.002 56.9722 210.895 57.7647Z" fill="#384AED"/>
<path opacity="0.2" d="M207.98 62.222C206.459 60.6262 207.151 66.9773 207.534 71.2008C207.858 72.0412 208.172 72.7965 208.443 73.4402C210.64 70.2593 210.108 64.456 207.98 62.222Z" fill="black"/>
<path d="M195.214 58.0626C195.214 56.6796 195.012 56.0253 195.39 55.5147C195.768 55.004 203.257 54.3976 204.55 54.9828C204.991 55.1796 205.246 57.1689 204.693 58.0573C203.885 59.3445 195.214 58.0626 195.214 58.0626Z" fill="#384AED"/>
<path opacity="0.2" d="M195.214 58.0626C195.214 56.6796 195.012 56.0253 195.39 55.5147C195.768 55.004 203.257 54.3976 204.55 54.9828C204.991 55.1796 205.246 57.1689 204.693 58.0573C203.885 59.3445 195.214 58.0626 195.214 58.0626Z" fill="black"/>
<path d="M189.049 57.9668C189.049 57.9668 183.932 69.7328 187.337 91.6479H208.183C208.465 88.4564 207.119 72.8392 210.895 57.7646C208.603 57.319 206.285 57.024 203.954 56.8817C201.002 56.7113 198.044 56.7113 195.092 56.8817C193.053 57.0873 191.033 57.4501 189.049 57.9668Z" fill="#384AED"/>
<path d="M192.023 63.4348L186.858 61.355C186.858 61.355 179.879 73.2061 178.422 74.2008C175.044 72.3498 173.911 73.0998 171.283 71.1583C170.618 71.2274 169.581 72.1529 169.23 72.6264C171.358 76.7221 178.427 81.7913 181.922 78.7009C186.246 74.8764 192.023 63.4348 192.023 63.4348Z" fill="#FFB573"/>
<path opacity="0.2" d="M192.672 62.0307C191.895 60.0307 190.268 59.1956 188.507 59.4881C187.73 61.9403 186.379 67.3286 186.188 75.4457L188.209 75.9032C188.209 75.9032 194.007 65.4509 192.672 62.0307Z" fill="black"/>
<path d="M193.56 60.6317C194.72 64.1211 187.613 74.3872 187.613 74.3872L180.007 70.1318C181.322 66.9298 182.966 63.8726 184.911 61.0094C187.853 56.9189 192.289 56.8072 193.56 60.6317Z" fill="#384AED"/>
<path d="M171.411 71.27L167.938 69.2646L165.906 73.3072C167.309 73.7696 168.779 74.0013 170.257 73.9934L171.411 71.27Z" fill="#FFB573"/>
<path d="M166.225 69.2646L163.741 71.6264L165.906 73.3072L167.938 69.2646H166.225Z" fill="#FFB573"/>
<path d="M194.523 44.4933C194.491 44.8071 194.299 45.0252 194.097 45.0252C193.895 45.0252 193.752 44.7486 193.783 44.4348C193.815 44.1209 194.007 43.9028 194.214 43.9028C194.422 43.9028 194.555 44.1794 194.523 44.4933Z" fill="#263238"/>
<path d="M194.799 44.52C194.329 45.46 193.735 46.333 193.033 47.1158C193.235 47.2826 193.472 47.4021 193.726 47.4656C193.98 47.5291 194.245 47.535 194.502 47.4828L194.799 44.52Z" fill="#ED893E"/>
<path d="M194.151 43.4083L194.071 43.3764C194.051 43.3626 194.034 43.345 194.021 43.3246C194.008 43.3042 194 43.2815 193.996 43.2577C193.992 43.2339 193.993 43.2096 193.998 43.1861C194.004 43.1626 194.014 43.1405 194.028 43.1211C194.195 42.8701 194.418 42.6613 194.679 42.5109C194.94 42.3605 195.233 42.2725 195.534 42.254C195.557 42.2547 195.581 42.2601 195.602 42.2698C195.624 42.2795 195.644 42.2934 195.66 42.3107C195.676 42.328 195.689 42.3484 195.697 42.3706C195.706 42.3928 195.71 42.4165 195.709 42.4402C195.706 42.4896 195.685 42.5362 195.65 42.5707C195.614 42.6052 195.567 42.6251 195.518 42.6264C195.282 42.6458 195.055 42.7193 194.853 42.8411C194.651 42.9629 194.48 43.1297 194.353 43.3285C194.331 43.3602 194.3 43.3846 194.264 43.3988C194.228 43.413 194.188 43.4163 194.151 43.4083Z" fill="#263238"/>
<path d="M205.113 44.222C204.48 48.0625 204.31 50.3338 202.167 52.2008C201.486 52.817 200.649 53.2335 199.746 53.4048C198.844 53.5761 197.913 53.4954 197.053 53.1716C196.194 52.8479 195.441 52.2935 194.876 51.5696C194.312 50.8456 193.957 49.98 193.853 49.0678C193.379 45.5571 194.486 39.8709 198.406 38.5518C199.244 38.2446 200.148 38.1646 201.026 38.3201C201.905 38.4756 202.727 38.8609 203.408 39.437C204.089 40.013 204.606 40.7592 204.906 41.5996C205.205 42.4401 205.277 43.3449 205.113 44.222Z" fill="#FFB573"/>
<path d="M197.108 45.8762C196.31 43.3496 195.273 39.4453 198.108 37.9985C200.943 36.5517 203.177 38.5623 206.268 40.4241C209.752 42.5198 207.624 49.1688 203.422 50.7327C199.895 52.0465 196.454 49.4082 197.108 45.8762Z" fill="#263238"/>
<path d="M197.417 41.1901C194.916 41.8656 193.193 40.2592 194.427 38.4081C195.991 36.0517 202.14 36.6687 204.443 39.2166C206.746 41.7645 199.151 42.9826 197.417 41.1901Z" fill="#263238"/>
<path d="M198.369 39.3285C195.315 38.7646 194.065 36.2753 196.624 34.7327C199.039 33.2805 205.826 35.7965 206.959 39.8072C208.092 43.8179 199.294 42.1742 198.369 39.3285Z" fill="#263238"/>
<path d="M206.507 41.2379C206.97 40.8655 208.81 40.3336 209.018 42.3922C208.346 41.7186 207.455 41.3089 206.507 41.2379Z" fill="#263238"/>
<path d="M207.826 38.6741C208.193 39.1422 208.715 40.9826 206.651 41.1794C207.329 40.5113 207.746 39.6227 207.826 38.6741Z" fill="#263238"/>
<path d="M199.305 45.7008C199.027 46.5306 198.443 47.2231 197.672 47.637C196.651 48.1689 195.943 47.3285 196.076 46.2434C196.188 45.27 196.853 43.8125 197.954 43.7274C199.055 43.6423 199.64 44.6849 199.305 45.7008Z" fill="#FFB573"/>
<path d="M194.73 91.6479C194.73 91.6479 197.842 121.435 199.778 132.606C201.906 144.84 216.8 180.159 216.8 180.159L223.635 178.095C223.635 178.095 212.996 145.622 211.991 133.526C210.927 120.393 208.204 91.6639 208.204 91.6639L194.73 91.6479Z" fill="#263238"/>
<path opacity="0.2" d="M199.523 102.063C199.214 101.595 198.922 101.435 198.64 101.531H198.587C198.521 101.557 198.461 101.593 198.406 101.637C198.349 101.685 198.295 101.736 198.246 101.792C198.214 101.824 198.188 101.861 198.156 101.898C198.124 101.935 198.076 102.01 198.034 102.074C197.937 102.229 197.85 102.391 197.773 102.558C197.73 102.659 197.683 102.765 197.64 102.871C197.597 102.978 197.534 103.143 197.48 103.292C197.427 103.441 197.342 103.696 197.278 103.914C197.278 103.972 197.241 104.026 197.225 104.084C197.209 104.143 197.156 104.329 197.119 104.451L197.039 104.77C196.98 104.983 196.927 105.196 196.874 105.419C196.821 105.643 196.768 105.903 196.714 106.153C196.714 106.238 196.677 106.329 196.656 106.414C196.592 106.733 196.528 107.063 196.464 107.393C197.321 114.808 198.347 123.308 199.241 129.239C199.305 129.047 199.369 128.845 199.433 128.627C199.707 127.639 199.929 126.638 200.097 125.627C201.422 117.983 201.523 105.111 199.523 102.063Z" fill="black"/>
<path d="M187.337 91.6479C187.337 91.6479 185.517 120.786 185.416 132.675C185.31 145.037 187.847 185.51 187.847 185.51H194.448C194.448 185.51 196.443 145.76 197.273 133.616C198.172 120.382 201.039 91.6479 201.039 91.6479H187.337Z" fill="#263238"/>
<path d="M194.975 183.489C195.002 183.489 194.879 185.644 194.879 185.644H187.268L187.055 183.223L194.975 183.489Z" fill="#384AED"/>
<path d="M223.092 175.67C223.263 176.005 223.986 178.106 223.986 178.106L216.491 180.378L215.262 178.356L223.092 175.67Z" fill="#384AED"/>
</svg>
