<svg width="270" height="200" viewBox="0 0 270 200" fill="none" xmlns="http://www.w3.org/2000/svg">
<path d="M269.054 175.757H0.640991V175.891H269.054V175.757Z" fill="#EBEBEB"/>
<path d="M209.171 179.789H191.391V179.923H209.171V179.789Z" fill="#EBEBEB"/>
<path d="M162.763 184.33H139.126V184.464H162.763V184.33Z" fill="#EBEBEB"/>
<path d="M233.752 184.77H209.713V184.904H233.752V184.77Z" fill="#EBEBEB"/>
<path d="M52.6487 179.654H29.4632V179.789H52.6487V179.654Z" fill="#EBEBEB"/>
<path d="M60.8299 179.654H57.4318V179.789H60.8299V179.654Z" fill="#EBEBEB"/>
<path d="M122.168 181.92H71.8778V182.054H122.168V181.92Z" fill="#EBEBEB"/>
<path d="M127.869 151.814H24.213C23.401 151.813 22.6227 151.489 22.049 150.915C21.4753 150.34 21.1531 149.561 21.1531 148.749V3.03844C21.1602 2.23106 21.4855 1.45908 22.0584 0.890175C22.6314 0.321268 23.4056 0.00138307 24.213 0H127.869C128.682 0 129.461 0.322948 130.036 0.897799C130.611 1.47265 130.934 2.25232 130.934 3.06528V148.749C130.934 149.562 130.611 150.342 130.036 150.917C129.461 151.492 128.682 151.814 127.869 151.814ZM24.213 0.107366C23.4366 0.108788 22.6924 0.418223 22.1439 0.967751C21.5954 1.51728 21.2873 2.262 21.2873 3.03844V148.749C21.2873 149.526 21.5954 150.27 22.1439 150.82C22.6924 151.369 23.4366 151.679 24.213 151.68H127.869C128.646 151.679 129.39 151.37 129.94 150.82C130.489 150.271 130.798 149.526 130.8 148.749V3.03844C130.798 2.2615 130.489 1.5168 129.94 0.967423C129.39 0.418048 128.646 0.108785 127.869 0.107366H24.213Z" fill="#EBEBEB"/>
<path d="M243.99 151.814H140.329C139.516 151.813 138.737 151.49 138.163 150.915C137.588 150.341 137.265 149.562 137.263 148.749V3.03844C137.272 2.23057 137.598 1.4586 138.172 0.889839C138.746 0.32108 139.521 0.00136799 140.329 0H243.99C244.796 0.00279391 245.569 0.323303 246.141 0.892059C246.713 1.46082 247.037 2.23199 247.044 3.03844V148.749C247.044 149.56 246.723 150.338 246.15 150.913C245.578 151.487 244.801 151.812 243.99 151.814ZM140.329 0.107366C139.552 0.108785 138.807 0.418048 138.258 0.967423C137.708 1.5168 137.399 2.2615 137.398 3.03844V148.749C137.399 149.526 137.708 150.271 138.258 150.82C138.807 151.37 139.552 151.679 140.329 151.68H243.99C244.767 151.679 245.511 151.37 246.061 150.82C246.61 150.271 246.919 149.526 246.921 148.749V3.03844C246.919 2.2615 246.61 1.5168 246.061 0.967423C245.511 0.418048 244.767 0.108785 243.99 0.107366H140.329Z" fill="#EBEBEB"/>
<path d="M184.085 105.207H234.257V12.9644H184.085V105.207Z" fill="#E6E6E6"/>
<path d="M178.363 105.207H232.888V12.9644H178.363V105.207Z" fill="#F0F0F0"/>
<path d="M228.325 100.634V17.5275L182.936 17.5275V100.634H228.325Z" fill="white"/>
<path d="M68.9736 16.6953H29.4632V62.6154H68.9736V16.6953Z" fill="#E0E0E0"/>
<path d="M71.3357 16.6953H30.7999V62.6154H71.3357V16.6953Z" fill="#F5F5F5"/>
<path d="M67.9376 58.9973V20.3136L34.1927 20.3136V58.9973H67.9376Z" fill="white"/>
<path d="M124.396 43.499H84.8851V89.4191H124.396V43.499Z" fill="#E0E0E0"/>
<path d="M126.758 43.499H86.2218V89.4191H126.758V43.499Z" fill="#F5F5F5"/>
<path d="M123.359 85.8064V47.1227H89.6146V85.8064H123.359Z" fill="white"/>
<path d="M101.806 127.663C101.537 127.663 101.269 127.663 100.99 127.689C99.2772 127.812 97.6127 128.312 96.1155 129.153C94.6183 129.994 93.3254 131.155 92.3294 132.554C91.3333 133.952 90.6586 135.554 90.3535 137.244C90.0485 138.934 90.1206 140.67 90.5648 142.329C91.8369 147.28 92.4506 152.377 92.39 157.489V172.38C92.39 172.637 92.4407 172.892 92.5392 173.129C92.6378 173.367 92.7822 173.582 92.9642 173.764C93.1462 173.945 93.3623 174.089 93.6 174.187C93.8377 174.285 94.0923 174.335 94.3494 174.334H141.59V127.663H101.806Z" fill="#F0F0F0"/>
<path d="M153.245 139.306C153.177 136.332 151.973 133.497 149.88 131.383C147.787 129.268 144.964 128.036 141.991 127.938C139.018 127.841 136.12 128.885 133.893 130.858C131.666 132.83 130.278 135.581 130.016 138.544C129.936 139.819 130.062 141.099 130.392 142.334C131.661 147.286 132.275 152.383 132.217 157.494V172.386C132.217 172.904 132.423 173.401 132.789 173.767C133.156 174.134 133.653 174.34 134.171 174.34H149.095C149.613 174.34 150.11 174.134 150.477 173.767C150.843 173.401 151.049 172.904 151.049 172.386V156.624C151.005 151.828 151.612 147.048 152.853 142.415C153.123 141.401 153.255 140.355 153.245 139.306Z" fill="#F5F5F5"/>
<path d="M125.566 146.001H83.1458V174.34H125.566V146.001Z" fill="#F0F0F0"/>
<path d="M88.5194 105.862H49.3633C44.4943 105.862 41.1875 109.808 41.9766 114.671L48.0857 152.405H104.866L98.7567 114.671C97.9676 109.808 93.3831 105.862 88.5194 105.862Z" fill="#EBEBEB"/>
<path d="M100.034 105.862H60.0301C55.3973 105.862 52.2515 109.62 53.003 114.247L59.1819 152.405H115.957L109.778 114.247C109.026 109.62 104.667 105.862 100.034 105.862Z" fill="#F5F5F5"/>
<path d="M85.9212 143.413H125.024C125.701 143.413 126.351 143.682 126.831 144.162C127.31 144.641 127.579 145.291 127.579 145.968V152.41C127.579 153.088 127.31 153.738 126.831 154.217C126.351 154.696 125.701 154.966 125.024 154.966H85.9212C85.7191 154.966 85.5252 154.885 85.3822 154.742C85.2392 154.599 85.1589 154.405 85.1589 154.203V144.175C85.1589 143.973 85.2392 143.779 85.3822 143.636C85.5252 143.493 85.7191 143.413 85.9212 143.413Z" fill="#EBEBEB"/>
<path d="M43.9038 127.663C43.6354 127.663 43.367 127.663 43.0878 127.689C40.287 127.901 37.6562 129.115 35.6774 131.108C33.6987 133.102 32.5045 135.742 32.3137 138.544C32.2331 139.819 32.36 141.099 32.6895 142.334C33.9616 147.285 34.5753 152.382 34.5147 157.494V172.386C34.5147 172.904 34.7206 173.401 35.0871 173.767C35.4535 174.134 35.9505 174.34 36.4688 174.34H83.7095V127.663H43.9038Z" fill="#F0F0F0"/>
<path d="M95.3425 139.306C95.3407 137.65 94.9854 136.013 94.3003 134.505C93.6153 132.998 92.6163 131.653 91.3701 130.562C90.1239 129.471 88.6592 128.659 87.0739 128.179C85.4886 127.7 83.8192 127.564 82.1773 127.781C80.5354 127.999 78.9587 128.564 77.5528 129.439C76.1468 130.315 74.9438 131.48 74.0243 132.858C73.1047 134.235 72.4898 135.793 72.2206 137.427C71.9513 139.062 72.034 140.734 72.463 142.334C73.7325 147.286 74.3461 152.383 74.2882 157.494V172.386C74.2882 172.904 74.4941 173.401 74.8605 173.767C75.227 174.134 75.724 174.34 76.2422 174.34H91.166C91.6843 174.34 92.1813 174.134 92.5477 173.767C92.9142 173.401 93.1201 172.904 93.1201 172.386V156.624C93.077 151.828 93.6819 147.049 94.9184 142.415C95.2019 141.403 95.3446 140.357 95.3425 139.306Z" fill="#F5F5F5"/>
<path d="M140.753 175.757H44.7359C44.36 175.757 43.9995 175.608 43.7338 175.342C43.468 175.076 43.3187 174.716 43.3187 174.34H142.191C142.191 174.528 142.154 174.714 142.081 174.887C142.009 175.06 141.903 175.218 141.769 175.35C141.635 175.481 141.476 175.585 141.302 175.655C141.127 175.725 140.941 175.76 140.753 175.757Z" fill="#E0E0E0"/>
<path d="M244.221 153.913H221.116V155.808H244.221V153.913Z" fill="#E6E6E6"/>
<path d="M177.536 175.757H181.804V132.129H177.536V175.757Z" fill="#E6E6E6"/>
<path d="M162.763 155.814H221.116V153.919H162.763V155.814Z" fill="#F5F5F5"/>
<path d="M244.221 164.29H221.116V166.185H244.221V164.29Z" fill="#E6E6E6"/>
<path d="M162.763 166.185H221.116V164.29H162.763V166.185Z" fill="#F5F5F5"/>
<path d="M244.221 133.165H221.116V135.06H244.221V133.165Z" fill="#E6E6E6"/>
<path d="M162.763 135.065H221.116V133.17H162.763V135.065Z" fill="#F5F5F5"/>
<path d="M244.221 143.542H221.116V145.437H244.221V143.542Z" fill="#E6E6E6"/>
<path d="M162.763 145.437H221.116V143.542H162.763V145.437Z" fill="#F5F5F5"/>
<path d="M235.889 175.757H240.157V132.129H235.889V175.757Z" fill="#E6E6E6"/>
<path d="M216.848 175.757H221.116V132.129H216.848V175.757Z" fill="#F5F5F5"/>
<path d="M162.763 175.757H167.03V132.129H162.763V175.757Z" fill="#F5F5F5"/>
<path d="M204.732 131.619H207.013V106.179H204.732V131.619Z" fill="#E6E6E6"/>
<path d="M205.027 131.598H205.671V106.157H205.027V131.598Z" fill="#F0F0F0"/>
<path d="M197.42 133.165H214.298C214.298 132.596 214.072 132.049 213.669 131.647C213.266 131.244 212.72 131.018 212.151 131.018H199.551C198.982 131.018 198.436 131.244 198.033 131.647C197.63 132.049 197.404 132.596 197.404 133.165H197.42Z" fill="#F0F0F0"/>
<path d="M202.064 132.537H202.917C203.045 132.537 203.148 132.434 203.148 132.306V130.529C203.148 130.402 203.045 130.299 202.917 130.299H202.064C201.936 130.299 201.833 130.402 201.833 130.529V132.306C201.833 132.434 201.936 132.537 202.064 132.537Z" fill="#F0F0F0"/>
<path d="M195.654 112.197H216.091L214.137 95.8986C214.028 94.9781 213.585 94.1294 212.893 93.5131C212.2 92.8968 211.306 92.5556 210.379 92.5542H201.376C200.45 92.558 199.557 92.8999 198.865 93.5158C198.173 94.1316 197.73 94.979 197.619 95.8986L195.654 112.197Z" fill="#F5F5F5"/>
<path d="M134.848 200C192.332 200 238.933 197.279 238.933 193.923C238.933 190.567 192.332 187.846 134.848 187.846C77.3629 187.846 30.7623 190.567 30.7623 193.923C30.7623 197.279 77.3629 200 134.848 200Z" fill="#F5F5F5"/>
<path d="M159.386 57.639L159.198 58.2724L159.026 58.8093C158.908 59.1689 158.779 59.5018 158.65 59.8453C158.393 60.5164 158.114 61.1713 157.808 61.8209C157.212 63.1124 156.54 64.3673 155.795 65.5786C155.424 66.1853 155.032 66.7704 154.635 67.3555C154.238 67.9407 153.814 68.5043 153.368 69.0573C152.494 70.1751 151.557 71.2416 150.56 72.2514L150.351 72.4661C150.062 72.7624 149.72 73.001 149.342 73.1694C148.223 73.6587 147.008 73.8846 145.788 73.8297C144.726 73.7722 143.683 73.5268 142.707 73.1049C141.889 72.7592 141.115 72.3158 140.404 71.7843C139.765 71.318 139.161 70.8067 138.595 70.2544C137.566 69.2251 136.639 68.0998 135.825 66.8939C135.427 66.3141 135.062 65.7182 134.713 65.117C134.364 64.5157 134.064 63.9145 133.736 63.222C133.523 62.7707 133.473 62.2591 133.596 61.7752C133.719 61.2913 134.006 60.8653 134.409 60.5704C134.812 60.2756 135.305 60.1303 135.803 60.1596C136.302 60.1889 136.774 60.391 137.14 60.7311L137.279 60.8599L138.589 62.0624C139.035 62.4704 139.491 62.8623 139.947 63.2381C140.811 63.9711 141.726 64.642 142.685 65.2458C143.435 65.7457 144.267 66.1092 145.144 66.3195C145.367 66.3823 145.603 66.3823 145.826 66.3195C145.899 66.2866 145.96 66.2298 145.997 66.1584L144.763 67.0925C145.445 66.1691 146.105 65.2351 146.711 64.2688C147.318 63.3025 147.898 62.304 148.44 61.3001C148.982 60.2963 149.481 59.2602 149.943 58.2241C150.179 57.6873 150.389 57.1827 150.603 56.6673L151.14 55.2608L151.291 54.8743C151.719 53.8842 152.505 53.0916 153.491 52.6542C154.477 52.2168 155.592 52.1666 156.613 52.5137C157.635 52.8607 158.488 53.5796 159.004 54.5272C159.52 55.4749 159.66 56.582 159.397 57.6282L159.386 57.639Z" fill="#263238"/>
<path d="M135.256 63.2489L131.627 61.9874L130.864 57.0164C130.864 57.0164 136.947 58.6268 136.92 61.5579L135.256 63.2489Z" fill="#CE7A63"/>
<path d="M156.632 37.3524C154.265 36.5204 150.995 33.6859 152.278 30.0194C153.255 27.2386 156.874 26.9917 158.296 27.8238C159.719 28.6559 159.778 26.9487 161.598 26.2938C163.417 25.6389 164.7 27.2869 165.624 28.1512C166.547 29.0155 167.626 28.3606 168.995 28.4197C170.364 28.4787 171.341 30.2717 170.579 31.5816C169.237 33.8792 171.454 35.3393 169.773 37.1323C167.299 39.7359 169.237 42.2912 165.747 44.8841C163.627 46.4731 157.604 43.5582 156.632 37.3524Z" fill="#263238"/>
<path d="M156.589 39.7789C156.501 39.8314 156.402 39.8627 156.299 39.8701C156.121 39.885 155.945 39.8291 155.808 39.7145C155.671 39.5998 155.585 39.4358 155.569 39.2581C155.451 38.1928 155.59 37.1146 155.975 36.1142C156.36 35.1137 156.979 34.2202 157.781 33.5087C157.85 33.4535 157.93 33.4126 158.015 33.3886C158.101 33.3646 158.19 33.3579 158.278 33.3689C158.366 33.3799 158.451 33.4084 158.528 33.4527C158.605 33.497 158.672 33.5562 158.726 33.6268C158.781 33.6958 158.822 33.7751 158.846 33.86C158.871 33.9449 158.878 34.0338 158.868 34.1215C158.858 34.2093 158.831 34.2943 158.788 34.3715C158.745 34.4488 158.687 34.5168 158.618 34.5716C157.991 35.1424 157.509 35.8548 157.213 36.6494C156.917 37.4441 156.815 38.2981 156.916 39.14C156.927 39.2665 156.902 39.3935 156.845 39.5065C156.787 39.6194 156.698 39.7138 156.589 39.7789Z" fill="#263238"/>
<path d="M152.729 52.2708C152.729 52.2708 147.968 64.4568 152.488 87.1645H174.073C174.224 83.8523 172.141 67.6884 175.335 52.0775C172.949 51.6186 170.535 51.3138 168.109 51.1649C165.054 50.9877 161.991 50.9877 158.935 51.1649C156.841 51.3704 154.766 51.7401 152.729 52.2708Z" fill="white"/>
<path d="M167.202 40.7988C166.622 43.7514 166.048 49.1626 168.109 51.1327C168.109 51.1327 164.652 53.935 161.018 56.7694C160.215 56.0887 159.601 55.2121 159.236 54.2246C158.871 53.2371 158.768 52.1721 158.935 51.1327C162.226 50.349 162.156 47.9118 161.571 45.6088L167.202 40.7988Z" fill="#CE7A63"/>
<path opacity="0.2" d="M164.91 42.7797L161.576 45.6248C161.718 46.1522 161.814 46.6911 161.861 47.2353C162.934 48.2553 164.845 45.6732 164.98 44.3579C165.05 43.8319 165.027 43.2974 164.91 42.7797Z" fill="black"/>
<path d="M167.164 35.8332C167.315 39.8379 167.605 42.1731 165.801 44.4224C163.079 47.7937 157.99 46.457 156.648 42.5757C155.44 39.0863 155.397 33.1276 159.139 31.1628C159.96 30.7253 160.879 30.5047 161.809 30.5221C162.739 30.5394 163.649 30.7941 164.453 31.262C165.257 31.7298 165.928 32.3953 166.403 33.1953C166.877 33.9953 167.139 34.9033 167.164 35.8332Z" fill="#CE7A63"/>
<path d="M167.057 39.5372C165.957 41.6845 164.69 34.8937 165.012 33.761C161.12 34.8346 155.15 34.4803 155.612 31.764C156.149 28.6987 159.713 28.5806 163.664 28.9564C170.187 29.5844 168.249 37.2074 167.057 39.5372Z" fill="#263238"/>
<path d="M165.13 39.9184C165.029 39.9242 164.927 39.9058 164.835 39.8647C164.753 39.8292 164.68 39.7779 164.618 39.7138C164.556 39.6498 164.508 39.5742 164.476 39.4915C164.443 39.4087 164.427 39.3204 164.429 39.2315C164.431 39.1427 164.45 39.055 164.486 38.9736C164.892 37.982 165.53 37.1023 166.346 36.4083C167.163 35.7142 168.134 35.2262 169.178 34.985C169.352 34.9536 169.532 34.9924 169.677 35.093C169.823 35.1936 169.923 35.3477 169.956 35.5218C169.985 35.6958 169.945 35.8741 169.844 36.0192C169.744 36.1643 169.592 36.265 169.419 36.3002C168.593 36.5045 167.828 36.9034 167.187 37.4638C166.546 38.0241 166.049 38.7295 165.737 39.5212C165.685 39.6393 165.6 39.7399 165.493 39.8105C165.385 39.8811 165.259 39.9186 165.13 39.9184Z" fill="#263238"/>
<path d="M169.162 38.6516C168.95 39.6161 168.392 40.4696 167.594 41.0512C166.547 41.7813 165.72 40.8848 165.747 39.6232C165.774 38.4905 166.354 36.7512 167.524 36.5258C168.694 36.3003 169.425 37.4652 169.162 38.6516Z" fill="#CE7A63"/>
<path d="M150.297 188.625C149.798 188.748 149.299 188.797 149.084 188.625C149.029 188.574 148.991 188.508 148.976 188.434C148.961 188.361 148.968 188.285 148.998 188.217C149.017 188.155 149.047 188.098 149.089 188.049C149.131 188 149.182 187.96 149.24 187.932C149.846 187.594 151.387 188.034 151.457 188.056C151.477 188.061 151.494 188.072 151.507 188.088C151.519 188.104 151.526 188.124 151.526 188.144C151.526 188.165 151.519 188.184 151.507 188.201C151.494 188.217 151.477 188.228 151.457 188.233C151.082 188.397 150.694 188.528 150.297 188.625ZM149.503 188.018C149.443 188.032 149.385 188.054 149.331 188.083C149.296 188.1 149.264 188.124 149.238 188.153C149.213 188.183 149.193 188.217 149.181 188.254C149.138 188.389 149.181 188.437 149.208 188.464C149.449 188.673 150.437 188.437 151.14 188.152C150.608 188.003 150.052 187.957 149.503 188.018Z" fill="#263238"/>
<path d="M151.452 188.222H151.414C150.877 188.131 149.761 187.513 149.728 187.052C149.728 186.944 149.766 186.794 150.013 186.708C150.189 186.648 150.382 186.66 150.55 186.74C151.14 187.025 151.489 188.056 151.505 188.099C151.514 188.113 151.519 188.13 151.519 188.147C151.519 188.164 151.514 188.181 151.505 188.195C151.49 188.209 151.472 188.219 151.452 188.222ZM150.131 186.869H150.077C149.911 186.923 149.916 186.993 149.922 187.014C149.922 187.293 150.727 187.798 151.274 187.97C151.128 187.538 150.85 187.163 150.48 186.896C150.37 186.848 150.247 186.839 150.131 186.869Z" fill="#263238"/>
<path d="M157.319 189.5L153.277 190.096L153.406 180.83L157.448 180.239L157.319 189.5Z" fill="#CE7A63"/>
<path d="M152.67 187.701H157.969C158.047 187.699 158.123 187.726 158.182 187.777C158.242 187.827 158.28 187.898 158.291 187.975L158.828 191.545C158.838 191.634 158.83 191.725 158.803 191.811C158.776 191.897 158.731 191.977 158.671 192.044C158.611 192.112 158.538 192.166 158.456 192.203C158.373 192.24 158.284 192.259 158.194 192.259C156.61 192.232 154.334 192.141 152.343 192.141C150.018 192.141 147.93 192.264 145.203 192.264C143.555 192.264 143.249 190.702 143.931 190.45C146.98 189.306 148.612 189.113 151.699 188.013C152.003 187.856 152.331 187.751 152.67 187.701Z" fill="#263238"/>
<path opacity="0.2" d="M153.406 180.835L153.336 185.608L157.384 185.012L157.453 180.239L153.406 180.835Z" fill="black"/>
<path d="M155.247 187.986C155.22 186.273 155.757 183.519 151.489 185.205C148.945 186.204 152.396 189.14 152.396 189.14L155.247 187.986Z" fill="#263238"/>
<path d="M152.488 87.1484C152.488 87.1484 150.34 119.664 150.947 131.227C151.538 142.184 151.87 173.266 151.945 181.42C151.949 181.668 152.004 181.913 152.109 182.138C152.214 182.362 152.365 182.562 152.553 182.724C152.74 182.886 152.961 183.006 153.198 183.077C153.436 183.147 153.686 183.166 153.932 183.133L156.788 182.746C157.169 182.694 157.523 182.519 157.794 182.246C158.066 181.974 158.24 181.619 158.291 181.238C160.137 166.846 162.333 144.643 162.811 132.757C163.348 119.192 166.687 87.127 166.687 87.127L152.488 87.1484Z" fill="#384AED"/>
<path opacity="0.2" d="M152.488 87.1484C152.488 87.1484 150.34 119.664 150.947 131.227C151.538 142.184 151.87 173.266 151.945 181.42C151.949 181.668 152.004 181.913 152.109 182.138C152.214 182.362 152.365 182.562 152.553 182.724C152.74 182.886 152.961 183.006 153.198 183.077C153.436 183.147 153.686 183.166 153.932 183.133L156.788 182.746C157.169 182.694 157.523 182.519 157.794 182.246C158.066 181.974 158.24 181.619 158.291 181.238C160.137 166.846 162.333 144.643 162.811 132.757C163.348 119.192 166.687 87.127 166.687 87.127L152.488 87.1484Z" fill="white"/>
<path d="M179.436 188.093C178.969 188.303 178.486 188.442 178.239 188.297C178.176 188.258 178.127 188.201 178.099 188.132C178.071 188.064 178.066 187.988 178.084 187.916C178.089 187.851 178.109 187.788 178.142 187.732C178.174 187.675 178.218 187.626 178.271 187.589C178.808 187.148 180.419 187.309 180.472 187.315C180.492 187.316 180.511 187.324 180.526 187.336C180.542 187.349 180.553 187.366 180.558 187.385C180.562 187.403 180.561 187.423 180.554 187.441C180.548 187.459 180.536 187.475 180.521 187.487C180.178 187.721 179.815 187.924 179.436 188.093ZM178.545 187.637C178.49 187.664 178.438 187.696 178.39 187.734C178.357 187.756 178.329 187.786 178.308 187.82C178.288 187.854 178.275 187.892 178.271 187.932C178.271 188.066 178.304 188.115 178.336 188.131C178.61 188.297 179.538 187.884 180.183 187.487C179.632 187.431 179.076 187.482 178.545 187.637Z" fill="#263238"/>
<path d="M180.478 187.497C179.941 187.497 178.728 187.095 178.615 186.644C178.588 186.542 178.615 186.386 178.835 186.257C178.915 186.21 179.005 186.181 179.097 186.17C179.189 186.158 179.283 186.166 179.372 186.193C180.005 186.37 180.537 187.315 180.558 187.358C180.566 187.373 180.57 187.389 180.57 187.406C180.57 187.423 180.566 187.44 180.558 187.454C180.548 187.466 180.536 187.477 180.522 187.484C180.509 187.491 180.493 187.496 180.478 187.497ZM178.937 186.424H178.889C178.738 186.51 178.755 186.574 178.76 186.595C178.83 186.864 179.694 187.224 180.263 187.299C180.043 186.897 179.704 186.574 179.291 186.375C179.181 186.346 179.063 186.355 178.959 186.402L178.937 186.424Z" fill="#263238"/>
<path d="M186.737 187.734L182.926 189.027L180.397 180.068L184.203 178.774L186.737 187.734Z" fill="#CE7A63"/>
<path opacity="0.2" d="M162.505 98.7761C161.394 103.226 161.689 121.72 162.838 132.145C163.111 126.042 163.884 116.631 164.668 107.988L162.505 98.7761Z" fill="black"/>
<path d="M181.46 186.853L186.678 185.914C186.756 185.898 186.837 185.911 186.907 185.949C186.976 185.987 187.03 186.049 187.059 186.123L188.428 189.505C188.462 189.587 188.476 189.676 188.471 189.764C188.465 189.853 188.44 189.939 188.396 190.016C188.353 190.094 188.293 190.16 188.22 190.211C188.148 190.262 188.065 190.296 187.977 190.31C186.415 190.568 184.15 190.879 182.19 191.234C179.903 191.647 179.887 191.77 177.203 192.264C175.593 192.56 174.9 191.094 175.507 190.724C178.234 189.07 177.788 188.958 180.558 187.336C180.828 187.124 181.134 186.96 181.46 186.853Z" fill="#263238"/>
<path opacity="0.2" d="M180.397 180.073L181.702 184.69L185.513 183.396L184.209 178.779L180.397 180.073Z" fill="black"/>
<path d="M160.148 87.1484C160.148 87.1484 162.929 119.669 165.071 131.227C167.132 142.35 176.457 174.034 179.206 181.233C179.365 181.653 179.681 181.995 180.087 182.188C180.493 182.381 180.958 182.41 181.385 182.269L184.139 181.372C184.544 181.24 184.886 180.965 185.103 180.598C185.319 180.232 185.394 179.799 185.315 179.381C182.577 165.246 178.218 144.589 177.133 132.757C175.893 119.192 174.073 87.127 174.073 87.127L160.148 87.1484Z" fill="#384AED"/>
<path opacity="0.2" d="M160.148 87.1484C160.148 87.1484 162.929 119.669 165.071 131.227C167.132 142.35 176.457 174.034 179.206 181.233C179.365 181.653 179.681 181.995 180.087 182.188C180.493 182.381 180.958 182.41 181.385 182.269L184.139 181.372C184.544 181.24 184.886 180.965 185.103 180.598C185.319 180.232 185.394 179.799 185.315 179.381C182.577 165.246 178.218 144.589 177.133 132.757C175.893 119.192 174.073 87.127 174.073 87.127L160.148 87.1484Z" fill="white"/>
<path d="M161.243 37.5403C161.276 37.8678 161.131 38.1469 160.916 38.1684C160.701 38.1898 160.508 37.9429 160.476 37.6315C160.443 37.3202 160.588 37.0303 160.803 37.0088C161.018 36.9874 161.211 37.2182 161.243 37.5403Z" fill="#263238"/>
<path d="M157.582 37.9054C157.614 38.2275 157.469 38.5066 157.255 38.5281C157.04 38.5496 156.847 38.3026 156.815 37.9913C156.782 37.6799 156.927 37.3846 157.142 37.3632C157.357 37.3417 157.55 37.5779 157.582 37.9054Z" fill="#263238"/>
<path d="M158.763 37.9482C158.474 38.9776 158.044 39.9622 157.486 40.8739C157.723 41.0099 157.987 41.0923 158.26 41.1155C158.532 41.1387 158.807 41.102 159.064 41.0082L158.763 37.9482Z" fill="#BA4D3C"/>
<path d="M160.078 41.8135C160.054 41.815 160.029 41.807 160.01 41.791C159.991 41.775 159.979 41.7523 159.976 41.7276C159.975 41.7149 159.976 41.702 159.979 41.6897C159.983 41.6774 159.989 41.666 159.997 41.656C160.005 41.646 160.015 41.6377 160.026 41.6315C160.037 41.6254 160.05 41.6216 160.062 41.6202C160.466 41.5903 160.857 41.4652 161.203 41.2553C161.549 41.0454 161.841 40.7565 162.054 40.4124C162.065 40.3897 162.085 40.3725 162.11 40.3645C162.134 40.3564 162.16 40.3582 162.183 40.3694C162.204 40.3819 162.221 40.4019 162.229 40.4257C162.237 40.4494 162.236 40.4753 162.226 40.4983C161.999 40.8733 161.686 41.1885 161.312 41.4174C160.939 41.6463 160.515 41.7821 160.078 41.8135Z" fill="#263238"/>
<path d="M162.226 36.2519C162.196 36.2543 162.166 36.2503 162.139 36.2401C162.111 36.2299 162.086 36.2138 162.065 36.1928C161.909 36.0076 161.711 35.8623 161.488 35.769C161.265 35.6756 161.023 35.6369 160.782 35.656C160.732 35.6638 160.681 35.6519 160.64 35.6229C160.599 35.5938 160.571 35.5498 160.562 35.5003C160.557 35.4756 160.557 35.4502 160.563 35.4257C160.568 35.4011 160.578 35.3779 160.593 35.3573C160.607 35.3368 160.626 35.3194 160.647 35.3062C160.669 35.2929 160.692 35.2841 160.717 35.2802C161.016 35.2488 161.319 35.2894 161.599 35.3987C161.879 35.5079 162.129 35.6827 162.328 35.9083C162.346 35.9259 162.361 35.9471 162.371 35.9706C162.382 35.9942 162.387 36.0195 162.387 36.0452C162.387 36.0708 162.382 36.0962 162.371 36.1198C162.361 36.1433 162.346 36.1645 162.328 36.1821C162.301 36.2148 162.266 36.2391 162.226 36.2519Z" fill="#263238"/>
<path d="M155.811 36.7672C155.782 36.7728 155.753 36.7728 155.725 36.7672C155.679 36.7461 155.643 36.7079 155.625 36.6607C155.607 36.6136 155.608 36.5612 155.628 36.5149C155.745 36.2353 155.926 35.9877 156.158 35.7925C156.389 35.5973 156.664 35.4603 156.959 35.3929C156.986 35.3837 157.014 35.3804 157.042 35.3832C157.07 35.3859 157.097 35.3948 157.121 35.409C157.145 35.4233 157.166 35.4426 157.182 35.4657C157.198 35.4888 157.209 35.5151 157.213 35.5428C157.218 35.5705 157.217 35.5988 157.21 35.6259C157.202 35.653 157.189 35.6782 157.171 35.6997C157.153 35.7212 157.13 35.7385 157.105 35.7504C157.08 35.7623 157.052 35.7686 157.024 35.7687C156.791 35.8256 156.574 35.937 156.392 36.0938C156.21 36.2505 156.068 36.4482 155.977 36.6706C155.961 36.7002 155.936 36.7248 155.907 36.7418C155.878 36.7588 155.845 36.7676 155.811 36.7672Z" fill="#263238"/>
<path d="M168.668 50.4617C170.772 50.4617 175.845 50.5744 176.339 52.4533C176.833 54.3322 176.291 57.376 175.62 59.1636C176.607 61.8907 176.291 65.9169 175.351 67.1731C176.382 70.2115 175.711 72.4501 175.083 73.5237C175.577 74.7316 176.022 78.178 175.265 79.8744C175.888 82.2901 176.602 86.3163 175.485 87.1269C173.966 88.2006 169.924 88.7374 167.068 88.061C164.212 87.3846 165.334 81.6191 165.554 80.277C164.303 78.6236 165.645 73.6579 165.645 73.6579C165.017 72.2729 165.957 67.0818 165.957 67.0818C165.2 65.831 166.182 59.0294 166.182 59.0294C165.366 57.6659 165.012 50.4617 168.668 50.4617Z" fill="#263238"/>
<path d="M153.212 51.7125C154.866 50.9824 160.406 49.6565 159.332 51.1166C157.775 53.2371 158.731 55.4703 157.808 58.0954C158.624 60.6024 158.344 64.6983 157.588 66.1478C158.26 68.2506 158.191 70.5202 157.394 72.579C157.797 73.6526 158.167 77.0185 157.539 78.8867C158.076 81.1628 158.484 85.7527 157.539 86.7887C156.859 87.5379 155.958 88.0505 154.966 88.2523C153.975 88.4541 152.945 88.3344 152.026 87.9107C150.711 87.3739 150.126 82.9826 150.775 81.4688C149.498 78.6827 150.539 74.5545 150.539 74.5545C149.304 72.4072 150.26 67.9032 150.26 67.9032C149.036 63.9092 150.539 59.4911 150.539 59.4911C149.879 58.294 150.577 52.8774 153.212 51.7125Z" fill="#263238"/>
<path d="M156.857 52.2064C156.638 52.0433 156.459 51.8314 156.335 51.5873C156.211 51.3432 156.145 51.0736 156.143 50.7999C156.139 50.6164 156.171 50.4339 156.238 50.2629C156.304 50.0919 156.404 49.9357 156.532 49.8035C156.659 49.6712 156.811 49.5655 156.979 49.4923C157.148 49.4192 157.329 49.3801 157.512 49.3773C158.141 49.4295 158.752 49.6124 159.305 49.9141C160.148 50.3275 160.46 50.7086 160.497 51.3314C160.535 51.9541 158.999 54.1443 158.157 53.6236C157.314 53.1029 157.33 52.7432 156.857 52.2064Z" fill="#263238"/>
<path opacity="0.2" d="M173.145 59.883C173.563 58.0739 174.626 58.235 175.684 58.9758L175.609 59.1852C176.597 61.9122 176.28 65.9384 175.34 67.1946C175.399 67.3664 175.453 67.5382 175.501 67.7314C174.186 66.4431 172.361 63.2973 173.145 59.883Z" fill="black"/>
<path d="M173.327 64.3011L169.757 65.9331L169.408 77.4641L159.708 83.7128L170.568 87.6101L173.515 98.76L177.09 97.1334L179.087 78.9458L173.327 64.3011Z" fill="#384AED"/>
<path opacity="0.3" d="M173.327 64.3011L169.757 65.9331L169.408 77.4641L159.708 83.7128L170.568 87.6101L173.515 98.76L177.09 97.1334L179.087 78.9458L173.327 64.3011Z" fill="black"/>
<path d="M195.67 88.6515L192.095 90.2835L180.574 89.6393L185.395 86.3861L195.67 88.6515Z" fill="#384AED"/>
<path opacity="0.3" d="M195.67 88.6515L192.095 90.2835L180.574 89.6393L185.395 86.3861L195.67 88.6515Z" fill="black"/>
<path d="M173.327 64.3011L182.271 71.5912L193.346 68.3596L189.174 79.1176L195.67 88.6516L184.15 88.0074L177.09 97.1334L174.138 85.9782L163.283 82.0808L172.978 75.8322L173.327 64.3011Z" fill="#384AED"/>
<path d="M178.948 87.2235L178.867 90.8686L183.162 90.627C183.162 90.627 183.742 88.3455 181.272 86.7565L178.948 87.2235Z" fill="#CE7A63"/>
<path d="M180.247 94.5189L183.221 92.8065L183.167 90.627L178.867 90.8685L180.247 94.5189Z" fill="#CE7A63"/>
<path d="M176.484 52.3458C176.833 52.6679 177.096 52.9149 177.386 53.1994C177.676 53.4839 177.923 53.7362 178.223 54.0369C178.76 54.6005 179.297 55.1803 179.834 55.7654C180.883 56.9664 181.871 58.2207 182.792 59.5232C183.765 60.8841 184.628 62.3202 185.374 63.8178C186.271 65.5517 186.846 67.4344 187.07 69.374C187.103 69.6609 187.119 69.9495 187.118 70.2383V70.6892V71.0006L187.027 72.2192C186.93 73.019 186.834 73.8296 186.7 74.5866C186.451 76.1178 186.125 77.6354 185.723 79.1335C184.95 82.0789 183.927 84.9525 182.663 87.7227C182.456 88.1892 182.091 88.5671 181.631 88.7886C181.172 89.0101 180.648 89.0608 180.155 88.9316C179.662 88.8024 179.23 88.5018 178.938 88.0836C178.646 87.6653 178.513 87.1568 178.561 86.649V86.5632C178.792 83.7287 179.098 80.8406 179.254 78.0384C179.361 76.6319 179.404 75.2415 179.436 73.8833C179.436 73.2016 179.436 72.5359 179.436 71.8702L179.393 70.9039V70.6677V70.5657C179.382 70.4896 179.366 70.4143 179.345 70.3403C179.066 69.3958 178.662 68.493 178.143 67.6561C177.489 66.5856 176.771 65.5549 175.995 64.5694C175.185 63.5387 174.315 62.5133 173.413 61.5041C172.962 60.9995 172.495 60.5056 172.034 60.0064L171.336 59.2709L170.675 58.5891L170.568 58.4764C169.802 57.6709 169.379 56.6001 169.386 55.4889C169.394 54.3777 169.832 53.3127 170.608 52.5176C171.385 51.7225 172.439 51.2593 173.549 51.2253C174.66 51.1913 175.741 51.5891 176.564 52.3351L176.484 52.3458Z" fill="#263238"/>
<path d="M170.278 51.7339C170.815 51.6588 170.954 50.4026 170.525 49.5866C170.176 48.9156 168.915 49.0068 167.787 49.2967C166.88 49.4989 166.012 49.847 165.216 50.3274C164.078 50.9555 164.491 51.7124 164.754 52.3083C165.017 52.9042 165.516 54.2731 166.59 53.5484C167.664 52.8237 169.527 51.8466 170.278 51.7339Z" fill="#263238"/>
<path d="M183.817 186.617C183.736 184.904 184.187 182.14 179.973 183.933C177.455 185.006 180.993 187.841 180.993 187.841L183.817 186.617Z" fill="#263238"/>
<path d="M131.036 53.1459H136.802C136.962 53.1517 137.117 53.2062 137.245 53.3021C137.374 53.398 137.47 53.5308 137.521 53.6828L140.538 64.4193C140.558 64.4818 140.562 64.5482 140.551 64.6128C140.54 64.6774 140.513 64.7384 140.474 64.7908C140.435 64.8433 140.384 64.8856 140.325 64.9144C140.266 64.9431 140.201 64.9574 140.135 64.9561H134.364C134.206 64.9478 134.053 64.8923 133.925 64.7966C133.798 64.701 133.703 64.5696 133.65 64.4193L130.633 53.6828C130.613 53.6202 130.607 53.5535 130.618 53.4883C130.628 53.4232 130.655 53.3616 130.694 53.3088C130.734 53.256 130.785 53.2137 130.845 53.1853C130.905 53.1569 130.97 53.1434 131.036 53.1459Z" fill="#384AED"/>
<path d="M134.177 60.3823L132.969 56.179L130.864 57.0164L131.627 61.9874L134.177 60.3823Z" fill="#CE7A63"/>
<path opacity="0.3" d="M137.263 53.5325C137.32 53.5359 137.374 53.5568 137.418 53.5924C137.463 53.628 137.495 53.6765 137.51 53.7311L140.533 64.4193C140.542 64.4414 140.545 64.4655 140.543 64.4893C140.54 64.513 140.531 64.5357 140.517 64.5551C140.503 64.5745 140.484 64.59 140.463 64.6001C140.441 64.6101 140.417 64.6144 140.393 64.6126C140.337 64.6103 140.283 64.5904 140.238 64.5557C140.194 64.5211 140.162 64.4733 140.146 64.4193L137.134 53.715C137.129 53.6944 137.128 53.6728 137.132 53.6518C137.135 53.6308 137.144 53.6108 137.156 53.5934C137.168 53.576 137.184 53.5615 137.203 53.5509C137.221 53.5404 137.242 53.5341 137.263 53.5325Z" fill="black"/>
<path d="M66.4398 11.4343H62.376V11.9712H66.4398V11.4343Z" fill="#384AED"/>
<path d="M47.3449 17.5219H46.808C46.8094 15.9125 47.4476 14.3689 48.5831 13.2284C49.7187 12.0878 51.2594 11.4428 52.8688 11.4343H60.1697V11.9712H52.8688C51.4017 11.9797 49.9976 12.568 48.9627 13.608C47.9278 14.6479 47.3463 16.0548 47.3449 17.5219Z" fill="#384AED"/>
<path d="M116.252 13.3132H52.8688C50.5474 13.3132 48.6655 15.1951 48.6655 17.5166V27.9525C48.6655 30.2739 50.5474 32.1558 52.8688 32.1558H116.252C118.573 32.1558 120.455 30.2739 120.455 27.9525V17.5166C120.455 15.1951 118.573 13.3132 116.252 13.3132Z" fill="#384AED"/>
<path d="M75.9846 19.8948L76.9079 21.7629L78.9747 22.0636L77.4769 23.5184L77.8312 25.5798L75.9846 24.6081L74.1379 25.5798L74.4922 23.5184L72.9944 22.0636L75.0612 21.7629L75.9846 19.8948Z" fill="white"/>
<path d="M84.3698 19.8948L85.2931 21.7629L87.3599 22.0636L85.8622 23.5184L86.2165 25.5798L84.3698 24.6081L82.5231 25.5798L82.8774 23.5184L81.3797 22.0636L83.4465 21.7629L84.3698 19.8948Z" fill="white"/>
<path d="M92.755 19.8948L93.6784 21.7629L95.7451 22.0636L94.2528 23.5184L94.6017 25.5798L92.755 24.6081L90.9083 25.5798L91.2626 23.5184L89.7649 22.0636L91.8317 21.7629L92.755 19.8948Z" fill="white"/>
<path d="M101.14 19.8948L102.064 21.7629L104.13 22.0636L102.638 23.5184L102.987 25.5798L101.14 24.6081L99.2936 25.5798L99.6479 23.5184L98.1501 22.0636L100.217 21.7629L101.14 19.8948Z" fill="white"/>
<path opacity="0.3" d="M109.525 21.108L109.966 22.0045C110.005 22.0823 110.063 22.1494 110.134 22.1999C110.205 22.2504 110.287 22.2828 110.374 22.2944L111.361 22.4393L110.647 23.1372C110.585 23.1976 110.539 23.272 110.512 23.3543C110.484 23.4366 110.478 23.5242 110.492 23.6096L110.658 24.5974L109.778 24.1572C109.699 24.1194 109.613 24.0992 109.525 24.0981C109.44 24.0978 109.355 24.118 109.279 24.1572L108.393 24.6242L108.543 23.6204C108.557 23.5349 108.55 23.4473 108.523 23.365C108.496 23.2828 108.45 23.2083 108.387 23.1479L107.673 22.4501L108.661 22.3051C108.75 22.2947 108.835 22.2622 108.908 22.2107C108.981 22.1591 109.04 22.0901 109.08 22.0099L109.52 21.1134L109.525 21.108ZM109.52 19.9001L108.597 21.7683L106.53 22.0689L108.028 23.5291L107.673 25.5851L109.52 24.6135L111.367 25.5851L111.012 23.5291L112.51 22.0689L110.443 21.7683L109.52 19.9001Z" fill="white"/>
<path opacity="0.2" d="M61.7587 29.1818C65.3194 29.1818 68.2059 26.2953 68.2059 22.7345C68.2059 19.1738 65.3194 16.2872 61.7587 16.2872C58.1979 16.2872 55.3114 19.1738 55.3114 22.7345C55.3114 26.2953 58.1979 29.1818 61.7587 29.1818Z" fill="white"/>
<path d="M67.084 22.7345C67.0854 23.9191 66.6913 25.0703 65.9643 26.0056C65.2373 26.9409 64.2189 27.6068 63.0706 27.8977C61.9223 28.1887 60.7097 28.088 59.625 27.6117C58.5404 27.1354 57.6457 26.3107 57.0829 25.2683C56.6575 24.4917 56.4359 23.62 56.4387 22.7345C56.4826 21.3521 57.0626 20.041 58.056 19.0787C59.0494 18.1163 60.3783 17.5782 61.7614 17.5782C63.1444 17.5782 64.4733 18.1163 65.4667 19.0787C66.4601 20.041 67.0401 21.3521 67.084 22.7345Z" fill="white"/>
<path d="M66.4398 25.2684C65.9847 26.1129 65.3095 26.8185 64.4858 27.3103C63.6621 27.8021 62.7207 28.0617 61.7614 28.0617C60.802 28.0617 59.8606 27.8021 59.0369 27.3103C58.2132 26.8185 57.538 26.1129 57.0829 25.2684C58.4681 24.344 60.0961 23.8507 61.7614 23.8507C63.4267 23.8507 65.0546 24.344 66.4398 25.2684Z" fill="#263238"/>
<path d="M64.1314 20.9361C64.1314 21.4054 63.9922 21.8642 63.7315 22.2544C63.4708 22.6446 63.1002 22.9487 62.6667 23.1283C62.2331 23.3079 61.756 23.3549 61.2957 23.2633C60.8355 23.1718 60.4127 22.9458 60.0808 22.6139C59.749 22.2821 59.523 21.8593 59.4315 21.399C59.3399 20.9388 59.3869 20.4617 59.5665 20.0281C59.7461 19.5945 60.0502 19.224 60.4404 18.9632C60.8306 18.7025 61.2893 18.5634 61.7586 18.5634C62.3879 18.5634 62.9915 18.8133 63.4364 19.2583C63.8814 19.7033 64.1314 20.3068 64.1314 20.9361Z" fill="#FFC3BD"/>
<path d="M111.882 78.7953H101.14V79.3321H111.882V78.7953Z" fill="#384AED"/>
<path d="M116.252 58.6107H52.8688C50.5474 58.6107 48.6655 60.4926 48.6655 62.8141V73.25C48.6655 75.5714 50.5474 77.4533 52.8688 77.4533H116.252C118.573 77.4533 120.455 75.5714 120.455 73.25V62.8141C120.455 60.4926 118.573 58.6107 116.252 58.6107Z" fill="#384AED"/>
<path d="M75.9846 65.1868L76.9079 67.0603L78.9747 67.3556L77.4769 68.8157L77.8312 70.8718L75.9846 69.9001L74.1379 70.8718L74.4922 68.8157L72.9944 67.3556L75.0612 67.0603L75.9846 65.1868Z" fill="white"/>
<path d="M84.3698 65.1868L85.2931 67.0603L87.3599 67.3556L85.8622 68.8157L86.2165 70.8718L84.3698 69.9001L82.5231 70.8718L82.8774 68.8157L81.3797 67.3556L83.4465 67.0603L84.3698 65.1868Z" fill="white"/>
<path d="M92.755 65.1868L93.6784 67.0603L95.7451 67.3556L94.2528 68.8157L94.6017 70.8718L92.755 69.9001L90.9083 70.8718L91.2626 68.8157L89.7649 67.3556L91.8317 67.0603L92.755 65.1868Z" fill="white"/>
<path d="M101.14 65.1868L102.064 67.0603L104.13 67.3556L102.638 68.8157L102.987 70.8718L101.14 69.9001L99.2936 70.8718L99.6479 68.8157L98.1501 67.3556L100.217 67.0603L101.14 65.1868Z" fill="white"/>
<path d="M109.525 65.1868L110.449 67.0603L112.516 67.3556L111.023 68.8157L111.372 70.8718L109.525 69.9001L107.679 70.8718L108.033 68.8157L106.535 67.3556L108.602 67.0603L109.525 65.1868Z" fill="white"/>
<path opacity="0.2" d="M66.3212 72.59C68.839 70.0722 68.839 65.99 66.3212 63.4722C63.8033 60.9544 59.7211 60.9544 57.2033 63.4722C54.6855 65.99 54.6855 70.0722 57.2033 72.59C59.7211 75.1079 63.8033 75.1079 66.3212 72.59Z" fill="white"/>
<path d="M67.084 68.0266C67.0866 69.2117 66.6934 70.3637 65.9668 71.2999C65.2402 72.2361 64.2218 72.9029 63.0732 73.1946C61.9246 73.4862 60.7114 73.3859 59.6263 72.9097C58.5411 72.4335 57.646 71.6086 57.0829 70.5658C56.6575 69.7873 56.4359 68.9138 56.4387 68.0266C56.4826 66.6442 57.0626 65.3331 58.056 64.3708C59.0494 63.4085 60.3783 62.8704 61.7613 62.8704C63.1444 62.8704 64.4733 63.4085 65.4667 64.3708C66.4601 65.3331 67.0401 66.6442 67.084 68.0266Z" fill="white"/>
<path opacity="0.5" d="M66.4398 70.5658C65.9834 71.4088 65.3078 72.1129 64.4843 72.6035C63.6608 73.0941 62.72 73.3532 61.7614 73.3532C60.8028 73.3532 59.862 73.0941 59.0384 72.6035C58.2149 72.1129 57.5393 71.4088 57.0829 70.5658C58.4681 69.6414 60.0961 69.1481 61.7614 69.1481C63.4267 69.1481 65.0546 69.6414 66.4398 70.5658Z" fill="#384AED"/>
<path d="M64.1315 66.2068C64.1325 66.6763 63.9943 67.1356 63.7342 67.5265C63.4741 67.9174 63.1039 68.2223 62.6704 68.4027C62.237 68.5832 61.7597 68.6309 61.2991 68.54C60.8385 68.449 60.4152 68.2235 60.0828 67.8918C59.7504 67.5602 59.5239 67.1374 59.4319 66.677C59.3399 66.2166 59.3866 65.7392 59.566 65.3054C59.7455 64.8715 60.0496 64.5006 60.4399 64.2396C60.8302 63.9787 61.2892 63.8394 61.7587 63.8394C62.3871 63.8394 62.9898 64.0886 63.4346 64.5324C63.8794 64.9762 64.13 65.5784 64.1315 66.2068Z" fill="#FFB573"/>
<path d="M116.252 35.9619H52.8688C50.5474 35.9619 48.6655 37.8438 48.6655 40.1653V50.6012C48.6655 52.9226 50.5474 54.8045 52.8688 54.8045H116.252C118.573 54.8045 120.455 52.9226 120.455 50.6012V40.1653C120.455 37.8438 118.573 35.9619 116.252 35.9619Z" fill="#384AED"/>
<path d="M118.507 46.9937L113.997 54.8045H125.271L118.507 46.9937Z" fill="#384AED"/>
<path d="M75.9846 42.5381L76.9079 44.4116L78.9747 44.7122L77.4769 46.167L77.8312 48.2231L75.9846 47.2514L74.1379 48.2231L74.4922 46.167L72.9944 44.7122L75.0612 44.4116L75.9846 42.5381Z" fill="white"/>
<path d="M84.3698 42.5381L85.2931 44.4116L87.3599 44.7122L85.8622 46.167L86.2165 48.2231L84.3698 47.2514L82.5231 48.2231L82.8774 46.167L81.3797 44.7122L83.4465 44.4116L84.3698 42.5381Z" fill="white"/>
<path opacity="0.3" d="M92.755 43.7513L93.1952 44.6478C93.2339 44.7266 93.2913 44.7948 93.3624 44.8463C93.4336 44.8977 93.5162 44.931 93.6032 44.9431L94.5856 45.0934L93.8716 45.7913C93.8095 45.8516 93.7629 45.9261 93.7358 46.0083C93.7087 46.0906 93.7019 46.1782 93.7159 46.2637L93.8824 47.2514L93.002 46.7844C92.9244 46.7425 92.8378 46.7204 92.7496 46.72C92.6631 46.7197 92.578 46.7419 92.5027 46.7844L91.6169 47.2514L91.7834 46.2637C91.7974 46.1782 91.7906 46.0906 91.7635 46.0083C91.7364 45.9261 91.6898 45.8516 91.6277 45.7913L90.9137 45.0934L91.9015 44.9484C91.9884 44.9363 92.0711 44.9031 92.1422 44.8516C92.2134 44.8001 92.2708 44.732 92.3094 44.6532L92.7496 43.7567L92.755 43.7513ZM92.7496 42.5435L91.8263 44.417L89.7595 44.7176L91.2573 46.1724L90.903 48.2284L92.7496 47.2568L94.5963 48.2284L94.242 46.1724L95.7398 44.7176L93.673 44.417L92.7496 42.5435Z" fill="white"/>
<path opacity="0.3" d="M101.14 43.7513L101.58 44.6478C101.619 44.7266 101.677 44.7948 101.748 44.8463C101.819 44.8977 101.901 44.931 101.988 44.9431L102.976 45.088L102.262 45.7859C102.2 45.8462 102.153 45.9207 102.126 46.003C102.099 46.0852 102.092 46.1728 102.107 46.2583L102.273 47.246L101.393 46.779C101.315 46.7372 101.228 46.715 101.14 46.7146C101.054 46.7143 100.969 46.7365 100.893 46.779L100.008 47.246L100.174 46.2583C100.188 46.1728 100.181 46.0852 100.154 46.003C100.127 45.9207 100.08 45.8462 100.018 45.7859L99.3043 45.088L100.292 44.9431C100.379 44.931 100.462 44.8977 100.533 44.8463C100.604 44.7948 100.661 44.7266 100.7 44.6478L101.14 43.7513ZM101.14 42.5381L100.217 44.4116L98.1501 44.7122L99.6479 46.167L99.2936 48.2231L101.14 47.2514L102.987 48.2231L102.638 46.167L104.136 44.7122L102.069 44.4116L101.146 42.5381H101.14Z" fill="white"/>
<path opacity="0.3" d="M109.525 43.7513L109.966 44.6478C110.004 44.7266 110.062 44.7948 110.133 44.8463C110.204 44.8977 110.287 44.931 110.374 44.9431L111.361 45.088L110.647 45.7859C110.585 45.8462 110.539 45.9207 110.512 46.003C110.484 46.0852 110.478 46.1728 110.492 46.2583L110.658 47.246L109.778 46.779C109.7 46.7372 109.614 46.715 109.525 46.7146C109.439 46.7143 109.354 46.7365 109.279 46.779L108.393 47.246L108.559 46.2583C108.573 46.1728 108.566 46.0852 108.539 46.003C108.512 45.9207 108.466 45.8462 108.404 45.7859L107.69 45.088L108.677 44.9431C108.764 44.931 108.847 44.8977 108.918 44.8463C108.989 44.7948 109.047 44.7266 109.085 44.6478L109.525 43.7513ZM109.525 42.5381L108.602 44.4116L106.535 44.7122L108.033 46.167L107.679 48.2231L109.525 47.2514L111.372 48.2231L111.018 46.167L112.516 44.7122L110.449 44.4116L109.525 42.5381Z" fill="white"/>
<path opacity="0.2" d="M61.7587 51.8306C65.3194 51.8306 68.2059 48.9441 68.2059 45.3833C68.2059 41.8226 65.3194 38.936 61.7587 38.936C58.1979 38.936 55.3114 41.8226 55.3114 45.3833C55.3114 48.9441 58.1979 51.8306 61.7587 51.8306Z" fill="white"/>
<path d="M67.084 45.3833C67.0854 46.5679 66.6913 47.7191 65.9643 48.6544C65.2373 49.5897 64.2189 50.2556 63.0706 50.5465C61.9223 50.8374 60.7097 50.7368 59.625 50.2605C58.5404 49.7842 57.6457 48.9595 57.0829 47.9171C56.6575 47.1405 56.4359 46.2688 56.4387 45.3833C56.4161 44.6701 56.537 43.9596 56.7943 43.294C57.0516 42.6285 57.44 42.0214 57.9365 41.5089C58.433 40.9964 59.0274 40.5889 59.6845 40.3106C60.3415 40.0323 61.0478 39.8889 61.7614 39.8889C62.4749 39.8889 63.1812 40.0323 63.8382 40.3106C64.4953 40.5889 65.0897 40.9964 65.5862 41.5089C66.0827 42.0214 66.4711 42.6285 66.7284 43.294C66.9857 43.9596 67.1066 44.6701 67.084 45.3833Z" fill="white"/>
<path d="M66.4398 47.917C65.9834 48.76 65.3078 49.4641 64.4843 49.9547C63.6608 50.4453 62.72 50.7044 61.7614 50.7044C60.8028 50.7044 59.862 50.4453 59.0384 49.9547C58.2149 49.4641 57.5393 48.76 57.0829 47.917C58.4681 46.9926 60.0961 46.4993 61.7614 46.4993C63.4267 46.4993 65.0546 46.9926 66.4398 47.917Z" fill="#384AED"/>
<path d="M64.1314 43.5635C64.1314 44.0327 63.9922 44.4915 63.7315 44.8817C63.4708 45.2719 63.1002 45.576 62.6667 45.7556C62.2331 45.9352 61.756 45.9822 61.2957 45.8906C60.8355 45.7991 60.4127 45.5731 60.0808 45.2413C59.749 44.9094 59.523 44.4866 59.4315 44.0264C59.3399 43.5661 59.3869 43.089 59.5665 42.6554C59.7461 42.2219 60.0502 41.8513 60.4404 41.5906C60.8306 41.3298 61.2893 41.1907 61.7586 41.1907C62.0704 41.19 62.3793 41.2509 62.6675 41.3699C62.9557 41.4888 63.2175 41.6636 63.438 41.8841C63.6585 42.1045 63.8332 42.3664 63.9522 42.6546C64.0712 42.9428 64.1321 43.2517 64.1314 43.5635Z" fill="#B55B52"/>
</svg>
