<svg width="262" height="200" viewBox="0 0 262 200" fill="none" xmlns="http://www.w3.org/2000/svg">
<path d="M261.641 176.455H0.959717V176.586H261.641V176.455Z" fill="#EBEBEB"/>
<path d="M235.521 184.844H221.845V184.974H235.521V184.844Z" fill="#EBEBEB"/>
<path d="M186.961 183.15H169.115V183.28H186.961V183.15Z" fill="#EBEBEB"/>
<path d="M217.727 180.006H203.942V180.136H217.727V180.006Z" fill="#EBEBEB"/>
<path d="M58.7736 180.882H36.256V181.012H58.7736V180.882Z" fill="#EBEBEB"/>
<path d="M31.6106 180.882H28.3104V181.012H31.6106V180.882Z" fill="#EBEBEB"/>
<path d="M98.8038 183.082H69.5033V183.212H98.8038V183.082Z" fill="#EBEBEB"/>
<path d="M124.523 153.203H23.8527C23.0641 153.201 22.3082 152.887 21.7511 152.329C21.1939 151.771 20.881 151.014 20.881 150.226V8.71214C20.8878 7.92803 21.2038 7.17828 21.7602 6.62576C22.3167 6.07324 23.0686 5.76257 23.8527 5.76123H124.523C125.312 5.76123 126.069 6.07488 126.628 6.63317C127.186 7.19146 127.5 7.94867 127.5 8.73821V150.226C127.5 151.015 127.186 151.772 126.628 152.331C126.069 152.889 125.312 153.203 124.523 153.203ZM23.8527 5.8655C23.0987 5.86688 22.376 6.16741 21.8432 6.7011C21.3105 7.2348 21.0113 7.95807 21.0113 8.71214V150.226C21.0113 150.98 21.3105 151.703 21.8432 152.237C22.376 152.77 23.0987 153.071 23.8527 153.072H124.523C125.277 153.071 126 152.77 126.534 152.237C127.068 151.703 127.368 150.98 127.369 150.226V8.71214C127.368 7.95759 127.068 7.23434 126.534 6.70079C126 6.16724 125.277 5.86688 124.523 5.8655H23.8527Z" fill="#EBEBEB"/>
<path d="M237.299 153.203H136.623C135.834 153.201 135.078 152.887 134.52 152.329C133.962 151.771 133.648 151.015 133.646 150.226V8.71214C133.655 7.92755 133.972 7.17781 134.529 6.62544C135.086 6.07306 135.839 5.76256 136.623 5.76123H237.299C238.082 5.76394 238.832 6.07522 239.388 6.62759C239.943 7.17997 240.258 7.92893 240.265 8.71214V150.226C240.265 151.013 239.953 151.769 239.397 152.327C238.841 152.885 238.086 153.2 237.299 153.203ZM136.623 5.8655C135.869 5.86688 135.146 6.16724 134.612 6.70079C134.079 7.23434 133.778 7.95759 133.777 8.71214V150.226C133.778 150.98 134.079 151.703 134.612 152.237C135.146 152.77 135.869 153.071 136.623 153.072H237.299C238.053 153.071 238.776 152.77 239.31 152.237C239.843 151.703 240.144 150.98 240.145 150.226V8.71214C240.144 7.95759 239.843 7.23434 239.31 6.70079C238.776 6.16724 238.053 5.86688 237.299 5.8655H136.623Z" fill="#EBEBEB"/>
<path d="M214.114 31.5844H155.408V122.223H214.114V31.5844Z" fill="#EBEBEB"/>
<path d="M113.965 122.228H155.408V31.5894H113.965L113.965 122.228Z" fill="#F5F5F5"/>
<path d="M113.97 31.5844H113.23V122.223H113.97V31.5844Z" fill="#E6E6E6"/>
<path d="M213.008 121.123V32.6947H156.513V121.123H213.008Z" fill="#F5F5F5"/>
<path d="M213.014 85.3367H183.16V32.6947H183.682V84.8153H213.014V85.3367Z" fill="#E0E0E0"/>
<path d="M214.114 122.228H223.582V31.5894H214.114V122.228Z" fill="#E0E0E0"/>
<path d="M156.513 121.118H165.981V32.6896H156.513V121.118Z" fill="#E0E0E0"/>
<path d="M193.462 43.7163H169.391V78.7154H193.462V43.7163Z" fill="#E6E6E6"/>
<path d="M189.583 46.5994H173.26C172.681 46.5994 172.212 47.0685 172.212 47.6473V69.873C172.212 70.4517 172.681 70.9209 173.26 70.9209H189.583C190.162 70.9209 190.631 70.4517 190.631 69.873V47.6473C190.631 47.0685 190.162 46.5994 189.583 46.5994Z" fill="#F0F0F0"/>
<path d="M193.462 78.7207H197.884V43.7216H193.462V78.7207Z" fill="#E0E0E0"/>
<path d="M181.424 55.9007C181.221 55.9007 181.026 55.8199 180.882 55.6762C180.738 55.5324 180.658 55.3375 180.658 55.1342V50.9216C180.658 50.7179 180.738 50.5224 180.882 50.3779C181.025 50.2333 181.22 50.1514 181.424 50.15C181.628 50.1514 181.823 50.2333 181.966 50.3779C182.11 50.5224 182.191 50.7179 182.191 50.9216V55.1342C182.191 55.2349 182.171 55.3346 182.132 55.4275C182.094 55.5205 182.037 55.605 181.966 55.6762C181.895 55.7473 181.81 55.8038 181.717 55.8423C181.624 55.8808 181.525 55.9007 181.424 55.9007Z" fill="#FAFAFA"/>
<path d="M178.661 55.9007C178.458 55.9007 178.263 55.8199 178.119 55.6762C177.975 55.5324 177.895 55.3375 177.895 55.1342V50.9216C177.895 50.7179 177.975 50.5224 178.119 50.3779C178.262 50.2333 178.457 50.1514 178.661 50.15C178.865 50.1514 179.06 50.2333 179.203 50.3779C179.347 50.5224 179.427 50.7179 179.427 50.9216V55.1342C179.427 55.3375 179.347 55.5324 179.203 55.6762C179.059 55.8199 178.864 55.9007 178.661 55.9007Z" fill="#FAFAFA"/>
<path d="M175.898 55.9007C175.694 55.9007 175.5 55.8199 175.356 55.6762C175.212 55.5324 175.131 55.3375 175.131 55.1342V50.9216C175.131 50.7179 175.212 50.5224 175.355 50.3779C175.499 50.2333 175.694 50.1514 175.898 50.15C176.101 50.1514 176.296 50.2333 176.44 50.3779C176.584 50.5224 176.664 50.7179 176.664 50.9216V55.1342C176.664 55.3375 176.583 55.5324 176.44 55.6762C176.296 55.8199 176.101 55.9007 175.898 55.9007Z" fill="#FAFAFA"/>
<path d="M184.187 55.9007C183.987 55.8966 183.796 55.814 183.656 55.6707C183.515 55.5274 183.437 55.3348 183.437 55.1342V50.9216C183.437 50.7179 183.517 50.5224 183.661 50.3779C183.804 50.2333 183.999 50.1514 184.203 50.15C184.407 50.1514 184.602 50.2333 184.745 50.3779C184.889 50.5224 184.969 50.7179 184.969 50.9216V55.1342C184.969 55.2362 184.949 55.3372 184.91 55.4312C184.87 55.5252 184.812 55.6104 184.739 55.6818C184.667 55.7532 184.58 55.8093 184.485 55.8469C184.391 55.8844 184.289 55.9027 184.187 55.9007Z" fill="#FAFAFA"/>
<path d="M186.951 55.9007C186.747 55.9007 186.552 55.8199 186.409 55.6762C186.265 55.5324 186.184 55.3375 186.184 55.1342V50.9216C186.184 50.7179 186.265 50.5224 186.408 50.3779C186.552 50.2333 186.747 50.1514 186.951 50.15C187.154 50.1514 187.349 50.2333 187.493 50.3779C187.636 50.5224 187.717 50.7179 187.717 50.9216V55.1342C187.717 55.2349 187.697 55.3346 187.659 55.4275C187.62 55.5205 187.564 55.605 187.493 55.6762C187.421 55.7473 187.337 55.8038 187.244 55.8423C187.151 55.8808 187.051 55.9007 186.951 55.9007Z" fill="#FAFAFA"/>
<path d="M175.898 61.9014C175.898 62.0045 175.867 62.1053 175.81 62.191C175.753 62.2768 175.671 62.3436 175.576 62.383C175.481 62.4225 175.376 62.4328 175.275 62.4127C175.174 62.3926 175.081 62.3429 175.008 62.27C174.935 62.1971 174.885 62.1042 174.865 62.0031C174.845 61.902 174.855 61.7971 174.895 61.7019C174.934 61.6066 175.001 61.5252 175.087 61.4679C175.172 61.4106 175.273 61.38 175.376 61.38C175.515 61.38 175.647 61.4349 175.745 61.5327C175.843 61.6305 175.898 61.7631 175.898 61.9014Z" fill="#FAFAFA"/>
<path d="M175.898 66.8752C175.898 66.9784 175.867 67.0792 175.81 67.1649C175.753 67.2506 175.671 67.3175 175.576 67.3569C175.481 67.3964 175.376 67.4067 175.275 67.3866C175.174 67.3665 175.081 67.3168 175.008 67.2439C174.935 67.171 174.885 67.0781 174.865 66.977C174.845 66.8758 174.855 66.771 174.895 66.6757C174.934 66.5805 175.001 66.499 175.087 66.4417C175.172 66.3845 175.273 66.3539 175.376 66.3539C175.515 66.3539 175.647 66.4088 175.745 66.5066C175.843 66.6044 175.898 66.737 175.898 66.8752Z" fill="#E6E6E6"/>
<path d="M178.108 66.8752C178.108 66.9784 178.078 67.0792 178.02 67.1649C177.963 67.2506 177.882 67.3175 177.786 67.3569C177.691 67.3964 177.586 67.4067 177.485 67.3866C177.384 67.3665 177.291 67.3168 177.218 67.2439C177.145 67.171 177.096 67.0781 177.076 66.977C177.055 66.8758 177.066 66.771 177.105 66.6757C177.145 66.5805 177.212 66.499 177.297 66.4417C177.383 66.3845 177.484 66.3539 177.587 66.3539C177.725 66.3539 177.858 66.4088 177.956 66.5066C178.053 66.6044 178.108 66.737 178.108 66.8752Z" fill="#E6E6E6"/>
<path d="M180.308 66.8752C180.308 66.9784 180.278 67.0792 180.221 67.1649C180.163 67.2506 180.082 67.3175 179.987 67.3569C179.891 67.3964 179.787 67.4067 179.685 67.3866C179.584 67.3665 179.491 67.3168 179.418 67.2439C179.346 67.171 179.296 67.0781 179.276 66.977C179.256 66.8758 179.266 66.771 179.305 66.6757C179.345 66.5805 179.412 66.499 179.497 66.4417C179.583 66.3845 179.684 66.3539 179.787 66.3539C179.925 66.3539 180.058 66.4088 180.156 66.5066C180.254 66.6044 180.308 66.737 180.308 66.8752Z" fill="#E6E6E6"/>
<path d="M176.685 90.519H172.358V117.312H176.685V90.519Z" fill="#E6E6E6"/>
<path d="M176.685 95.6077H172.358V97.8287H176.685V95.6077Z" fill="#E0E0E0"/>
<path d="M176.685 104.554H172.358V105.498H176.685V104.554Z" fill="#E0E0E0"/>
<path d="M176.69 117.312H178.348V90.5191H176.69V117.312Z" fill="#E0E0E0"/>
<path d="M175.465 93.1782C175.466 93.3653 175.411 93.5485 175.308 93.7044C175.205 93.8604 175.058 93.9822 174.885 94.0543C174.712 94.1263 174.522 94.1454 174.339 94.1092C174.155 94.073 173.986 93.983 173.854 93.8507C173.722 93.7184 173.632 93.5498 173.596 93.3662C173.559 93.1827 173.578 92.9925 173.65 92.8199C173.723 92.6472 173.844 92.4999 174 92.3966C174.156 92.2933 174.339 92.2387 174.527 92.2398C174.775 92.2411 175.013 92.3404 175.189 92.5161C175.364 92.6918 175.464 92.9297 175.465 93.1782Z" fill="#F5F5F5"/>
<path d="M182.211 90.519H177.884V117.312H182.211V90.519Z" fill="#E6E6E6"/>
<path d="M182.211 95.6077H177.884V97.8287H182.211V95.6077Z" fill="#E0E0E0"/>
<path d="M182.211 104.554H177.884V105.498H182.211V104.554Z" fill="#E0E0E0"/>
<path d="M182.217 117.312H183.875V90.5191H182.217V117.312Z" fill="#E0E0E0"/>
<path d="M180.991 93.1782C180.992 93.3653 180.938 93.5485 180.835 93.7044C180.731 93.8604 180.584 93.9822 180.411 94.0543C180.239 94.1263 180.048 94.1454 179.865 94.1092C179.681 94.073 179.513 93.983 179.38 93.8507C179.248 93.7184 179.158 93.5498 179.122 93.3662C179.086 93.1827 179.105 92.9925 179.177 92.8199C179.249 92.6472 179.371 92.4999 179.527 92.3966C179.683 92.2933 179.866 92.2387 180.053 92.2398C180.301 92.2411 180.539 92.3404 180.715 92.5161C180.891 92.6918 180.99 92.9297 180.991 93.1782Z" fill="#F5F5F5"/>
<path d="M187.743 90.519H183.416V117.312H187.743V90.519Z" fill="#E6E6E6"/>
<path d="M187.743 95.6077H183.416V97.8287H187.743V95.6077Z" fill="#E0E0E0"/>
<path d="M187.743 104.554H183.416V105.498H187.743V104.554Z" fill="#E0E0E0"/>
<path d="M187.743 117.312H189.401V90.5191H187.743V117.312Z" fill="#E0E0E0"/>
<path d="M186.518 93.1782C186.519 93.3653 186.464 93.5485 186.361 93.7044C186.258 93.8604 186.11 93.9822 185.938 94.0543C185.765 94.1263 185.575 94.1454 185.391 94.1092C185.208 94.073 185.039 93.983 184.907 93.8507C184.775 93.7184 184.685 93.5498 184.648 93.3662C184.612 93.1827 184.631 92.9925 184.703 92.8199C184.775 92.6472 184.897 92.4999 185.053 92.3966C185.209 92.2933 185.392 92.2387 185.579 92.2398C185.828 92.2411 186.066 92.3404 186.241 92.5161C186.417 92.6918 186.516 92.9297 186.518 93.1782Z" fill="#F5F5F5"/>
<path d="M193.27 90.519H188.942V117.312H193.27V90.519Z" fill="#E6E6E6"/>
<path d="M193.27 95.6077H188.942V97.8287H193.27V95.6077Z" fill="#E0E0E0"/>
<path d="M193.27 104.554H188.942V105.498H193.27V104.554Z" fill="#E0E0E0"/>
<path d="M193.27 117.312H194.927V90.5191H193.27V117.312Z" fill="#E0E0E0"/>
<path d="M192.044 93.1782C192.045 93.3653 191.991 93.5485 191.887 93.7044C191.784 93.8604 191.637 93.9822 191.464 94.0543C191.292 94.1263 191.101 94.1454 190.918 94.1092C190.734 94.073 190.566 93.983 190.433 93.8507C190.301 93.7184 190.211 93.5498 190.175 93.3662C190.139 93.1827 190.158 92.9925 190.23 92.8199C190.302 92.6472 190.424 92.4999 190.58 92.3966C190.736 92.2933 190.919 92.2387 191.106 92.2398C191.354 92.2411 191.592 92.3404 191.768 92.5161C191.944 92.6918 192.043 92.9297 192.044 93.1782Z" fill="#F5F5F5"/>
<path d="M198.796 90.519H194.469V117.312H198.796V90.519Z" fill="#E6E6E6"/>
<path d="M198.796 95.6077H194.469V97.8287H198.796V95.6077Z" fill="#E0E0E0"/>
<path d="M198.796 104.554H194.469V105.498H198.796V104.554Z" fill="#E0E0E0"/>
<path d="M198.796 117.312H200.454V90.5191H198.796V117.312Z" fill="#E0E0E0"/>
<path d="M197.571 93.1782C197.572 93.3653 197.517 93.5485 197.414 93.7044C197.311 93.8604 197.163 93.9822 196.991 94.0543C196.818 94.1263 196.628 94.1454 196.444 94.1092C196.261 94.073 196.092 93.983 195.96 93.8507C195.828 93.7184 195.738 93.5498 195.701 93.3662C195.665 93.1827 195.684 92.9925 195.756 92.8199C195.828 92.6472 195.95 92.4999 196.106 92.3966C196.262 92.2933 196.445 92.2387 196.632 92.2398C196.881 92.2411 197.119 92.3404 197.294 92.5161C197.47 92.6918 197.569 92.9297 197.571 93.1782Z" fill="#F5F5F5"/>
<path d="M204.322 90.519H199.995V117.312H204.322V90.519Z" fill="#E6E6E6"/>
<path d="M204.322 95.6077H199.995V97.8287H204.322V95.6077Z" fill="#E0E0E0"/>
<path d="M204.322 104.554H199.995V105.498H204.322V104.554Z" fill="#E0E0E0"/>
<path d="M204.322 117.312H205.98V90.5191H204.322V117.312Z" fill="#E0E0E0"/>
<path d="M203.097 93.1782C203.098 93.3653 203.044 93.5485 202.94 93.7044C202.837 93.8604 202.69 93.9822 202.517 94.0543C202.344 94.1263 202.154 94.1454 201.971 94.1092C201.787 94.073 201.619 93.983 201.486 93.8507C201.354 93.7184 201.264 93.5498 201.228 93.3662C201.192 93.1827 201.211 92.9925 201.283 92.8199C201.355 92.6472 201.477 92.4999 201.633 92.3966C201.788 92.2933 201.972 92.2387 202.159 92.2398C202.407 92.2411 202.645 92.3404 202.821 92.5161C202.997 92.6918 203.096 92.9297 203.097 93.1782Z" fill="#F5F5F5"/>
<path d="M174.787 90.5191H174.266V84.8154H183.421V85.3368H174.787V90.5191Z" fill="#E0E0E0"/>
<path d="M180.314 85.0762H179.792V90.5244H180.314V85.0762Z" fill="#E0E0E0"/>
<path d="M185.84 85.0762H185.319V90.5244H185.84V85.0762Z" fill="#E0E0E0"/>
<path d="M191.367 85.0762H190.845V90.5244H191.367V85.0762Z" fill="#E0E0E0"/>
<path d="M196.893 85.0762H196.372V90.5244H196.893V85.0762Z" fill="#E0E0E0"/>
<path d="M202.419 85.0762H201.898V90.5244H202.419V85.0762Z" fill="#E0E0E0"/>
<path d="M209.458 56.7661H201.215V72.7302H209.458V56.7661Z" fill="#EBEBEB"/>
<path d="M208.655 56.7661H201.215V72.7302H208.655V56.7661Z" fill="white"/>
<path d="M205.668 32.6947H205.011V56.766H205.668V32.6947Z" fill="#E0E0E0"/>
<path d="M83.7886 66.1038H62.4805L62.9132 67.9025H78.2465L82.2923 84.706H66.9434L67.3761 86.5047H82.7094L86.7551 103.308H71.4219L71.7868 104.805L62.4805 66.1038H56.4796L83.0691 176.586H89.07L76.1141 122.776L76.3331 123.704H91.6768L95.7226 140.507H80.3789L80.8116 142.306H96.1449L100.191 159.11H84.8574L85.2901 160.903H100.623L104.403 176.586H110.389L83.7886 66.1038ZM75.9004 121.89L71.865 105.102H87.1983L91.2441 121.905L75.9004 121.89Z" fill="#E0E0E0"/>
<path d="M45.8542 176.586H47.46L74.06 66.1038H72.4594L45.8542 176.586Z" fill="#F5F5F5"/>
<path d="M51.8447 176.586H47.4601L74.06 66.1038H78.4446L51.8447 176.586Z" fill="#E6E6E6"/>
<path d="M24.5357 176.586H26.1415L52.7414 66.1038H51.1356L24.5357 176.586Z" fill="#F5F5F5"/>
<path d="M30.521 176.586H26.1415L52.7414 66.1038H57.1261L30.521 176.586Z" fill="#E6E6E6"/>
<path d="M52.3087 67.9025H72.0266L72.4594 66.1038H52.7414L52.3087 67.9025Z" fill="#F5F5F5"/>
<path d="M47.8302 86.5046H67.5481L67.9809 84.7059H48.2629L47.8302 86.5046Z" fill="#F5F5F5"/>
<path d="M43.3517 105.102H63.0697L63.5024 103.303H43.7845L43.3517 105.102Z" fill="#F5F5F5"/>
<path d="M38.8732 123.704H58.5911L59.0239 121.905H39.3059L38.8732 123.704Z" fill="#F5F5F5"/>
<path d="M34.3947 142.306H54.1126L54.5454 140.507H34.8274L34.3947 142.306Z" fill="#F5F5F5"/>
<path d="M29.9162 160.903H49.6341L50.0668 159.109H30.3489L29.9162 160.903Z" fill="#F5F5F5"/>
<path d="M200.026 144.699V140.085C200.026 139.482 199.787 138.904 199.361 138.478C198.934 138.051 198.356 137.812 197.753 137.812C197.151 137.813 196.574 138.053 196.149 138.48C195.724 138.906 195.485 139.483 195.485 140.085V144.699C195.485 146.516 194.776 148.261 193.509 149.563L187.863 155.361C187.285 155.956 186.861 156.683 186.628 157.479C186.396 158.275 186.361 159.116 186.528 159.928L189.928 176.455H205.568L208.983 159.928C209.15 159.116 209.116 158.275 208.883 157.479C208.651 156.683 208.227 155.956 207.649 155.361L202.002 149.563C200.736 148.261 200.027 146.516 200.026 144.699Z" fill="#EBEBEB"/>
<path d="M197.758 137.812H196.382V139.558H197.758V137.812Z" fill="#EBEBEB"/>
<path d="M198.65 144.699V140.085C198.65 139.483 198.411 138.906 197.986 138.48C197.561 138.053 196.984 137.813 196.382 137.812C195.779 137.812 195.201 138.051 194.775 138.478C194.348 138.904 194.109 139.482 194.109 140.085V144.699C194.108 146.516 193.399 148.261 192.133 149.563L186.492 155.361C185.912 155.954 185.486 156.681 185.252 157.477C185.019 158.274 184.984 159.115 185.152 159.928L188.556 176.455H204.197L207.597 159.928C207.764 159.116 207.729 158.275 207.497 157.479C207.264 156.683 206.84 155.956 206.262 155.361L200.642 149.563C199.368 148.264 198.653 146.518 198.65 144.699Z" fill="#E0E0E0"/>
<path d="M196.382 139.564H165.1V141.435H196.382C196.618 141.418 196.839 141.312 197 141.138C197.161 140.964 197.251 140.736 197.251 140.5C197.251 140.263 197.161 140.035 197 139.861C196.839 139.688 196.618 139.581 196.382 139.564Z" fill="#EBEBEB"/>
<path d="M168.739 144.699V140.085C168.739 139.483 168.501 138.906 168.075 138.48C167.65 138.053 167.073 137.813 166.471 137.812C165.869 137.812 165.29 138.051 164.864 138.478C164.438 138.904 164.198 139.482 164.198 140.085V144.699C164.198 146.516 163.489 148.261 162.222 149.563L156.576 155.361C155.998 155.956 155.574 156.683 155.341 157.479C155.109 158.275 155.074 159.116 155.241 159.928L158.641 176.455H174.281L177.702 159.928C177.869 159.116 177.834 158.275 177.602 157.479C177.369 156.683 176.945 155.956 176.367 155.361L170.715 149.563C169.449 148.261 168.74 146.516 168.739 144.699Z" fill="#EBEBEB"/>
<path d="M166.471 137.812H165.095V139.558H166.471V137.812Z" fill="#EBEBEB"/>
<path d="M167.363 144.699V140.085C167.363 139.483 167.124 138.906 166.699 138.48C166.274 138.053 165.697 137.813 165.095 137.812C164.797 137.812 164.501 137.871 164.226 137.985C163.95 138.099 163.7 138.267 163.49 138.478C163.279 138.689 163.112 138.94 162.998 139.216C162.885 139.491 162.826 139.787 162.827 140.085V144.699C162.825 146.516 162.114 148.261 160.846 149.563L155.205 155.361C154.626 155.955 154.201 156.682 153.968 157.478C153.735 158.274 153.702 159.116 153.87 159.928L157.269 176.455H172.91L176.31 159.928C176.478 159.116 176.444 158.274 176.212 157.478C175.979 156.682 175.554 155.955 174.975 155.361L169.36 149.563C168.086 148.264 167.37 146.519 167.363 144.699Z" fill="#F5F5F5"/>
<path d="M166.034 140.497C166.035 140.683 165.98 140.865 165.878 141.02C165.775 141.175 165.629 141.296 165.458 141.368C165.286 141.44 165.098 141.459 164.915 141.423C164.733 141.388 164.565 141.299 164.433 141.168C164.302 141.037 164.212 140.869 164.175 140.687C164.138 140.505 164.157 140.316 164.228 140.144C164.298 139.972 164.419 139.826 164.573 139.722C164.728 139.619 164.909 139.564 165.095 139.564C165.343 139.565 165.58 139.664 165.755 139.838C165.931 140.013 166.031 140.249 166.034 140.497Z" fill="#EBEBEB"/>
<path d="M207.909 159.928H177.457L173.995 176.455H204.448L207.909 159.928Z" fill="#EBEBEB"/>
<path d="M51.0105 14.374H27.3772V19.5929H51.0105V14.374Z" fill="#FAFAFA"/>
<path d="M62.2719 19.5929H38.6386V24.8117H62.2719V19.5929Z" fill="#F5F5F5"/>
<path d="M201.111 17.9714H177.477V23.1903H201.111V17.9714Z" fill="#FAFAFA"/>
<path d="M212.377 12.7527H188.744V17.9715H212.377V12.7527Z" fill="#F5F5F5"/>
<path d="M50.4527 49.2793H26.8193V54.4981H50.4527V49.2793Z" fill="#F5F5F5"/>
<path d="M231.72 128.928H208.087V134.147H231.72V128.928Z" fill="#F5F5F5"/>
<path d="M131.3 200C187.129 200 232.387 197.358 232.387 194.098C232.387 190.839 187.129 188.196 131.3 188.196C75.4716 188.196 30.2134 190.839 30.2134 194.098C30.2134 197.358 75.4716 200 131.3 200Z" fill="#F5F5F5"/>
<path d="M128.803 61.6928C128.141 62.334 127.547 62.8763 126.905 63.4393C126.264 64.0024 125.623 64.5394 124.971 65.0764C123.657 66.1191 122.317 67.1618 120.889 68.1524C119.436 69.1738 117.921 70.1037 116.353 70.9365C115.508 71.3928 114.638 71.8001 113.746 72.1565C112.675 72.5857 111.56 72.8918 110.42 73.0689L110.154 73.1106C109.972 73.1287 109.788 73.1287 109.606 73.1106C108.444 73.0308 107.305 72.7374 106.249 72.2451C105.452 71.8816 104.685 71.4562 103.955 70.973C102.675 70.1212 101.466 69.1694 100.337 68.1264C99.2522 67.1254 98.2512 66.0931 97.2867 64.9982C96.3217 63.9226 95.4167 62.7948 94.5756 61.6198C94.2648 61.1727 94.1177 60.6322 94.1589 60.0894C94.2002 59.5465 94.4273 59.0344 94.802 58.6395C95.1768 58.2446 95.6762 57.9909 96.2162 57.9212C96.7561 57.8515 97.3036 57.9701 97.7663 58.257L97.8289 58.2987L101.197 60.4206C102.318 61.1193 103.434 61.8075 104.544 62.4331C105.587 63.0436 106.665 63.5937 107.771 64.0806C108.222 64.2881 108.692 64.4522 109.174 64.5707C109.565 64.6645 109.898 64.675 109.789 64.6176L108.981 64.6802C109.413 64.5208 109.833 64.3309 110.237 64.1119C110.759 63.8303 111.337 63.5019 111.911 63.1317C112.484 62.7615 113.074 62.3549 113.657 61.9222C114.241 61.4894 114.841 61.0619 115.43 60.6031C116.608 59.6803 117.797 58.7262 118.965 57.7408L120.717 56.2549L122.422 54.7847L122.505 54.7169C123.43 53.9164 124.632 53.509 125.853 53.5815C127.074 53.654 128.219 54.2007 129.043 55.105C129.867 56.0093 130.306 57.1998 130.265 58.4226C130.224 59.6454 129.707 60.8039 128.824 61.651L128.803 61.6928Z" fill="#CF7A64"/>
<path d="M96.8904 61.9068L91.6768 62.4281L92.8186 56.2291C92.8186 56.2291 97.6099 56.3178 97.9749 58.8724L96.8904 61.9068Z" fill="#263238"/>
<path d="M87.4121 59.0339L88.1785 56.9485C88.3257 56.5422 88.6127 56.2016 88.9881 55.9877C89.3635 55.7737 89.8029 55.7003 90.2274 55.7806L92.8342 56.2655L91.6768 62.4436L88.5486 61.4009C88.316 61.3238 88.1014 61.2006 87.9174 61.0388C87.7334 60.8769 87.5839 60.6796 87.4779 60.4587C87.3718 60.2378 87.3113 59.9978 87.3 59.753C87.2887 59.5082 87.3268 59.2637 87.4121 59.0339Z" fill="#263238"/>
<path d="M93.2878 61.1195C94.659 62.1935 96.9373 65.4625 97.4014 66.4374C100.858 65.1757 102.584 61.912 102.12 60.7285C99.7579 58.9089 97.7246 57.6889 96.2283 57.397C93.7883 57.8975 93.2878 61.1195 93.2878 61.1195Z" fill="#263238"/>
<path d="M132.52 56.4793C131.754 59.0444 130.075 62.6366 127.515 64.1173C124.955 65.5979 120.529 71.1609 117.14 72.6311C111.723 69.8575 111.436 64.9462 112.078 62.4124C115.357 58.0642 121.348 51.6932 124.465 50.8486C127.176 50.1135 129.517 54.3626 132.52 56.4793Z" fill="#263238"/>
<path d="M131.916 36.2035C133.693 36.9386 134.752 36.657 134.752 36.657C134.752 36.657 133.709 35.3171 133.709 34.6498C133.855 34.8696 134.047 35.0545 134.272 35.1915C134.498 35.3285 134.75 35.4141 135.012 35.4423C134.199 32.58 135.972 31.4434 135.393 30.3277C134.298 28.211 130.268 28.1901 130.628 30.4737C128.959 31.3548 128.652 33.4611 128.652 33.4611C128.93 33.0273 129.312 32.6691 129.762 32.4184C129.069 34.0554 129.413 36.3755 130.612 38.1169C130.841 38.1177 131.066 38.0624 131.268 37.956C131.47 37.8495 131.643 37.6951 131.772 37.5062C131.901 37.3174 131.981 37.0999 132.006 36.8727C132.031 36.6456 132 36.4158 131.916 36.2035Z" fill="#263238"/>
<path d="M152.81 107.312L154.38 106.908C155.496 106.621 156.167 105.484 155.88 104.368L153.412 94.7749C153.125 93.6595 151.988 92.9879 150.873 93.2749L149.302 93.679C148.187 93.966 147.515 95.1029 147.802 96.2183L150.271 105.812C150.558 106.927 151.695 107.599 152.81 107.312Z" fill="#263238"/>
<path d="M148.995 93.0374C151.18 91.5151 152.452 91.5359 153.297 92.1511C154.141 92.7663 154.339 96.4837 155.533 98.4544C153.917 99.2052 148.995 93.0374 148.995 93.0374Z" fill="#263238"/>
<path d="M146.217 49.8892C140.144 49.2169 134.018 49.1767 127.938 49.7693C125.436 50.0361 123.123 51.2203 121.444 53.0931C119.764 54.9658 118.839 57.3944 118.845 59.9098C118.845 69.263 121.322 82.9018 122.88 97.2602C137.124 102.041 149.136 97.0203 149.136 97.0203C149.454 93.741 149.277 83.9863 148.177 78.2513C148.985 72.3286 151.034 65.5509 152.197 57.6888C152.326 56.7826 152.273 55.8596 152.041 54.9741C151.81 54.0885 151.403 53.2582 150.846 52.5318C150.289 51.8053 149.593 51.1974 148.798 50.7436C148.003 50.2898 147.125 49.9993 146.217 49.8892Z" fill="#263238"/>
<path d="M140.711 38.5654C140.513 42.3015 141.164 46.034 142.614 49.4828C140.695 51.2658 137.583 53.4816 133.433 53.4191C129.283 53.3565 129.971 51.2398 131.081 49.7956C134.053 48.2941 134.246 46.0939 133.516 44.7644L140.711 38.5654Z" fill="#CE7A63"/>
<path opacity="0.2" d="M140.711 38.5654L133.516 44.7644C133.738 45.1748 133.861 45.6318 133.873 46.0982C133.886 46.5647 133.789 47.0276 133.589 47.4495C135.068 47.5348 136.524 47.0581 137.666 46.1148C139.517 44.6289 140.184 42.8302 140.706 40.2807C140.685 39.7385 140.685 39.1702 140.711 38.5654Z" fill="black"/>
<path d="M143.041 35.4787C142.228 40.1292 141.999 42.8977 139.345 45.0144C135.377 48.1947 129.83 45.3481 129.241 40.5307C128.72 36.1982 130.133 29.3162 134.934 28.018C135.996 27.7289 137.114 27.7139 138.184 27.9746C139.253 28.2353 140.239 28.763 141.049 29.5084C141.859 30.2537 142.467 31.1924 142.815 32.2366C143.164 33.2808 143.242 34.3963 143.041 35.4787Z" fill="#CE7A63"/>
<path d="M142.906 37.069C141.06 37.5904 140.038 37.215 140.038 37.215C140.038 37.215 141.211 35.995 141.311 35.3329C141.141 35.535 140.93 35.6976 140.691 35.8093C140.453 35.921 140.192 35.9791 139.929 35.9794C141.045 33.2213 139.408 31.8971 140.106 30.8544C141.42 28.868 146.029 29.6292 145.419 31.8606C145.862 32.1701 146.199 32.6079 146.385 33.115C146.572 33.6221 146.598 34.1742 146.462 34.6968C146.246 34.3081 145.926 33.9868 145.539 33.7688C146.06 35.4736 146.503 36.897 144.006 39.0971C143.78 39.0739 143.563 38.9958 143.374 38.8697C143.185 38.7436 143.029 38.5732 142.921 38.3734C142.812 38.1736 142.754 37.9503 142.752 37.723C142.749 37.4957 142.802 37.2712 142.906 37.069Z" fill="#263238"/>
<path d="M130.461 40.2545C132.298 40.0636 134.148 40.0201 135.993 40.1241C135.471 41.1668 134.528 41.9645 132.442 41.8915C130.357 41.8185 130.461 40.2545 130.461 40.2545Z" fill="white"/>
<path d="M132.067 39.0866C132.035 40.6507 132.004 41.0939 134.413 41.1721C136.107 41.2399 137.797 42.3556 137.541 43.3566C138.281 42.6006 138.855 40.9375 137.479 39.8322C135.961 38.6331 134.241 38.5027 132.067 39.0866Z" fill="#263238"/>
<path d="M132.557 39.0917C132.499 40.6298 131.822 40.807 130.821 41.0104C129.82 41.2137 129.637 41.7142 129.736 42.4441C128.855 41.9227 128.297 40.4473 128.86 39.7539C129.293 39.2155 129.905 38.8519 130.585 38.7302C131.264 38.6085 131.965 38.7369 132.557 39.0917Z" fill="#263238"/>
<path d="M144.449 39.0711C143.98 40.0573 143.152 40.8273 142.134 41.2243C140.841 41.6883 140.226 40.4162 140.607 39.0242C140.956 37.7677 142.04 36.0159 143.328 36.1567C144.616 36.2974 145.059 37.8146 144.449 39.0711Z" fill="#CE7A63"/>
<path d="M136.623 35.3016C136.566 35.703 136.305 35.9898 136.045 35.9481C135.784 35.9064 135.622 35.5518 135.685 35.1504C135.748 34.7489 136.003 34.4674 136.264 34.5091C136.524 34.5508 136.686 34.9053 136.623 35.3016Z" fill="#263238"/>
<path d="M131.775 34.6029C131.712 34.9992 131.452 35.2859 131.191 35.2442C130.93 35.2025 130.769 34.848 130.831 34.4517C130.894 34.0555 131.149 33.7635 131.41 33.8052C131.671 33.8469 131.822 34.2015 131.775 34.6029Z" fill="#263238"/>
<path d="M133.13 35.3328C133.13 35.3328 131.874 37.4808 130.711 38.4297C131.316 39.1961 132.557 39.0918 132.557 39.0918L133.13 35.3328Z" fill="#BA4D3C"/>
<path d="M138.198 33.628C138.237 33.6407 138.279 33.6407 138.318 33.628C138.376 33.6068 138.423 33.5638 138.449 33.5082C138.475 33.4526 138.479 33.3889 138.459 33.3308C138.34 32.9694 138.135 32.642 137.863 32.3761C137.591 32.1102 137.259 31.9138 136.895 31.8032C136.864 31.7955 136.833 31.7937 136.802 31.7982C136.771 31.8027 136.742 31.8132 136.715 31.8292C136.689 31.8452 136.665 31.8664 136.647 31.8915C136.628 31.9165 136.615 31.945 136.608 31.9753C136.594 32.0361 136.604 32.1 136.636 32.1536C136.668 32.2071 136.72 32.246 136.78 32.262C137.063 32.3563 137.32 32.5158 137.53 32.7278C137.74 32.9397 137.898 33.1981 137.989 33.482C138.006 33.5238 138.035 33.5599 138.072 33.5858C138.109 33.6117 138.153 33.6263 138.198 33.628Z" fill="#263238"/>
<path d="M129.966 32.4707C130.004 32.4782 130.044 32.4759 130.081 32.464C130.119 32.4522 130.152 32.4312 130.179 32.4029C130.379 32.1848 130.628 32.0172 130.906 31.9139C131.183 31.8106 131.481 31.7745 131.775 31.8086C131.805 31.8154 131.836 31.8161 131.867 31.8105C131.897 31.805 131.926 31.7933 131.952 31.7763C131.978 31.7592 132 31.7371 132.017 31.7113C132.034 31.6855 132.046 31.6565 132.051 31.6261C132.063 31.5639 132.051 31.4994 132.015 31.4466C131.98 31.3938 131.926 31.3572 131.863 31.3446C131.492 31.2953 131.115 31.3358 130.763 31.4629C130.411 31.5899 130.095 31.7997 129.841 32.0745C129.797 32.1192 129.773 32.179 129.773 32.2413C129.773 32.3036 129.797 32.3634 129.841 32.4082C129.877 32.4387 129.92 32.4601 129.966 32.4707Z" fill="#263238"/>
<path d="M137.223 139.491C141.039 118.198 142.63 92.5212 142.63 92.5212L121.619 92.2031C121.619 92.2031 124.038 126.806 124.877 141.3C125.748 156.372 126.358 185.371 126.358 185.371H133.386C133.386 185.371 139.34 158.124 137.223 139.491Z" fill="#384AED"/>
<path opacity="0.2" d="M133.099 98.3239C133.099 98.3239 135.862 118.991 138.125 134.147C140.137 121.41 141.415 108.026 142.077 99.9766L133.099 98.3239Z" fill="black"/>
<path d="M116.937 192.487C116.937 192.487 126.358 190.282 126.77 187.065L132.776 187.847L133.433 194.103H130.951L130.56 193.327L129.726 194.103C121.301 194.103 118.178 194.015 116.619 193.493C116.572 193.313 116.576 193.122 116.633 192.944C116.689 192.766 116.794 192.608 116.937 192.487Z" fill="#263238"/>
<path d="M133.626 188.979C131.373 189.109 126.848 188.78 125.993 188.348C125.138 187.915 125.633 184.417 125.633 184.417C125.633 184.417 133.511 183.635 134.204 184.067C134.898 184.5 133.626 188.979 133.626 188.979Z" fill="#384AED"/>
<path opacity="0.3" d="M133.626 188.979C131.373 189.109 126.848 188.78 125.993 188.348C125.138 187.915 125.633 184.417 125.633 184.417C125.633 184.417 133.511 183.635 134.204 184.067C134.898 184.5 133.626 188.979 133.626 188.979Z" fill="white"/>
<path d="M156.102 138.891C152.635 117.479 153.015 103.167 149.548 92.6149L129.429 92.3386C129.429 92.3386 139.027 126.316 143.406 140.46C147.786 154.605 155.737 185.371 155.737 185.371H162.17C162.17 185.371 161.91 155.455 156.102 138.891Z" fill="#384AED"/>
<path d="M148.969 192.487C148.969 192.487 156.076 190.282 156.487 187.065L162.493 187.847L163.15 194.103H161.586L161.195 193.327L160.361 194.103C151.936 194.103 150.2 194.015 148.641 193.493C148.595 193.312 148.601 193.121 148.659 192.943C148.718 192.765 148.825 192.607 148.969 192.487Z" fill="#263238"/>
<path d="M163.15 188.827C161.764 189.109 156.529 188.78 155.585 188.347C154.642 187.915 154.944 184.239 154.944 184.239C154.944 184.239 162.066 183.395 162.827 183.827C163.588 184.26 163.15 188.827 163.15 188.827Z" fill="#384AED"/>
<path opacity="0.3" d="M163.15 188.827C161.764 189.109 156.529 188.78 155.585 188.347C154.642 187.915 154.944 184.239 154.944 184.239C154.944 184.239 162.066 183.395 162.827 183.827C163.588 184.26 163.15 188.827 163.15 188.827Z" fill="white"/>
<path d="M121.619 92.2031C121.415 89.8466 119.413 73.1265 119.335 71.5937C119.434 63.2519 123.626 52.6526 126.373 49.613C127.006 49.3374 127.716 49.2967 128.376 49.4983C128.376 49.4983 124.58 54.3366 123.537 62.3864C130.518 64.0652 138.052 63.2258 140.023 62.8191C140.711 57.2041 144.194 50.4263 144.955 49.4618C145.59 49.4267 146.226 49.517 146.827 49.7277C146.827 49.7277 143.041 57.2979 142.656 63.1111C142.27 68.9243 149.804 71.7449 149.804 71.7449C149.804 71.7449 148.995 76.7812 149.167 79.0439C149.339 81.3066 149.574 92.5994 149.574 92.5994C149.574 92.5994 131.405 95.5711 121.619 92.2031Z" fill="#384AED"/>
<path d="M126.645 101.014L123.115 92.156L122.771 92.2916L122.422 92.4323L125.956 101.29L125.863 102.072L126.916 103.715L127.265 103.574L127.62 103.433L127.249 101.52L126.645 101.014Z" fill="white"/>
<path d="M123.037 92.9695C122.73 93.0894 122.388 93.0834 122.085 92.9525C121.782 92.8217 121.544 92.5767 121.421 92.2708L118.167 84.1115C118.046 83.8038 118.051 83.4604 118.182 83.1566C118.313 82.8527 118.559 82.6131 118.866 82.4901C119.173 82.3701 119.515 82.3762 119.818 82.507C120.12 82.6378 120.359 82.8828 120.482 83.1887L123.735 91.348C123.857 91.6558 123.852 91.9991 123.721 92.303C123.59 92.6068 123.344 92.8465 123.037 92.9695Z" fill="#263238"/>
<path d="M121.504 91.0613C121.16 91.4106 121.103 93.6681 121.796 94.7108C126.441 97.1039 138.688 97.4532 150.111 94.4971C150.387 93.1572 150.278 91.3689 149.506 90.811C147.942 92.1457 135.841 94.0591 127.562 92.9851C125.436 92.7482 123.377 92.0945 121.504 91.0613Z" fill="#263238"/>
<path opacity="0.2" d="M123.245 65.4572C123.245 65.4572 127.593 67.2402 139.715 66.3695C139.866 70.1105 139.735 73.8575 139.324 77.5788C138.975 79.7946 129.418 81.9218 129.418 81.9218C129.418 81.9218 123.324 79.5757 122.844 76.8385C122.364 74.1013 123.245 65.4572 123.245 65.4572Z" fill="white"/>
<path d="M146.446 33.0856C142.087 31.3912 136.342 29.556 131.227 29.6655C131.363 28.2381 131.996 26.9038 133.016 25.896C134.058 25.0514 137.531 24.332 140.237 24.9211C142.379 25.4007 144.997 27.0065 146.164 29.0555C146.67 29.9418 146.446 33.0856 146.446 33.0856Z" fill="#384AED"/>
<path opacity="0.3" d="M140.565 26.527C138.521 24.6501 134.043 25.0516 133.016 25.8962C131.996 26.9039 131.363 28.2383 131.227 29.6656C134.475 29.5979 137.974 30.3121 141.211 31.2766C141.264 29.5457 141.357 28.258 140.565 26.527Z" fill="white"/>
<path d="M142.077 31.5372C138.996 31.2661 135.654 31.1149 134.194 30.4945C132.734 29.8741 129.158 29.6238 128.459 30.385C128.136 29.7959 129.778 28.7271 133.151 28.9044C136.524 29.0816 142.077 31.5372 142.077 31.5372Z" fill="#384AED"/>
<path d="M137.046 26.0734L135.659 25.9587L135.085 27.1005L134.684 27.064L134.147 28.5238L135.685 27.1579L135.967 27.1787L137.046 26.0734Z" fill="white"/>
<path d="M140.685 24.9838C140.633 25.2444 140.278 25.3904 139.903 25.3122C139.527 25.234 139.272 24.9473 139.329 24.6866C139.387 24.4259 139.736 24.2799 140.111 24.3581C140.487 24.4363 140.758 24.7179 140.685 24.9838Z" fill="#384AED"/>
<path d="M152.676 53.5284C153.354 54.1592 153.933 54.7171 154.527 55.3323C155.121 55.9475 155.695 56.5523 156.268 57.1727C157.4 58.4292 158.51 59.7117 159.558 61.0829C160.658 62.4782 161.67 63.9408 162.587 65.4623C163.089 66.2874 163.543 67.1403 163.948 68.017C164.437 69.0627 164.802 70.1614 165.038 71.2912L165.095 71.5519C165.129 71.7235 165.145 71.8983 165.142 72.0732C165.129 73.2402 164.899 74.3947 164.464 75.4777C164.142 76.2909 163.758 77.0787 163.317 77.8343C162.537 79.16 161.652 80.4206 160.669 81.6037C159.745 82.7245 158.765 83.7981 157.733 84.8205C156.709 85.8395 155.632 86.8036 154.506 87.7089C154.078 88.0491 153.545 88.23 152.998 88.2207C152.451 88.2115 151.924 88.0126 151.507 87.6581C151.09 87.3036 150.81 86.8154 150.713 86.277C150.616 85.7386 150.709 85.1832 150.977 84.7058L151.013 84.6433L152.953 81.1606C153.589 80.0031 154.214 78.8561 154.777 77.7144C155.331 76.6385 155.822 75.5313 156.248 74.3985C156.429 73.9359 156.569 73.4578 156.665 72.97C156.738 72.5737 156.727 72.2453 156.665 72.3548L156.769 73.1577C156.589 72.7342 156.378 72.3247 156.138 71.9324C155.825 71.4111 155.466 70.8897 155.064 70.3162C154.663 69.7427 154.225 69.2005 153.766 68.6374C153.307 68.0744 152.838 67.5009 152.348 66.9378C151.362 65.8117 150.346 64.6803 149.298 63.5646L147.734 61.8962L146.17 60.2748L146.091 60.1966C145.282 59.3084 144.844 58.1435 144.868 56.942C144.892 55.7406 145.377 54.5942 146.221 53.7392C147.065 52.8841 148.206 52.3856 149.407 52.3464C150.608 52.3072 151.778 52.7302 152.676 53.5284Z" fill="#CF7A64"/>
<path d="M154.068 83.2932L148.813 83.3662L150.664 89.3932C150.664 89.3932 155.419 88.7519 155.481 86.1711L154.068 83.2932Z" fill="#263238"/>
<path d="M144.976 87.2553L145.982 89.2574C146.175 89.6435 146.499 89.9484 146.897 90.1174C147.294 90.2865 147.739 90.3087 148.151 90.1802L150.664 89.3929L148.813 83.366L145.82 84.7893C145.601 84.8938 145.405 85.0411 145.244 85.2223C145.082 85.4036 144.959 85.6152 144.88 85.8449C144.801 86.0745 144.769 86.3176 144.786 86.5597C144.802 86.8019 144.867 87.0384 144.976 87.2553Z" fill="#263238"/>
<path d="M150.778 84.1115C151.962 82.7279 152.88 81.137 153.484 79.4192C157.077 80.2117 159.219 83.2147 158.917 84.4503C156.831 86.5671 154.965 88.0477 153.526 88.5326C151.482 87.469 150.778 84.1115 150.778 84.1115Z" fill="#263238"/>
<path d="M147.28 50.103C149.887 50.7287 153.563 52.1885 155.174 54.6806C156.785 57.1727 161.133 61.8962 162.785 65.1965C160.309 70.7542 156.873 70.6916 154.313 70.1911C149.793 67.1516 143.969 63.3769 143.886 60.1549C143.813 57.3448 145.33 53.2051 147.28 50.103Z" fill="#263238"/>
<path d="M150.466 77.2713C150.677 77.394 150.915 77.4637 151.159 77.4747C151.348 77.4852 151.535 77.4237 151.68 77.3026C151.796 77.1733 151.878 77.0182 151.921 76.8503C151.963 76.6824 151.965 76.5067 151.925 76.3381C151.781 75.5749 151.543 74.8324 151.216 74.1275C151.076 73.7938 150.93 73.4393 150.81 73.0848C150.493 72.0536 150.268 70.9963 150.137 69.9253C149.981 68.8878 149.824 67.7982 149.757 66.7554C149.699 65.8274 149.725 64.8733 149.725 63.9557V62.4386C149.72 61.839 149.678 61.2342 149.678 60.6294C149.6 58.1113 149.522 55.5097 150.528 53.2417C150.596 53.0853 150.674 52.9289 150.747 52.7725L150.758 52.7499C151.135 51.9489 151.522 51.127 151.336 50.2335C151.319 50.0823 151.248 49.9421 151.138 49.8372C151.081 49.7818 151.012 49.7403 150.936 49.7159C150.86 49.6915 150.779 49.6849 150.7 49.6965C150.529 49.7305 150.371 49.8139 150.247 49.9363C150.14 49.8992 150.025 49.8902 149.913 49.9102C149.605 49.9676 149.339 50.3534 149.084 50.8174L148.985 50.9999C148.493 51.7683 148.06 52.5736 147.692 53.4086C146.955 55.0834 146.43 56.8435 146.128 58.6483C145.949 59.6741 145.834 60.7102 145.784 61.7504C145.58 65.4208 146.081 69.357 147.348 74.1327C147.47 74.6822 147.676 75.2097 147.958 75.6968C148.205 76.0758 148.531 76.3972 148.913 76.6392C149.295 76.8812 149.725 77.0381 150.174 77.0993L150.466 77.2713Z" fill="#384AED"/>
<path opacity="0.4" d="M150.466 77.2713C150.677 77.394 150.915 77.4637 151.159 77.4747C151.348 77.4852 151.535 77.4237 151.68 77.3026C151.796 77.1733 151.878 77.0182 151.921 76.8503C151.963 76.6824 151.965 76.5067 151.925 76.3381C151.781 75.5749 151.543 74.8324 151.216 74.1275C151.076 73.7938 150.93 73.4393 150.81 73.0848C150.493 72.0536 150.268 70.9963 150.137 69.9253C149.981 68.8878 149.824 67.7982 149.757 66.7554C149.699 65.8274 149.725 64.8733 149.725 63.9557V62.4386C149.72 61.839 149.678 61.2342 149.678 60.6294C149.6 58.1113 149.522 55.5097 150.528 53.2417C150.596 53.0853 150.674 52.9289 150.747 52.7725L150.758 52.7499C151.135 51.9489 151.522 51.127 151.336 50.2335C151.319 50.0823 151.248 49.9421 151.138 49.8372C151.081 49.7818 151.012 49.7403 150.936 49.7159C150.86 49.6915 150.779 49.6849 150.7 49.6965C150.529 49.7305 150.371 49.8139 150.247 49.9363C150.14 49.8992 150.025 49.8902 149.913 49.9102C149.605 49.9676 149.339 50.3534 149.084 50.8174L148.985 50.9999C148.493 51.7683 148.06 52.5736 147.692 53.4086C146.955 55.0834 146.43 56.8435 146.128 58.6483C145.949 59.6741 145.834 60.7102 145.784 61.7504C145.58 65.4208 146.081 69.357 147.348 74.1327C147.47 74.6822 147.676 75.2097 147.958 75.6968C148.205 76.0758 148.531 76.3972 148.913 76.6392C149.295 76.8812 149.725 77.0381 150.174 77.0993L150.466 77.2713Z" fill="white"/>
<path opacity="0.4" d="M102.073 27.0641C101.644 24.9803 100.694 23.0393 99.3105 21.423C97.9273 19.8067 96.1564 18.5679 94.1638 17.8227C92.1712 17.0774 90.0221 16.8501 87.9177 17.1619C85.8132 17.4738 83.8224 18.3147 82.1316 19.6058C80.4408 20.8969 79.1053 22.5961 78.2503 24.5441C77.3953 26.4921 77.0486 28.6253 77.2428 30.7438C77.4371 32.8623 78.1658 34.8969 79.3608 36.657C80.5558 38.417 82.1779 39.845 84.0753 40.8072C84.7445 41.1409 85.332 41.6179 85.7958 42.2044C86.3492 42.9226 87.0934 43.4706 87.9434 43.7859C88.7934 44.1012 89.715 44.1711 90.6028 43.9875L94.6746 43.1481C95.5632 42.9658 96.3826 42.5372 97.0391 41.9112C97.6955 41.2851 98.1625 40.487 98.3867 39.608C98.5778 38.8926 98.925 38.2285 99.4034 37.6634C100.619 36.2123 101.49 34.5051 101.953 32.6696C102.415 30.8341 102.456 28.9177 102.073 27.0641Z" fill="#384AED"/>
<path d="M96.5568 45.6764L89.8729 47.0528C89.6303 47.1022 89.3781 47.0538 89.1711 46.918C88.964 46.7823 88.819 46.5703 88.7676 46.3281C88.7198 46.085 88.7695 45.8327 88.9061 45.6259C89.0426 45.4191 89.2551 45.2743 89.4975 45.2228L96.1814 43.8204C96.4246 43.7725 96.6768 43.8223 96.8836 43.9588C97.0904 44.0954 97.2352 44.3078 97.2867 44.5503C97.3134 44.6722 97.3157 44.7982 97.2934 44.921C97.2711 45.0438 97.2247 45.161 97.1568 45.2657C97.0889 45.3705 97.0009 45.4607 96.8979 45.5312C96.7949 45.6017 96.679 45.651 96.5568 45.6764Z" fill="#263238"/>
<path d="M96.4577 48.4658L91.072 49.5554C90.8287 49.6047 90.5758 49.5556 90.3686 49.4188C90.1615 49.282 90.017 49.0686 89.9667 48.8255C89.9174 48.5836 89.966 48.332 90.1019 48.1258C90.2377 47.9196 90.4497 47.7757 90.6914 47.7255L96.0771 46.615C96.3197 46.5655 96.572 46.614 96.779 46.7497C96.986 46.8855 97.131 47.0975 97.1824 47.3396C97.2099 47.4612 97.213 47.5871 97.1913 47.7099C97.1697 47.8327 97.1238 47.9499 97.0563 48.0547C96.9888 48.1596 96.9011 48.2499 96.7984 48.3205C96.6956 48.3911 96.5798 48.4405 96.4577 48.4658Z" fill="#263238"/>
<path d="M94.7268 43.4034C94.6648 43.4156 94.6005 43.4049 94.5459 43.3732C94.4912 43.3416 94.4499 43.2912 94.4296 43.2314C94.3045 42.8612 92.4432 37.0949 92.0574 32.168C90.9474 32.4947 89.8121 32.7283 88.6633 32.8667C90.2587 37.5589 90.827 43.5755 90.8635 43.9665C90.8693 44.0348 90.8479 44.1027 90.804 44.1554C90.7601 44.2081 90.6972 44.2414 90.6289 44.248C90.5949 44.2516 90.5605 44.2483 90.5278 44.2384C90.4951 44.2285 90.4648 44.2121 90.4385 44.1902C90.4123 44.1683 90.3907 44.1414 90.375 44.111C90.3593 44.0807 90.3499 44.0475 90.3473 44.0134C90.3473 43.9195 89.7426 37.6163 88.1368 32.924C84.0232 33.2629 82.5686 31.6988 82.1098 30.922C81.8351 30.4937 81.7006 29.9905 81.7249 29.4822C81.7492 28.974 81.9311 28.4859 82.2454 28.0858C82.5928 27.7094 83.0526 27.4554 83.5561 27.3614C84.0596 27.2675 84.5801 27.3387 85.0399 27.5644C86.5049 28.1223 87.6467 30.0409 88.4861 32.3766C89.0352 32.3175 89.6296 32.2237 90.2691 32.095C90.9156 31.9595 91.4995 31.8135 92.0209 31.6519C91.8801 29.165 92.1565 26.9596 93.2826 25.8648C93.6186 25.4777 94.0704 25.2094 94.571 25.0995C95.0716 24.9896 95.5943 25.0441 96.0615 25.2548C96.5084 25.4978 96.8689 25.8736 97.093 26.3303C97.3172 26.787 97.394 27.302 97.3127 27.8042C97.1928 28.701 96.4733 30.7134 92.5631 32.0221C92.9489 36.9698 94.8936 42.9707 94.9249 43.0854C94.9449 43.1511 94.9387 43.222 94.9076 43.2832C94.8765 43.3444 94.8229 43.3912 94.7581 43.4138L94.7268 43.4034ZM94.805 25.5728C94.369 25.678 93.9715 25.9039 93.658 26.2245C92.6726 27.1838 92.4171 29.1806 92.5423 31.4694C96.1918 30.2025 96.7132 28.3412 96.8122 27.7208C96.8798 27.3268 96.8233 26.9215 96.6505 26.561C96.4777 26.2004 96.1972 25.9025 95.8477 25.7084C95.5262 25.5442 95.1578 25.4963 94.805 25.5728ZM83.5644 27.8929C83.213 27.9585 82.8947 28.1425 82.6624 28.4142C82.4173 28.7305 82.2766 29.1152 82.2597 29.515C82.2429 29.9148 82.3509 30.3099 82.5686 30.6457C82.8866 31.167 84.1327 32.6738 87.9699 32.4027C87.1827 30.2494 86.1608 28.5185 84.873 28.0232C84.4535 27.8526 83.9935 27.8073 83.5488 27.8929H83.5644Z" fill="white"/>
<path d="M90.6155 10.4376L90.3892 14.2577L90.9097 14.2885L91.136 10.4684L90.6155 10.4376Z" fill="#384AED"/>
<path d="M95.5433 11.3121L94.3354 14.9432L94.8301 15.1078L96.038 11.4766L95.5433 11.3121Z" fill="#384AED"/>
<path d="M100.068 13.4373L97.965 16.6346L98.4006 16.9211L100.503 13.7237L100.068 13.4373Z" fill="#384AED"/>
<path d="M81.1153 42.2268L79.0126 45.4242L79.4482 45.7107L81.5509 42.5133L81.1153 42.2268Z" fill="#384AED"/>
<path d="M103.89 16.6445L101.031 19.1882L101.377 19.5777L104.236 17.034L103.89 16.6445Z" fill="#384AED"/>
<path d="M78.1253 39.5609L75.2663 42.1046L75.6128 42.4941L78.4719 39.9504L78.1253 39.5609Z" fill="#384AED"/>
<path d="M106.756 20.7482L103.332 22.47L103.566 22.9357L106.99 21.2139L106.756 20.7482Z" fill="#384AED"/>
<path d="M75.9399 36.203L72.5165 37.9248L72.7507 38.3906L76.1741 36.6688L75.9399 36.203Z" fill="#384AED"/>
<path d="M108.463 25.4482L104.71 26.222L104.816 26.7327L108.569 25.9589L108.463 25.4482Z" fill="#384AED"/>
<path d="M74.6946 32.4097L70.9415 33.1835L71.0468 33.6941L74.7999 32.9203L74.6946 32.4097Z" fill="#384AED"/>
<path d="M105.068 30.2066L105.038 30.7271L108.863 30.9516L108.894 30.4312L105.068 30.2066Z" fill="#384AED"/>
<path d="M70.6521 28.1943L70.6215 28.7147L74.447 28.9393L74.4775 28.4188L70.6521 28.1943Z" fill="#384AED"/>
<path d="M104.385 34.1489L104.221 34.6437L107.852 35.8503L108.017 35.3556L104.385 34.1489Z" fill="#384AED"/>
<path d="M71.6604 23.2977L71.496 23.7925L75.1276 24.9991L75.292 24.5044L71.6604 23.2977Z" fill="#384AED"/>
<path d="M102.699 37.7831L102.412 38.2184L105.607 40.325L105.894 39.8897L102.699 37.7831Z" fill="#384AED"/>
<path d="M73.9087 18.8337L73.6217 19.2689L76.8165 21.3755L77.1035 20.9402L73.9087 18.8337Z" fill="#384AED"/>
<path d="M77.2219 15.0867L76.8326 15.4333L79.3773 18.2915L79.7666 17.9448L77.2219 15.0867Z" fill="#384AED"/>
<path d="M81.3945 12.3366L80.9287 12.5707L82.6469 15.99L83.1128 15.7559L81.3945 12.3366Z" fill="#384AED"/>
<path d="M86.1428 10.7681L85.6322 10.8734L86.406 14.6265L86.9166 14.5212L86.1428 10.7681Z" fill="#384AED"/>
</svg>
